<svg width="142" height="213" viewBox="0 0 142 213" fill="none" xmlns="http://www.w3.org/2000/svg">
<g opacity="0.5" clip-path="url(#clip0_323_197)">
<path d="M72.8078 121.321C82.1202 112.58 82.5841 97.9457 73.8439 88.6333C65.1036 79.3208 50.469 78.857 41.1566 87.5972C31.8441 96.3375 31.3803 110.972 40.1205 120.285C48.8608 129.597 63.4954 130.061 72.8078 121.321Z" stroke="#EDF1F3" stroke-width="10" stroke-linecap="round" stroke-linejoin="round"/>
<path d="M120.284 171.906C129.597 163.165 130.061 148.531 121.32 139.218C112.58 129.906 97.9456 129.442 88.6331 138.182C79.3207 146.922 78.8568 161.557 87.5971 170.869C96.3373 180.182 110.972 180.646 120.284 171.906Z" stroke="#EDF1F3" stroke-width="10" stroke-linecap="round" stroke-linejoin="round"/>
<path d="M170.868 124.429C180.181 115.689 180.645 101.054 171.904 91.7417C163.164 82.4292 148.53 81.9654 139.217 90.7056C129.905 99.4459 129.441 114.08 138.181 123.393C146.921 132.705 161.556 133.169 170.868 124.429Z" stroke="#EDF1F3" stroke-width="10" stroke-linecap="round" stroke-linejoin="round"/>
<path d="M108.455 28.964L106.679 85.0006M135.585 57.8704L79.5488 56.0942" stroke="#EDF1F3" stroke-width="10" stroke-linecap="round" stroke-linejoin="round"/>
</g>
<defs>
<clipPath id="clip0_323_197">
<rect width="150" height="150" fill="white" transform="translate(0 102.653) rotate(-43.1846)"/>
</clipPath>
</defs>
</svg>
