<svg width="332" height="339" viewBox="0 0 332 339" fill="none" xmlns="http://www.w3.org/2000/svg">
<path d="M92.6239 55.3064H116.149V31.7812H92.6239V55.3064ZM92.6239 55.3064H49.7969V124.639H73.3291M92.6239 55.3064V78.8387H73.3291V124.639M251.671 108.325H275.197V84.7994H251.671V108.325ZM251.671 108.325H198.653V81.8191H129.328V105.344H175.128V124.639H208.851V151.145M251.671 108.325V151.152H208.851M92.6239 283.694H116.149V307.219H92.6239V283.694ZM92.6239 283.694H49.7969V214.361H73.3291M92.6239 283.694V260.161H73.3291V214.361M251.671 230.675H275.197V254.201H251.671V230.675ZM251.671 230.675H198.653V257.181H129.328V240.867H175.128V207.143H208.851V187.855H251.671V230.675ZM73.3291 124.639H142.662V148.164H73.3291V124.639ZM73.3291 214.361H142.662V190.829H73.3291V214.361Z" stroke="url(#paint0_linear_323_274)" stroke-width="5" stroke-linecap="round" stroke-linejoin="round"/>
<defs>
<linearGradient id="paint0_linear_323_274" x1="32.9415" y1="171.083" x2="289.765" y2="170.531" gradientUnits="userSpaceOnUse">
<stop stop-color="#A69F6F"/>
<stop offset="1" stop-color="#5A574F"/>
</linearGradient>
</defs>
</svg>
