<svg width="56" height="32" viewBox="0 0 56 32" fill="none" xmlns="http://www.w3.org/2000/svg">
<rect x="0.5" y="0.5" width="55" height="31" rx="5.5" fill="#EDF1F3"/>
<rect x="0.5" y="0.5" width="55" height="31" rx="5.5" stroke="#EDF1F3"/>
<path d="M28.6045 14.0641C28.5845 15.5597 30.0136 16.3944 31.0902 16.8907C32.1964 17.3999 32.5679 17.7263 32.5637 18.1816C32.5552 18.8785 31.6813 19.1861 30.8633 19.198C29.4363 19.219 28.6066 18.8336 27.947 18.5421L27.4329 20.8175C28.0947 21.1061 29.3201 21.3577 30.591 21.3687C33.5738 21.3687 35.5254 19.9758 35.5359 17.8162C35.5476 15.0755 31.5282 14.9237 31.5557 13.6986C31.5652 13.3272 31.9399 12.9308 32.7611 12.83C33.1674 12.7791 34.2894 12.7401 35.5613 13.2943L36.0605 11.0927C35.3766 10.8571 34.4973 10.6314 33.4028 10.6314C30.5952 10.6314 28.6204 12.0432 28.6045 14.0641ZM40.8577 10.8211C40.3131 10.8211 39.854 11.1217 39.6492 11.583L35.3882 21.2069H38.3689L38.9621 19.6563H42.6046L42.9487 21.2069H45.5758L43.2833 10.8211H40.8577ZM41.2747 13.6268L42.1349 17.5267H39.779L41.2747 13.6268ZM24.9905 10.8211L22.641 21.2069H25.4813L27.8298 10.8211H24.9905ZM20.7886 10.8211L17.8322 17.8901L16.6363 11.8795C16.4959 11.2085 15.9418 10.8211 15.3264 10.8211H10.4933L10.4258 11.1227C11.4179 11.3264 12.5452 11.6548 13.2281 12.0063C13.6461 12.221 13.7654 12.4087 13.9026 12.9189L16.1677 21.2069H19.1695L23.7714 10.8211H20.7886Z" fill="url(#paint0_linear_376_1510)"/>
<defs>
<linearGradient id="paint0_linear_376_1510" x1="26.5857" y1="21.5841" x2="26.8797" y2="10.5559" gradientUnits="userSpaceOnUse">
<stop stop-color="#222357"/>
<stop offset="1" stop-color="#254AA5"/>
</linearGradient>
</defs>
</svg>
