<svg width="25" height="24" viewBox="0 0 25 24" fill="none" xmlns="http://www.w3.org/2000/svg">
<path d="M23.5957 9.91453L13.8061 9.91406C13.3738 9.91406 13.0234 10.2644 13.0234 10.6967V13.824C13.0234 14.2561 13.3738 14.6066 13.8061 14.6066H19.319C18.7153 16.1732 17.5886 17.4852 16.1511 18.3188L18.5018 22.388C22.2726 20.2072 24.5019 16.3808 24.5019 12.0975C24.5019 11.4876 24.457 11.0516 24.3671 10.5607C24.2987 10.1877 23.9749 9.91453 23.5957 9.91453Z" fill="#167EE6"/>
<path d="M12.5005 19.3037C9.80261 19.3037 7.44736 17.8297 6.18241 15.6484L2.11328 17.9938C4.18403 21.5826 8.06322 23.9994 12.5005 23.9994C14.6773 23.9994 16.7313 23.4133 18.5007 22.3919V22.3863L16.15 18.3171C15.0747 18.9408 13.8304 19.3037 12.5005 19.3037Z" fill="#12B347"/>
<path d="M18.5001 22.3951V22.3895L16.1494 18.3203C15.0742 18.9439 13.83 19.3069 12.5 19.3069V24.0026C14.6768 24.0026 16.7309 23.4165 18.5001 22.3951Z" fill="#0F993E"/>
<path d="M5.19577 12.0022C5.19577 10.6724 5.55868 9.42833 6.18218 8.35316L2.11305 6.00781C1.08605 7.77158 0.5 9.81993 0.5 12.0022C0.5 14.1846 1.08605 16.2329 2.11305 17.9967L6.18218 15.6513C5.55868 14.5761 5.19577 13.332 5.19577 12.0022Z" fill="#FFD500"/>
<path d="M12.5005 4.69566C14.2598 4.69566 15.8758 5.32079 17.1381 6.36061C17.4495 6.61711 17.9021 6.5986 18.1873 6.31336L20.4031 4.09758C20.7268 3.77396 20.7037 3.24422 20.358 2.94431C18.2432 1.10967 15.4915 0 12.5005 0C8.06322 0 4.18403 2.41674 2.11328 6.00558L6.18241 8.35093C7.44736 6.16969 9.80261 4.69566 12.5005 4.69566Z" fill="#FF4B26"/>
<path d="M17.1376 6.36061C17.4489 6.61711 17.9016 6.5986 18.1868 6.31336L20.4026 4.09758C20.7262 3.77396 20.7031 3.24422 20.3575 2.94431C18.2427 1.10963 15.491 0 12.5 0V4.69566C14.2593 4.69566 15.8753 5.32079 17.1376 6.36061Z" fill="#D93F21"/>
</svg>
