<svg width="120" height="120" viewBox="0 0 120 120" fill="none" xmlns="http://www.w3.org/2000/svg">
<path opacity="0.4" d="M80.9605 10H39.1105C20.9105 10 10.0605 20.85 10.0605 39.05V80.9C10.0605 99.1 20.9105 109.95 39.1105 109.95H80.9605C99.1605 109.95 110.011 99.1 110.011 80.9V39.05C110.011 20.85 99.1605 10 80.9605 10Z" fill="#AFD275"/>
<path opacity="0.4" d="M68.9154 36.833H51.4154C43.3654 36.833 36.832 43.3663 36.832 51.4163V68.9163C36.832 76.9663 43.3654 83.4997 51.4154 83.4997H68.9154C76.9654 83.4997 83.4987 76.9663 83.4987 68.9163V51.4163C83.4987 43.3663 76.9654 36.833 68.9154 36.833ZM75.507 66.758C75.507 71.5997 71.5987 75.508 66.757 75.508H53.5737C48.732 75.508 44.8237 71.5997 44.8237 66.758V53.5747C44.8237 48.733 48.732 44.8247 53.5737 44.8247H66.7279C71.5695 44.8247 75.4779 48.733 75.4779 53.5747V66.758H75.507Z" fill="#AFD275"/>
<path d="M51.5917 33.1875V36.8333H51.4167C49.9583 36.8333 48.5583 37.0375 47.2167 37.4458V33.1875C47.2167 32.6073 47.4471 32.0509 47.8574 31.6407C48.2676 31.2305 48.824 31 49.4042 31C49.9843 31 50.5407 31.2305 50.951 31.6407C51.3612 32.0509 51.5917 32.6073 51.5917 33.1875ZM62.3542 33.1875V36.8333H57.9792V33.1875C57.9792 31.9917 58.9708 31 60.1667 31C61.3625 31 62.3542 31.9917 62.3542 33.1875ZM73.1458 33.1875V37.4458C71.8042 37.0375 70.375 36.8333 68.9167 36.8333H68.7708V33.1875C68.7708 31.9917 69.7625 31 70.9583 31C72.1542 31 73.1458 31.9917 73.1458 33.1875ZM89.3333 49.375C89.3333 50.6 88.3708 51.5625 87.1458 51.5625H83.5V51.4167C83.5 49.9583 83.2958 48.5292 82.8875 47.1875H87.1458C88.3708 47.1875 89.3333 48.1792 89.3333 49.375ZM89.3333 60.1667C89.3333 61.3625 88.3708 62.3542 87.1458 62.3542H83.5V57.9792H87.1458C88.3708 57.9792 89.3333 58.9417 89.3333 60.1667ZM89.3333 70.9583C89.3333 72.1542 88.3708 73.1458 87.1458 73.1458H82.8875C83.2958 71.8042 83.5 70.375 83.5 68.9167V68.7708H87.1458C88.3708 68.7708 89.3333 69.7333 89.3333 70.9583ZM73.1458 82.8875V87.1458C73.1458 88.3417 72.1542 89.3333 70.9583 89.3333C69.7625 89.3333 68.7708 88.3417 68.7708 87.1458V83.5H68.9167C70.375 83.5 71.8042 83.2958 73.1458 82.8875ZM62.3833 83.5V87.1458C62.3833 87.726 62.1529 88.2824 61.7426 88.6926C61.3324 89.1029 60.776 89.3333 60.1958 89.3333C59.6157 89.3333 59.0593 89.1029 58.649 88.6926C58.2388 88.2824 58.0083 87.726 58.0083 87.1458V83.5H62.3833ZM51.5917 83.5V87.1458C51.5917 87.726 51.3612 88.2824 50.951 88.6926C50.5407 89.1029 49.9843 89.3333 49.4042 89.3333C48.824 89.3333 48.2676 89.1029 47.8574 88.6926C47.4471 88.2824 47.2167 87.726 47.2167 87.1458V82.8875C48.5583 83.2958 49.9583 83.5 51.4167 83.5H51.5917ZM37.4458 47.1875C37.0375 48.5292 36.8333 49.9583 36.8333 51.4167V51.5625H33.1875C32.6073 51.5625 32.0509 51.332 31.6407 50.9218C31.2305 50.5116 31 49.9552 31 49.375C31 48.7948 31.2305 48.2384 31.6407 47.8282C32.0509 47.418 32.6073 47.1875 33.1875 47.1875H37.4458ZM36.8333 57.9792V62.3542H33.1875C32.6073 62.3542 32.0509 62.1237 31.6407 61.7135C31.2305 61.3032 31 60.7468 31 60.1667C31 59.5865 31.2305 59.0301 31.6407 58.6199C32.0509 58.2096 32.6073 57.9792 33.1875 57.9792H36.8333ZM37.4458 73.1458H33.1875C32.6073 73.1458 32.0509 72.9154 31.6407 72.5051C31.2305 72.0949 31 71.5385 31 70.9583C31 70.3782 31.2305 69.8218 31.6407 69.4115C32.0509 69.0013 32.6073 68.7708 33.1875 68.7708H36.8333V68.9167C36.8333 70.375 37.0375 71.8042 37.4458 73.1458ZM75.5083 53.5692V66.7233C75.5083 71.565 71.6 75.4733 66.7583 75.4733H53.575C48.7333 75.4733 44.825 71.565 44.825 66.7233V53.5692C44.825 48.7275 48.7333 44.8192 53.575 44.8192H66.7292C69.0525 44.8192 71.2811 45.7401 72.9267 47.3802C74.5723 49.0203 75.5006 51.2458 75.5083 53.5692Z" fill="#AFD275"/>
</svg>
