<svg width="120" height="120" viewBox="0 0 120 120" fill="none" xmlns="http://www.w3.org/2000/svg">
<path opacity="0.4" d="M80.9605 10H39.1105C20.9105 10 10.0605 20.85 10.0605 39.05V80.9C10.0605 99.1 20.9105 109.95 39.1105 109.95H80.9605C99.1605 109.95 110.011 99.1 110.011 80.9V39.05C110.011 20.85 99.1605 10 80.9605 10Z" fill="#AFD275"/>
<path opacity="0.4" d="M95.0016 59.9995C95.0016 69.6594 87.1617 77.4994 77.5018 77.4994C77.5018 67.8394 69.6618 59.9995 60.002 59.9995C69.6618 59.9995 77.5018 52.1595 77.5018 42.4995C87.1617 42.4995 95.0016 50.3395 95.0016 59.9995Z" fill="#AFD275"/>
<path d="M77.5018 77.4995C67.8419 77.4995 60.002 69.6595 60.002 59.9995C69.6618 59.9995 77.5018 67.8395 77.5018 77.4995Z" fill="#AFD275"/>
<path opacity="0.4" d="M77.5035 77.4995C77.5035 87.1594 69.6636 94.9994 60.0037 94.9994C50.3438 94.9994 42.5039 87.1594 42.5039 77.4995C52.1638 77.4995 60.0037 69.6595 60.0037 59.9995C60.0037 69.6595 67.8436 77.4995 77.5035 77.4995Z" fill="#AFD275"/>
<path d="M77.5018 42.4995C77.5018 52.1595 69.6618 59.9995 60.002 59.9995C60.002 50.3395 67.8419 42.4995 77.5018 42.4995Z" fill="#AFD275"/>
<path opacity="0.4" d="M77.5035 42.5C67.8436 42.5 60.0037 50.3399 60.0037 59.9999C60.0037 50.3399 52.1638 42.5 42.5039 42.5C42.5039 32.84 50.3438 25 60.0037 25C69.6636 25 77.5035 32.84 77.5035 42.5Z" fill="#AFD275"/>
<path d="M60.0037 59.9995C60.0037 69.6594 52.1638 77.4994 42.5039 77.4994C42.5039 67.8394 50.3438 59.9995 60.0037 59.9995ZM60.0037 59.9995C50.3438 59.9995 42.5039 52.1595 42.5039 42.4995C52.1638 42.4995 60.0037 50.3395 60.0037 59.9995Z" fill="#AFD275"/>
<path opacity="0.4" d="M59.9996 59.9995C50.3397 59.9995 42.4998 67.8394 42.4998 77.4994C32.8399 77.4994 25 69.6594 25 59.9995C25 50.3395 32.8399 42.4995 42.4998 42.4995C42.4998 52.1595 50.3397 59.9995 59.9996 59.9995Z" fill="#AFD275"/>
</svg>
