<svg width="36" height="36" viewBox="0 0 36 36" fill="none" xmlns="http://www.w3.org/2000/svg">
<rect x="2" y="2" width="32" height="32" rx="16" fill="#AFD275" fill-opacity="0.2"/>
<path d="M13.3333 24H22.6667C23.403 24 24 23.403 24 22.6667V13.3333C24 12.597 23.403 12 22.6667 12H13.3333C12.597 12 12 12.597 12 13.3333V22.6667C12 23.403 12.597 24 13.3333 24ZM13.3333 24L20.6667 16.6667L24 20M16.6667 15.6667C16.6667 16.219 16.219 16.6667 15.6667 16.6667C15.1144 16.6667 14.6667 16.219 14.6667 15.6667C14.6667 15.1144 15.1144 14.6667 15.6667 14.6667C16.219 14.6667 16.6667 15.1144 16.6667 15.6667Z" stroke="#AFD275" stroke-width="1.33333" stroke-linecap="round" stroke-linejoin="round"/>
<rect x="2" y="2" width="32" height="32" rx="16" stroke="#C2B9B0" stroke-opacity="0.15" stroke-width="4"/>
</svg>
