<svg width="25" height="25" viewBox="0 0 25 25" fill="none" xmlns="http://www.w3.org/2000/svg">
<path fill-rule="evenodd" clip-rule="evenodd" d="M9.82252 9.34275H13.6913V11.2698C14.2486 10.1615 15.6777 9.16566 17.8246 9.16566C21.9402 9.16566 22.9173 11.3719 22.9173 15.4198V22.9167H18.7506V16.3417C18.7506 14.0365 18.1934 12.7365 16.7746 12.7365C14.8069 12.7365 13.9892 14.1375 13.9892 16.3407V22.9167H9.82252V9.34275ZM2.67773 22.7396H6.8444V9.16566H2.67773V22.7396ZM7.44127 4.73962C7.44143 5.08887 7.37217 5.43466 7.23751 5.7569C7.10286 6.07914 6.9055 6.37141 6.6569 6.61671C6.15315 7.11736 5.47129 7.39759 4.76107 7.39587C4.0521 7.3954 3.37181 7.11587 2.86732 6.61775C2.61962 6.37161 2.42293 6.07902 2.28851 5.75674C2.15409 5.43446 2.08459 5.08882 2.08398 4.73962C2.08398 4.03442 2.36523 3.35942 2.86836 2.8615C3.37241 2.36271 4.05298 2.08306 4.76211 2.08337C5.47253 2.08337 6.15377 2.36358 6.6569 2.8615C7.15898 3.35942 7.44127 4.03442 7.44127 4.73962Z" fill="#EDF1F3"/>
</svg>
