<svg width="25" height="25" viewBox="0 0 25 25" fill="none" xmlns="http://www.w3.org/2000/svg">
<path fill-rule="evenodd" clip-rule="evenodd" d="M9.82252 9.34287H13.6913V11.27C14.2486 10.1616 15.6777 9.16579 17.8246 9.16579C21.9402 9.16579 22.9173 11.372 22.9173 15.42V22.9168H18.7506V16.3418C18.7506 14.0366 18.1934 12.7366 16.7746 12.7366C14.8069 12.7366 13.9892 14.1377 13.9892 16.3408V22.9168H9.82252V9.34287ZM2.67773 22.7397H6.8444V9.16579H2.67773V22.7397ZM7.44127 4.73975C7.44143 5.08899 7.37217 5.43478 7.23751 5.75702C7.10286 6.07927 6.9055 6.37153 6.6569 6.61683C6.15315 7.11748 5.47129 7.39772 4.76107 7.396C4.0521 7.39552 3.37181 7.11599 2.86732 6.61787C2.61962 6.37174 2.42293 6.07915 2.28851 5.75686C2.15409 5.43458 2.08459 5.08894 2.08398 4.73975C2.08398 4.03454 2.36523 3.35954 2.86836 2.86162C3.37241 2.36283 4.05298 2.08318 4.76211 2.0835C5.47253 2.0835 6.15377 2.3637 6.6569 2.86162C7.15898 3.35954 7.44127 4.03454 7.44127 4.73975Z" fill="black"/>
</svg>
