<svg width="25" height="25" viewBox="0 0 25 25" fill="none" xmlns="http://www.w3.org/2000/svg">
<path d="M24.6286 5.14281C23.7589 5.52822 22.8245 5.78864 21.8422 5.90635C22.8557 5.29988 23.614 4.34538 23.9755 3.22093C23.0233 3.78655 21.9811 4.18468 20.8943 4.39802C20.1634 3.61767 19.1954 3.10044 18.1404 2.92664C17.0855 2.75283 16.0027 2.93217 15.0601 3.43682C14.1176 3.94147 13.368 4.74319 12.9278 5.7175C12.4875 6.69181 12.3813 7.78421 12.6255 8.8251C10.696 8.72822 8.80847 8.22671 7.08534 7.35313C5.36221 6.47954 3.84202 5.25339 2.62344 3.75427C2.20677 4.47302 1.96719 5.30635 1.96719 6.19385C1.96672 6.9928 2.16347 7.77952 2.53998 8.4842C2.91648 9.18887 3.46111 9.78972 4.12552 10.2334C3.35498 10.2089 2.60143 10.0007 1.9276 9.62614V9.68864C1.92753 10.8092 2.31514 11.8953 3.02467 12.7626C3.7342 13.6299 4.72195 14.225 5.82031 14.447C5.1055 14.6404 4.35608 14.6689 3.62865 14.5303C3.93854 15.4945 4.54218 16.3376 5.35507 16.9417C6.16796 17.5457 7.14939 17.8805 8.16198 17.8991C6.44306 19.2484 4.3202 19.9804 2.1349 19.9772C1.74779 19.9773 1.36102 19.9547 0.976562 19.9095C3.19477 21.3357 5.77692 22.0926 8.41406 22.0897C17.3411 22.0897 22.2214 14.6959 22.2214 8.28343C22.2214 8.0751 22.2161 7.86468 22.2068 7.65635C23.156 6.96986 23.9754 6.11978 24.6266 5.14593L24.6286 5.14281Z" fill="#EDF1F3"/>
</svg>
