<svg width="25" height="25" viewBox="0 0 25 25" fill="none" xmlns="http://www.w3.org/2000/svg">
<path d="M24.6286 5.14256C23.7589 5.52798 22.8245 5.7884 21.8422 5.90611C22.8557 5.29964 23.614 4.34513 23.9755 3.22069C23.0233 3.7863 21.9811 4.18443 20.8943 4.39777C20.1634 3.61742 19.1954 3.1002 18.1404 2.92639C17.0855 2.75259 16.0027 2.93193 15.0601 3.43658C14.1176 3.94122 13.368 4.74294 12.9278 5.71726C12.4875 6.69157 12.3813 7.78397 12.6255 8.82485C10.696 8.72798 8.80847 8.22647 7.08534 7.35288C5.36221 6.47929 3.84202 5.25315 2.62344 3.75402C2.20677 4.47277 1.96719 5.30611 1.96719 6.19361C1.96672 6.99256 2.16347 7.77927 2.53998 8.48395C2.91648 9.18863 3.46111 9.78948 4.12552 10.2332C3.35498 10.2087 2.60143 10.0005 1.9276 9.6259V9.6884C1.92753 10.809 2.31514 11.895 3.02467 12.7624C3.7342 13.6297 4.72195 14.2248 5.82031 14.4467C5.1055 14.6402 4.35608 14.6687 3.62865 14.5301C3.93854 15.4942 4.54218 16.3374 5.35507 16.9414C6.16796 17.5455 7.14939 17.8802 8.16198 17.8988C6.44306 19.2482 4.3202 19.9802 2.1349 19.9769C1.74779 19.977 1.36102 19.9544 0.976562 19.9092C3.19477 21.3355 5.77692 22.0924 8.41406 22.0894C17.3411 22.0894 22.2214 14.6957 22.2214 8.28319C22.2214 8.07485 22.2161 7.86444 22.2068 7.6561C23.156 6.96962 23.9754 6.11954 24.6266 5.14569L24.6286 5.14256Z" fill="black"/>
</svg>
