<svg width="25" height="25" viewBox="0 0 25 25" fill="none" xmlns="http://www.w3.org/2000/svg">
<path d="M24.6286 5.14269C23.7589 5.5281 22.8245 5.78852 21.8422 5.90623C22.8557 5.29976 23.614 4.34526 23.9755 3.22081C23.0233 3.78643 21.9811 4.18456 20.8943 4.39789C20.1634 3.61755 19.1954 3.10032 18.1404 2.92651C17.0855 2.75271 16.0027 2.93205 15.0601 3.4367C14.1176 3.94135 13.368 4.74306 12.9278 5.71738C12.4875 6.69169 12.3813 7.78409 12.6255 8.82498C10.696 8.7281 8.80847 8.22659 7.08534 7.353C5.36221 6.47942 3.84202 5.25327 2.62344 3.75415C2.20677 4.47289 1.96719 5.30623 1.96719 6.19373C1.96672 6.99268 2.16347 7.7794 2.53998 8.48407C2.91648 9.18875 3.46111 9.7896 4.12552 10.2333C3.35498 10.2088 2.60143 10.0006 1.9276 9.62602V9.68852C1.92753 10.8091 2.31514 11.8952 3.02467 12.7625C3.7342 13.6298 4.72195 14.2249 5.82031 14.4469C5.1055 14.6403 4.35608 14.6688 3.62865 14.5302C3.93854 15.4944 4.54218 16.3375 5.35507 16.9416C6.16796 17.5456 7.14939 17.8804 8.16198 17.8989C6.44306 19.2483 4.3202 19.9803 2.1349 19.9771C1.74779 19.9772 1.36102 19.9546 0.976562 19.9093C3.19477 21.3356 5.77692 22.0925 8.41406 22.0896C17.3411 22.0896 22.2214 14.6958 22.2214 8.28331C22.2214 8.07498 22.2161 7.86456 22.2068 7.65623C23.156 6.96974 23.9754 6.11966 24.6266 5.14581L24.6286 5.14269Z" fill="#EDF1F3"/>
</svg>
