<svg width="25" height="25" viewBox="0 0 25 25" fill="none" xmlns="http://www.w3.org/2000/svg">
<path fill-rule="evenodd" clip-rule="evenodd" d="M9.82057 9.34263H13.6893V11.2697C14.2466 10.1614 15.6758 9.16554 17.8227 9.16554C21.9383 9.16554 22.9154 11.3718 22.9154 15.4197V22.9166H18.7487V16.3416C18.7487 14.0364 18.1914 12.7364 16.7727 12.7364C14.8049 12.7364 13.9872 14.1374 13.9872 16.3405V22.9166H9.82057V9.34263ZM2.67578 22.7395H6.84245V9.16554H2.67578V22.7395ZM7.43932 4.7395C7.43948 5.08875 7.37021 5.43454 7.23556 5.75678C7.1009 6.07902 6.90354 6.37129 6.65495 6.61658C6.1512 7.11723 5.46933 7.39747 4.75911 7.39575C4.05014 7.39527 3.36985 7.11575 2.86536 6.61763C2.61767 6.37149 2.42097 6.0789 2.28656 5.75662C2.15214 5.43433 2.08263 5.08869 2.08203 4.7395C2.08203 4.03429 2.36328 3.35929 2.86641 2.86138C3.37045 2.36258 4.05103 2.08294 4.76016 2.08325C5.47057 2.08325 6.15182 2.36346 6.65495 2.86138C7.15703 3.35929 7.43932 4.03429 7.43932 4.7395Z" fill="#EDF1F3"/>
</svg>
