<svg width="25" height="25" viewBox="0 0 25 25" fill="none" xmlns="http://www.w3.org/2000/svg">
<path fill-rule="evenodd" clip-rule="evenodd" d="M9.82057 9.34275H13.6893V11.2698C14.2466 10.1615 15.6758 9.16566 17.8227 9.16566C21.9383 9.16566 22.9154 11.3719 22.9154 15.4198V22.9167H18.7487V16.3417C18.7487 14.0365 18.1914 12.7365 16.7727 12.7365C14.8049 12.7365 13.9872 14.1375 13.9872 16.3407V22.9167H9.82057V9.34275ZM2.67578 22.7396H6.84245V9.16566H2.67578V22.7396ZM7.43932 4.73962C7.43948 5.08887 7.37021 5.43466 7.23556 5.7569C7.1009 6.07914 6.90354 6.37141 6.65495 6.61671C6.1512 7.11736 5.46933 7.39759 4.75911 7.39587C4.05014 7.3954 3.36985 7.11587 2.86536 6.61775C2.61767 6.37161 2.42097 6.07902 2.28656 5.75674C2.15214 5.43446 2.08263 5.08882 2.08203 4.73962C2.08203 4.03442 2.36328 3.35942 2.86641 2.8615C3.37045 2.36271 4.05103 2.08306 4.76016 2.08337C5.47057 2.08337 6.15182 2.36358 6.65495 2.8615C7.15703 3.35942 7.43932 4.03442 7.43932 4.73962Z" fill="#EDF1F3"/>
</svg>
