<svg width="339" height="339" viewBox="0 0 339 339" fill="none" xmlns="http://www.w3.org/2000/svg">
<path d="M99.6239 55.3064H123.149V31.7812H99.6239V55.3064ZM99.6239 55.3064H56.7969V124.639H80.3291M99.6239 55.3064V78.8387H80.3291V124.639M258.671 108.325H282.197V84.7994H258.671V108.325ZM258.671 108.325H205.653V81.8191H136.328V105.344H182.128V124.639H215.851V151.145M258.671 108.325V151.152H215.851M99.6239 283.694H123.149V307.219H99.6239V283.694ZM99.6239 283.694H56.7969V214.361H80.3291M99.6239 283.694V260.161H80.3291V214.361M258.671 230.675H282.197V254.201H258.671V230.675ZM258.671 230.675H205.653V257.181H136.328V240.867H182.128V207.143H215.851V187.855H258.671V230.675ZM80.3291 124.639H149.662V148.164H80.3291V124.639ZM80.3291 214.361H149.662V190.829H80.3291V214.361Z" stroke="url(#paint0_linear_323_274)" stroke-width="5" stroke-linecap="round" stroke-linejoin="round"/>
<defs>
<linearGradient id="paint0_linear_323_274" x1="39.9415" y1="171.083" x2="296.765" y2="170.531" gradientUnits="userSpaceOnUse">
<stop stop-color="#A69F6F"/>
<stop offset="1" stop-color="#5A574F"/>
</linearGradient>
</defs>
</svg>
