<svg width="68" height="68" viewBox="0 0 68 68" fill="none" xmlns="http://www.w3.org/2000/svg">
<path d="M34.2543 60.2083C40.6293 55.0374 50.3477 50.1358 50.3477 29.2399V16.2066C44.681 16.2066 39.7368 13.5433 34.1977 11.2766C28.9702 13.4441 23.4168 16.2349 17.4102 16.1783V29.3108C17.6368 49.2291 26.916 55.2499 34.2543 60.2083Z" stroke="#AFD275" stroke-width="1.41667" stroke-linecap="round" stroke-linejoin="round"/>
<path d="M47.1747 46.3817C52.643 50.6317 55.5755 55.5192 58.508 60.1516C53.3778 57.7471 48.7932 54.3195 45.0355 50.0792M20.6264 45.9142C15.0447 50.7308 11.0922 55.2642 9.17969 59.84C13.9397 57.0067 18.1614 54.6833 22.5389 49.4558M9.53385 8.25916L17.4672 16.1783M20.7397 10.8658L16.1072 14.8183L12.1547 19.4508M58.3239 8.27332L50.4047 16.2067M55.7172 19.4792L51.7647 14.8467L47.1322 10.88M34.2547 20.23C31.0598 21.3607 27.7692 22.2 24.423 22.7375C23.7572 34.4533 27.9222 42.5708 34.2547 48.79C40.7005 42.5 43.5622 34 43.463 23.1908C40.2799 22.6005 37.1853 21.6055 34.2547 20.23Z" stroke="#AFD275" stroke-width="4" stroke-linecap="round" stroke-linejoin="round"/>
</svg>
