<svg width="475" height="475" viewBox="0 0 475 475" fill="none" xmlns="http://www.w3.org/2000/svg">
<path d="M139.59 77.4943H172.553V44.5312H139.59V77.4943ZM139.59 77.4943H79.582V174.642H112.555M139.59 77.4943V110.467H112.555V174.642M362.445 151.782H395.408V118.819H362.445V151.782ZM362.445 151.782H288.157V114.643H191.019V147.606H255.193V174.642H302.446V211.781M362.445 151.782V211.791H302.446M139.59 397.506H172.553V430.469H139.59V397.506ZM139.59 397.506H79.582V300.358H112.555M139.59 397.506V364.533H112.555V300.358M362.445 323.218H395.408V356.181H362.445V323.218ZM362.445 323.218H288.157V360.357H191.019V337.497H255.193V290.245H302.446V263.219H362.445V323.218ZM112.555 174.642H209.702V207.605H112.555V174.642ZM112.555 300.358H209.702V267.385H112.555V300.358Z" stroke="#EDF1F3" stroke-width="5" stroke-linecap="round" stroke-linejoin="round"/>
</svg>
