<svg width="3006" height="1787" viewBox="0 0 3006 1787" fill="none" xmlns="http://www.w3.org/2000/svg">
<g opacity="0.12" filter="url(#filter0_f_279_904)">
<ellipse cx="783.296" cy="742.464" rx="283.296" ry="242.463" fill="#AFD275"/>
</g>
<path opacity="0.04" d="M1061.59 742.463C1061.59 872.909 937.753 979.927 783.296 979.927C628.839 979.927 505 872.909 505 742.463C505 612.018 628.839 505 783.296 505C937.753 505 1061.59 612.018 1061.59 742.463Z" stroke="#C2B9B0" stroke-width="10"/>
<path opacity="0.04" d="M2656 786.5C2656 917.677 2549.88 1024 2419 1024C2288.12 1024 2182 917.677 2182 786.5C2182 655.323 2288.12 549 2419 549C2549.88 549 2656 655.323 2656 786.5Z" stroke="#C2B9B0" stroke-width="10"/>
<g opacity="0.18" filter="url(#filter1_f_279_904)">
<ellipse cx="2282" cy="1006" rx="224" ry="281" fill="#AFD275"/>
</g>
<path opacity="0.04" d="M2501 1006C2501 1159.55 2401.95 1282 2282 1282C2162.05 1282 2063 1159.55 2063 1006C2063 852.452 2162.05 730 2282 730C2401.95 730 2501 852.452 2501 1006Z" stroke="#C2B9B0" stroke-width="10"/>
<defs>
<filter id="filter0_f_279_904" x="0" y="0" width="1566.59" height="1484.93" filterUnits="userSpaceOnUse" color-interpolation-filters="sRGB">
<feFlood flood-opacity="0" result="BackgroundImageFix"/>
<feBlend mode="normal" in="SourceGraphic" in2="BackgroundImageFix" result="shape"/>
<feGaussianBlur stdDeviation="250" result="effect1_foregroundBlur_279_904"/>
</filter>
<filter id="filter1_f_279_904" x="1558" y="225" width="1448" height="1562" filterUnits="userSpaceOnUse" color-interpolation-filters="sRGB">
<feFlood flood-opacity="0" result="BackgroundImageFix"/>
<feBlend mode="normal" in="SourceGraphic" in2="BackgroundImageFix" result="shape"/>
<feGaussianBlur stdDeviation="250" result="effect1_foregroundBlur_279_904"/>
</filter>
</defs>
</svg>
