<svg width="24" height="24" viewBox="0 0 24 24" fill="none" xmlns="http://www.w3.org/2000/svg">
<path fill-rule="evenodd" clip-rule="evenodd" d="M14.3853 15.4458C13.0375 16.5227 11.3284 17.0427 9.60922 16.8989C7.88999 16.7551 6.29108 15.9584 5.14088 14.6725C3.99068 13.3867 3.3765 11.7092 3.42449 9.98462C3.47248 8.26005 4.17898 6.61932 5.39891 5.3994C6.61883 4.17947 8.25956 3.47296 9.98413 3.42498C11.7087 3.37699 13.3862 3.99117 14.6721 5.14137C15.9579 6.29157 16.7546 7.89048 16.8984 9.60971C17.0422 11.3289 16.5222 13.038 15.4453 14.3858L20.6013 19.5408C20.675 19.6095 20.7341 19.6923 20.7751 19.7843C20.8161 19.8763 20.8381 19.9756 20.8399 20.0763C20.8417 20.177 20.8232 20.277 20.7855 20.3704C20.7477 20.4638 20.6916 20.5486 20.6204 20.6199C20.5492 20.6911 20.4643 20.7472 20.3709 20.7849C20.2775 20.8227 20.1775 20.8412 20.0768 20.8394C19.9761 20.8376 19.8768 20.8156 19.7848 20.7746C19.6928 20.7336 19.61 20.6745 19.5413 20.6008L14.3853 15.4458ZM6.45933 13.8838C5.72537 13.1498 5.22549 12.2146 5.02284 11.1966C4.8202 10.1785 4.92391 9.12326 5.32084 8.16412C5.71778 7.20498 6.39014 6.38504 7.25295 5.80792C8.11575 5.2308 9.13027 4.9224 10.1683 4.9217C11.2063 4.921 12.2213 5.22804 13.0848 5.804C13.9484 6.37996 14.6219 7.19899 15.0201 8.15759C15.4183 9.11619 15.5235 10.1713 15.3222 11.1897C15.1209 12.208 14.6223 13.1438 13.8893 13.8788L13.8843 13.8838L13.8793 13.8878C12.8944 14.8704 11.5598 15.422 10.1685 15.4212C8.77725 15.4205 7.44318 14.8675 6.45933 13.8838Z" fill="#FCFCFC"/>
</svg>
