<svg width="24" height="24" viewBox="0 0 24 24" fill="none" xmlns="http://www.w3.org/2000/svg">
<path fill-rule="evenodd" clip-rule="evenodd" d="M14.3853 15.4461C13.0375 16.523 11.3284 17.0429 9.60922 16.8991C7.88999 16.7553 6.29108 15.9587 5.14088 14.6728C3.99068 13.3869 3.3765 11.7094 3.42449 9.98486C3.47248 8.2603 4.17898 6.61956 5.39891 5.39964C6.61883 4.17971 8.25956 3.47321 9.98413 3.42522C11.7087 3.37724 13.3862 3.99141 14.6721 5.14161C15.9579 6.29181 16.7546 7.89072 16.8984 9.60995C17.0422 11.3292 16.5222 13.0382 15.4453 14.3861L20.6013 19.5411C20.675 19.6097 20.7341 19.6925 20.7751 19.7845C20.8161 19.8765 20.8381 19.9758 20.8399 20.0765C20.8417 20.1772 20.8232 20.2773 20.7855 20.3707C20.7477 20.464 20.6916 20.5489 20.6204 20.6201C20.5492 20.6913 20.4643 20.7475 20.3709 20.7852C20.2775 20.8229 20.1775 20.8414 20.0768 20.8397C19.9761 20.8379 19.8768 20.8158 19.7848 20.7748C19.6928 20.7339 19.61 20.6747 19.5413 20.6011L14.3853 15.4461ZM6.45933 13.8841C5.72537 13.15 5.22549 12.2149 5.02284 11.1968C4.8202 10.1788 4.92391 9.1235 5.32084 8.16436C5.71778 7.20523 6.39014 6.38529 7.25295 5.80817C8.11575 5.23104 9.13027 4.92265 10.1683 4.92195C11.2063 4.92125 12.2213 5.22828 13.0848 5.80424C13.9484 6.3802 14.6219 7.19924 15.0201 8.15784C15.4183 9.11644 15.5235 10.1716 15.3222 11.1899C15.1209 12.2082 14.6223 13.144 13.8893 13.8791L13.8843 13.8841L13.8793 13.8881C12.8944 14.8707 11.5598 15.4222 10.1685 15.4214C8.77725 15.4207 7.44318 14.8677 6.45933 13.8841Z" fill="#FCFCFC"/>
</svg>
