<svg width="69" height="68" viewBox="0 0 69 68" fill="none" xmlns="http://www.w3.org/2000/svg">
<path d="M13.25 44.625V42.5H9V44.625C9 48.5701 10.5672 52.3536 13.3568 55.1432C16.1464 57.9328 19.9299 59.5 23.875 59.5H30.25V55.25H23.875C21.0571 55.25 18.3546 54.1306 16.362 52.138C14.3694 50.1454 13.25 47.4429 13.25 44.625ZM51.5 23.375V25.5H55.75V23.375C55.75 19.4299 54.1828 15.6464 51.3932 12.8568C48.6036 10.0672 44.8201 8.5 40.875 8.5H34.5V12.75H40.875C42.2703 12.75 43.6519 13.0248 44.941 13.5588C46.2301 14.0927 47.4014 14.8754 48.388 15.862C49.3746 16.8486 50.1573 18.0199 50.6912 19.309C51.2252 20.5981 51.5 21.9797 51.5 23.375ZM23.875 23.375H11.125C9.43425 23.375 7.81274 24.0467 6.61719 25.2422C5.42165 26.4377 4.75 28.0592 4.75 29.75V34H9V29.75C9 29.1864 9.22388 28.6459 9.6224 28.2474C10.0209 27.8489 10.5614 27.625 11.125 27.625H23.875C24.4386 27.625 24.9791 27.8489 25.3776 28.2474C25.7761 28.6459 26 29.1864 26 29.75V34H30.25V29.75C30.25 28.0592 29.5784 26.4377 28.3828 25.2422C27.1873 24.0467 25.5658 23.375 23.875 23.375ZM17.5 21.25C19.1811 21.25 20.8245 20.7515 22.2223 19.8175C23.6202 18.8835 24.7096 17.556 25.353 16.0028C25.9963 14.4496 26.1646 12.7406 25.8367 11.0917C25.5087 9.4429 24.6992 7.92834 23.5104 6.7396C22.3217 5.55085 20.8071 4.7413 19.1583 4.41333C17.5094 4.08535 15.8004 4.25368 14.2472 4.89703C12.694 5.54037 11.3665 6.62984 10.4325 8.02766C9.49852 9.42547 9 11.0689 9 12.75C9 15.0043 9.89553 17.1664 11.4896 18.7604C13.0837 20.3545 15.2457 21.25 17.5 21.25ZM17.5 8.5C18.3406 8.5 19.1623 8.74926 19.8612 9.21626C20.5601 9.68325 21.1048 10.347 21.4265 11.1236C21.7482 11.9002 21.8323 12.7547 21.6683 13.5791C21.5044 14.4036 21.0996 15.1608 20.5052 15.7552C19.9108 16.3496 19.1536 16.7544 18.3291 16.9183C17.5047 17.0823 16.6502 16.9982 15.8736 16.6765C15.097 16.3548 14.4333 15.8101 13.9663 15.1112C13.4993 14.4123 13.25 13.5906 13.25 12.75C13.25 11.6228 13.6978 10.5418 14.4948 9.7448C15.2918 8.94777 16.3728 8.5 17.5 8.5ZM57.875 53.125H45.125C43.4342 53.125 41.8127 53.7967 40.6172 54.9922C39.4216 56.1877 38.75 57.8092 38.75 59.5V63.75H43V59.5C43 58.9364 43.2239 58.3959 43.6224 57.9974C44.0209 57.5989 44.5614 57.375 45.125 57.375H57.875C58.4386 57.375 58.9791 57.5989 59.3776 57.9974C59.7761 58.3959 60 58.9364 60 59.5V63.75H64.25V59.5C64.25 57.8092 63.5784 56.1877 62.3828 54.9922C61.1873 53.7967 59.5658 53.125 57.875 53.125ZM43 42.5C43 44.1811 43.4985 45.8245 44.4325 47.2224C45.3665 48.6202 46.694 49.7096 48.2472 50.353C49.8004 50.9963 51.5094 51.1647 53.1583 50.8367C54.8071 50.5087 56.3217 49.6992 57.5104 48.5104C58.6992 47.3217 59.5087 45.8071 59.8367 44.1583C60.1646 42.5094 59.9963 40.8004 59.353 39.2472C58.7096 37.694 57.6202 36.3665 56.2223 35.4325C54.8245 34.4985 53.1811 34 51.5 34C49.2457 34 47.0837 34.8955 45.4896 36.4896C43.8955 38.0837 43 40.2457 43 42.5ZM55.75 42.5C55.75 43.3406 55.5007 44.1623 55.0337 44.8612C54.5667 45.5601 53.903 46.1048 53.1264 46.4265C52.3498 46.7482 51.4953 46.8323 50.6709 46.6683C49.8464 46.5044 49.0892 46.0996 48.4948 45.5052C47.9004 44.9108 47.4957 44.1536 47.3317 43.3291C47.1677 42.5047 47.2518 41.6502 47.5735 40.8736C47.8952 40.097 48.4399 39.4333 49.1388 38.9663C49.8377 38.4993 50.6594 38.25 51.5 38.25C52.6272 38.25 53.7082 38.6978 54.5052 39.4948C55.3022 40.2918 55.75 41.3728 55.75 42.5Z" fill="#EDF1F3"/>
</svg>
