<svg width="207" height="207" viewBox="0 0 207 207" fill="none" xmlns="http://www.w3.org/2000/svg">
<g opacity="0.38" clip-path="url(#clip0_480_1024)">
<path d="M77.9818 36.5808C64.8245 41.5499 53.4361 50.3091 45.2569 61.7507C37.0777 73.1922 32.475 86.8022 32.0308 100.86C31.5866 114.917 35.3209 128.791 42.7614 140.726C50.202 152.661 61.0146 162.121 73.832 167.911C86.6494 173.701 100.896 175.56 114.77 173.254C128.644 170.947 141.522 164.578 151.776 154.952C162.031 145.326 169.2 132.875 172.378 119.174C175.556 105.474 174.6 91.1383 169.631 77.981C162.968 60.3375 149.568 46.0637 132.381 38.2997C115.193 30.5356 95.6253 29.9173 77.9818 36.5808ZM125.09 161.315C113.578 165.663 101.034 166.499 89.0461 163.718C77.058 160.938 66.1638 154.664 57.741 145.692C49.3183 136.719 43.7453 125.451 41.7268 113.311C39.7084 101.171 41.3351 88.7057 46.4013 77.4905C51.4675 66.2752 59.7456 56.8142 70.1888 50.3037C80.632 43.7932 92.7713 40.5257 105.072 40.9144C117.372 41.303 129.281 45.3304 139.292 52.4872C149.303 59.644 156.968 69.6089 161.316 81.1216C167.146 96.5596 166.605 113.681 159.812 128.721C153.018 143.76 140.528 155.484 125.09 161.315Z" fill="#EDF1F3"/>
<path d="M107.559 103.324L95.546 71.5167C95.1296 70.414 94.2921 69.5219 93.2179 69.0367C92.1437 68.5514 90.9207 68.5128 89.818 68.9292C88.7152 69.3457 87.8231 70.1832 87.3379 71.2574C86.8526 72.3316 86.814 73.5546 87.2304 74.6573L100.923 110.913L131.735 118.28C132.316 118.449 132.924 118.498 133.524 118.424C134.124 118.35 134.703 118.154 135.224 117.849C135.746 117.544 136.2 117.136 136.558 116.649C136.917 116.162 137.172 115.608 137.309 115.019C137.446 114.43 137.461 113.82 137.354 113.225C137.247 112.63 137.019 112.063 136.686 111.559C136.352 111.055 135.919 110.625 135.413 110.294C134.907 109.963 134.339 109.739 133.744 109.635L107.559 103.324Z" fill="#EDF1F3"/>
<path d="M61.4318 118.559C58.5689 111.093 57.7857 102.991 59.1657 95.1156C60.5456 87.2401 64.037 79.8867 69.2676 73.8395C74.4982 67.7923 81.2719 63.278 88.8665 60.7779C96.461 58.2778 104.592 57.8856 112.392 59.6431L113.79 52.6538C106.39 51.0084 98.718 51.0222 91.3242 52.6944C83.9304 54.3665 76.9987 57.6555 71.0271 62.325C65.0555 66.9945 60.1921 72.9286 56.7865 79.7011C53.3808 86.4735 51.5174 93.9162 51.33 101.494C51.1426 109.073 52.636 116.598 55.7028 123.531C58.7696 130.463 63.3337 136.63 69.0672 141.589C74.8008 146.548 81.5615 150.176 88.8636 152.211C96.1657 154.247 103.828 154.64 111.3 153.362L110.02 146.577C99.9349 148.202 89.5977 146.303 80.7483 141.2C71.8988 136.097 65.0773 128.102 61.4318 118.559Z" fill="#EDF1F3"/>
</g>
<defs>
<clipPath id="clip0_480_1024">
<rect width="160" height="160" fill="white" transform="translate(0 56.5303) rotate(-20.6902)"/>
</clipPath>
</defs>
</svg>
