<svg width="25" height="24" viewBox="0 0 25 24" fill="none" xmlns="http://www.w3.org/2000/svg">
<path d="M14.1875 11.0859C14.4844 11.2031 14.7734 11.332 15.0547 11.4727C15.3359 11.6133 15.6094 11.7734 15.875 11.9531C15.7031 12.1406 15.5469 12.3359 15.4062 12.5391C15.2656 12.7422 15.1367 12.9609 15.0195 13.1953C14.418 12.8047 13.7773 12.5078 13.0977 12.3047C12.418 12.1016 11.7188 12 11 12C10.3125 12 9.64844 12.0898 9.00781 12.2695C8.36719 12.4492 7.76953 12.6992 7.21484 13.0195C6.66016 13.3398 6.15625 13.7305 5.70312 14.1914C5.25 14.6523 4.85938 15.1602 4.53125 15.7148C4.20312 16.2695 3.94922 16.8672 3.76953 17.5078C3.58984 18.1484 3.5 18.8125 3.5 19.5H2C2 18.5625 2.13672 17.6602 2.41016 16.793C2.68359 15.9258 3.07812 15.125 3.59375 14.3906C4.10938 13.6562 4.71875 13.0039 5.42188 12.4336C6.125 11.8633 6.92188 11.4141 7.8125 11.0859C6.92969 10.5078 6.24219 9.78125 5.75 8.90625C5.25781 8.03125 5.00781 7.0625 5 6C5 5.17188 5.15625 4.39453 5.46875 3.66797C5.78125 2.94141 6.20703 2.30469 6.74609 1.75781C7.28516 1.21094 7.92188 0.78125 8.65625 0.46875C9.39062 0.15625 10.1719 0 11 0C11.8281 0 12.6055 0.15625 13.332 0.46875C14.0586 0.78125 14.6953 1.20703 15.2422 1.74609C15.7891 2.28516 16.2188 2.92188 16.5312 3.65625C16.8438 4.39062 17 5.17188 17 6C17 6.51562 16.9375 7.01953 16.8125 7.51172C16.6875 8.00391 16.5 8.46875 16.25 8.90625C16 9.34375 15.707 9.74609 15.3711 10.1133C15.0352 10.4805 14.6406 10.8047 14.1875 11.0859ZM6.5 6C6.5 6.625 6.61719 7.20703 6.85156 7.74609C7.08594 8.28516 7.40625 8.76172 7.8125 9.17578C8.21875 9.58984 8.69531 9.91406 9.24219 10.1484C9.78906 10.3828 10.375 10.5 11 10.5C11.6172 10.5 12.1992 10.3828 12.7461 10.1484C13.293 9.91406 13.7695 9.59375 14.1758 9.1875C14.582 8.78125 14.9062 8.30469 15.1484 7.75781C15.3906 7.21094 15.5078 6.625 15.5 6C15.5 5.38281 15.3828 4.80078 15.1484 4.25391C14.9141 3.70703 14.5938 3.23047 14.1875 2.82422C13.7812 2.41797 13.3008 2.09375 12.7461 1.85156C12.1914 1.60938 11.6094 1.49219 11 1.5C10.375 1.5 9.79297 1.61719 9.25391 1.85156C8.71484 2.08594 8.23828 2.40625 7.82422 2.8125C7.41016 3.21875 7.08594 3.69922 6.85156 4.25391C6.61719 4.80859 6.5 5.39062 6.5 6ZM23.75 15.75C23.75 16.1562 23.6875 16.5508 23.5625 16.9336C23.4375 17.3164 23.25 17.6719 23 18V24L20 22.5L17 24V18C16.7578 17.6719 16.5742 17.3164 16.4492 16.9336C16.3242 16.5508 16.2578 16.1562 16.25 15.75C16.25 15.2344 16.3477 14.75 16.543 14.2969C16.7383 13.8438 17.0039 13.4492 17.3398 13.1133C17.6758 12.7773 18.0742 12.5078 18.5352 12.3047C18.9961 12.1016 19.4844 12 20 12C20.5156 12 21 12.0977 21.4531 12.293C21.9062 12.4883 22.3008 12.7578 22.6367 13.1016C22.9727 13.4453 23.2422 13.8438 23.4453 14.2969C23.6484 14.75 23.75 15.2344 23.75 15.75ZM20 13.5C19.6875 13.5 19.3945 13.5586 19.1211 13.6758C18.8477 13.793 18.6094 13.9531 18.4062 14.1562C18.2031 14.3594 18.043 14.5977 17.9258 14.8711C17.8086 15.1445 17.75 15.4375 17.75 15.75C17.75 16.0625 17.8086 16.3555 17.9258 16.6289C18.043 16.9023 18.2031 17.1406 18.4062 17.3438C18.6094 17.5469 18.8477 17.707 19.1211 17.8242C19.3945 17.9414 19.6875 18 20 18C20.3125 18 20.6055 17.9414 20.8789 17.8242C21.1523 17.707 21.3906 17.5469 21.5938 17.3438C21.7969 17.1406 21.957 16.9023 22.0742 16.6289C22.1914 16.3555 22.25 16.0625 22.25 15.75C22.25 15.4375 22.1914 15.1445 22.0742 14.8711C21.957 14.5977 21.7969 14.3594 21.5938 14.1562C21.3906 13.9531 21.1523 13.793 20.8789 13.6758C20.6055 13.5586 20.3125 13.5 20 13.5ZM21.5 21.5742V19.1836C21.0312 19.3945 20.5312 19.5 20 19.5C19.4688 19.5 18.9688 19.3945 18.5 19.1836V21.5742C18.75 21.4492 19 21.3281 19.25 21.2109C19.5 21.0938 19.75 20.9648 20 20.8242C20.25 20.957 20.5 21.082 20.75 21.1992C21 21.3164 21.25 21.4414 21.5 21.5742Z" fill="#EDF1F3"/>
</svg>
