<svg width="24" height="24" viewBox="0 0 24 24" fill="none" xmlns="http://www.w3.org/2000/svg">
<path d="M19.7073 6.29183C19.8004 6.38473 19.8743 6.49508 19.9247 6.61657C19.9751 6.73806 20.0011 6.8683 20.0011 6.99983C20.0011 7.13137 19.9751 7.26161 19.9247 7.3831C19.8743 7.50459 19.8004 7.61494 19.7073 7.70783L10.7073 16.7078C10.6144 16.801 10.5041 16.8748 10.3826 16.9253C10.2611 16.9757 10.1308 17.0016 9.99931 17.0016C9.86778 17.0016 9.73753 16.9757 9.61604 16.9253C9.49455 16.8748 9.3842 16.801 9.29131 16.7078L5.29131 12.7078C5.10354 12.5201 4.99805 12.2654 4.99805 11.9998C4.99805 11.7343 5.10354 11.4796 5.29131 11.2918C5.47908 11.1041 5.73376 10.9986 5.99931 10.9986C6.26486 10.9986 6.51954 11.1041 6.70731 11.2918L9.99931 14.5858L18.2913 6.29183C18.3842 6.19871 18.4946 6.12482 18.616 6.07441C18.7375 6.024 18.8678 5.99805 18.9993 5.99805C19.1308 5.99805 19.2611 6.024 19.3826 6.07441C19.5041 6.12482 19.6144 6.19871 19.7073 6.29183Z" fill="#AFD276"/>
</svg>
