<svg width="212" height="162" viewBox="0 0 212 162" fill="none" xmlns="http://www.w3.org/2000/svg">
<g opacity="0.38" clip-path="url(#clip0_491_202)">
<path d="M112.715 37.8355C113.695 36.9662 114.125 36.0282 113.91 35.2278C113.696 34.4274 112.854 33.8302 111.571 33.5674L82.5308 27.6247C81.2448 27.38 79.6384 27.4843 78.0573 27.9154C76.4763 28.3464 75.0471 29.0695 74.0778 29.9291C73.1084 30.7887 72.6764 31.7159 72.8747 32.511C73.073 33.3062 73.8858 33.9056 75.1381 34.1802L88.7887 36.9736C70.3674 42.4624 53.4751 50.5889 40.405 60.2498C27.335 69.9106 18.7206 80.6378 15.7313 90.9748C12.742 101.312 15.5227 110.758 23.6958 118.031C31.869 125.303 45.0386 130.05 61.4166 131.627C62.8262 131.764 64.4915 131.539 66.0462 131.001C67.6009 130.463 68.9176 129.657 69.7067 128.759C70.4958 127.861 70.6925 126.945 70.2538 126.213C69.815 125.482 68.7766 124.993 67.3669 124.856C52.7821 123.454 41.142 119.152 34.1106 112.566C27.0791 105.981 25.0164 97.4477 28.2172 88.1876C31.418 78.9274 39.7185 69.414 51.9321 61.0075C64.1458 52.601 79.6471 45.7317 96.2203 41.3816C96.5101 41.304 96.8207 41.2078 97.0936 41.1153L80.8564 55.5212C79.9092 56.3851 79.505 57.3107 79.7308 58.0984C79.9566 58.8862 80.7944 59.4731 82.0637 59.7329C83.333 59.9926 84.9322 59.9043 86.5169 59.4871C88.1017 59.0698 89.5451 58.357 90.5364 57.502L112.715 37.8355ZM99.1581 123.824C98.178 124.694 97.7479 125.632 97.9624 126.432C98.1768 127.232 99.0183 127.83 100.302 128.092L129.342 134.035C130.628 134.28 132.234 134.175 133.815 133.744C135.396 133.313 136.825 132.59 137.795 131.731C138.764 130.871 139.196 129.944 138.998 129.149C138.8 128.354 137.987 127.754 136.735 127.48L123.084 124.686C141.505 119.197 158.398 111.071 171.468 101.41C184.538 91.7491 193.152 81.022 196.141 70.6849C199.131 60.3479 196.35 50.9017 188.177 43.629C180.004 36.3563 166.834 31.6094 150.456 30.0327C149.758 29.9648 148.99 29.9851 148.196 30.0925C147.401 30.1999 146.596 30.3923 145.826 30.6587C145.057 30.925 144.337 31.2601 143.709 31.6449C143.081 32.0296 142.557 32.4565 142.166 32.9011C141.775 33.3456 141.526 33.7992 141.432 34.236C141.338 34.6727 141.402 35.084 141.619 35.4463C141.836 35.8087 142.203 36.1151 142.698 36.3479C143.194 36.5808 143.808 36.7356 144.506 36.8035C159.091 38.2059 170.732 42.5079 177.763 49.0944C184.795 55.6809 186.857 64.2147 183.654 73.4756C180.452 82.7365 172.15 92.2503 159.934 100.657C147.718 109.063 132.215 115.932 115.64 120.281C115.345 120.36 115.053 120.449 114.767 120.548L131.016 106.139C131.518 105.706 131.889 105.249 132.107 104.796C132.324 104.343 132.385 103.903 132.284 103.5C132.184 103.097 131.925 102.741 131.522 102.451C131.119 102.161 130.58 101.944 129.937 101.813C129.295 101.681 128.561 101.638 127.778 101.685C126.995 101.732 126.18 101.869 125.379 102.087C124.579 102.305 123.809 102.601 123.115 102.956C122.42 103.312 121.816 103.72 121.336 104.158L99.1581 123.824Z" fill="#EDF1F3"/>
</g>
<defs>
<clipPath id="clip0_491_202">
<rect width="188" height="117" fill="white" transform="translate(0 48.6582) rotate(-15)"/>
</clipPath>
</defs>
</svg>
