<svg width="212" height="162" viewBox="0 0 212 162" fill="none" xmlns="http://www.w3.org/2000/svg">
<g opacity="0.38" clip-path="url(#clip0_491_206)">
<path d="M112.716 37.8353C113.697 36.966 114.127 36.028 113.912 35.2276C113.698 34.4272 112.856 33.8299 111.573 33.5671L82.5327 27.6245C81.2468 27.3797 79.6403 27.4841 78.0593 27.9151C76.4782 28.3461 75.0491 29.0693 74.0797 29.9289C73.1104 30.7885 72.6783 31.7157 72.8767 32.5108C73.075 33.3059 73.8878 33.9054 75.14 34.18L88.7906 36.9734C70.3694 42.4622 53.477 50.5887 40.407 60.2495C27.337 69.9104 18.7225 80.6375 15.7332 90.9746C12.744 101.312 15.5246 110.758 23.6978 118.03C31.8709 125.303 45.0405 130.05 61.4186 131.627C62.8282 131.764 64.4935 131.539 66.0482 131.001C67.6029 130.463 68.9196 129.656 69.7086 128.758C70.4977 127.861 70.6945 126.945 70.2557 126.213C69.8169 125.481 68.7785 124.993 67.3689 124.856C52.7841 123.454 41.144 119.152 34.1125 112.566C27.0811 105.98 25.0183 97.4475 28.2192 88.1873C31.42 78.9271 39.7205 69.4138 51.9341 61.0073C64.1477 52.6008 79.6491 45.7315 96.2222 41.3814C96.512 41.3038 96.8227 41.2076 97.0956 41.115L80.8583 55.5209C79.9112 56.3849 79.507 57.3104 79.7328 58.0982C79.9586 58.8859 80.7964 59.4729 82.0656 59.7326C83.3349 59.9924 84.9341 59.9041 86.5189 59.4868C88.1036 59.0696 89.5471 58.3567 90.5383 57.5018L112.716 37.8353ZM99.16 123.824C98.18 124.693 97.7498 125.631 97.9643 126.432C98.1788 127.232 99.0203 127.829 100.304 128.092L129.344 134.035C130.63 134.28 132.236 134.175 133.817 133.744C135.398 133.313 136.827 132.59 137.797 131.73C138.766 130.871 139.198 129.944 139 129.148C138.802 128.353 137.989 127.754 136.736 127.479L123.086 124.686C141.507 119.197 158.399 111.071 171.47 101.41C184.54 91.7489 193.154 81.0217 196.143 70.6847C199.133 60.3476 196.352 50.9015 188.179 43.6288C180.006 36.3561 166.836 31.6091 150.458 30.0325C149.76 29.9646 148.992 29.9849 148.198 30.0923C147.403 30.1997 146.598 30.3921 145.828 30.6584C145.059 30.9248 144.339 31.2599 143.711 31.6446C143.083 32.0294 142.559 32.4563 142.168 32.9008C141.777 33.3454 141.528 33.799 141.434 34.2357C141.34 34.6724 141.404 35.0837 141.621 35.4461C141.838 35.8085 142.205 36.1148 142.7 36.3477C143.195 36.5805 143.81 36.7353 144.508 36.8032C159.093 38.2057 170.734 42.5077 177.765 49.0942C184.797 55.6807 186.859 64.2144 183.656 73.4753C180.454 82.7362 172.152 92.2501 159.936 100.657C147.72 109.063 132.217 115.932 115.642 120.281C115.347 120.359 115.055 120.448 114.769 120.547L131.018 106.138C131.52 105.705 131.891 105.249 132.109 104.796C132.326 104.343 132.387 103.902 132.286 103.5C132.186 103.097 131.927 102.74 131.524 102.451C131.121 102.161 130.582 101.944 129.939 101.813C129.297 101.681 128.562 101.638 127.78 101.685C126.997 101.732 126.182 101.868 125.381 102.087C124.581 102.305 123.811 102.6 123.117 102.956C122.422 103.311 121.818 103.72 121.338 104.157L99.16 123.824Z" fill="#EDF1F3"/>
</g>
<defs>
<clipPath id="clip0_491_206">
<rect width="188" height="117" fill="white" transform="translate(0 48.658) rotate(-15)"/>
</clipPath>
</defs>
</svg>
