<svg width="25" height="24" viewBox="0 0 25 24" fill="none" xmlns="http://www.w3.org/2000/svg">
<g clip-path="url(#clip0_480_820)">
<path d="M12.7085 18.4139C12.6043 19.9626 11.9027 21.4103 10.7516 22.4515C9.60054 23.4927 8.09001 24.0462 6.53869 23.995C4.98738 23.9438 3.51659 23.2921 2.43661 22.1773C1.35663 21.0625 0.751902 19.5717 0.750004 18.0196C0.748107 16.4674 1.34919 14.9752 2.42644 13.8577C3.50369 12.7403 4.97288 12.085 6.52407 12.03C8.07525 11.975 9.58713 12.5248 10.7408 13.5632C11.8944 14.6016 12.5996 16.0476 12.7075 17.596L12.7085 17.615C12.8127 16.0663 13.5143 14.6186 14.6654 13.5774C15.8165 12.5362 17.327 11.9827 18.8783 12.0339C20.4296 12.0851 21.9004 12.7368 22.9804 13.8516C24.0604 14.9664 24.6651 16.4572 24.667 18.0093C24.6689 19.5615 24.0678 21.0537 22.9906 22.1712C21.9133 23.2886 20.4441 23.9439 18.8929 23.9989C17.3418 24.0539 15.8299 23.5041 14.6763 22.4657C13.5226 21.4273 12.8175 19.9813 12.7095 18.433L12.7085 18.4139ZM13.5015 18.04C13.5016 18.7204 13.6357 19.3942 13.8961 20.0228C14.1566 20.6514 14.5383 21.2226 15.0195 21.7037C15.5007 22.1848 16.0719 22.5664 16.7006 22.8267C17.3293 23.0871 18.0031 23.221 18.6835 23.221C19.364 23.2209 20.0377 23.0868 20.6663 22.8263C21.295 22.5659 21.8661 22.1842 22.3472 21.703C22.8283 21.2218 23.2099 20.6505 23.4703 20.0219C23.7306 19.3932 23.8646 18.7194 23.8645 18.0389C23.8644 16.6647 23.3183 15.3468 22.3465 14.3752C21.3747 13.4036 20.0567 12.8578 18.6825 12.8579C17.3083 12.8581 15.9904 13.4041 15.0188 14.3759C14.0472 15.3477 13.5014 16.6657 13.5015 18.04ZM1.55551 18.014V18.04C1.55551 19.0647 1.85937 20.0663 2.42866 20.9184C2.99796 21.7704 3.80712 22.4344 4.75382 22.8266C5.70053 23.2187 6.74225 23.3213 7.74727 23.1214C8.75229 22.9215 9.67545 22.428 10.4 21.7035C11.1246 20.9789 11.618 20.0557 11.818 19.0507C12.0179 18.0457 11.9153 17.004 11.5231 16.0573C11.131 15.1106 10.4669 14.3014 9.61492 13.7321C8.76291 13.1628 7.76121 12.8589 6.73651 12.8589C5.36895 12.8639 4.05839 13.4074 3.08866 14.3717C2.11894 15.336 1.56812 16.6434 1.55551 18.011V18.014ZM4.93651 20C4.67912 19.6677 4.5139 19.2734 4.45751 18.857L4.45651 18.8449H3.89651V18.228H4.37651V17.798H3.89651V17.181H4.48651C4.58751 16.711 4.80451 16.3019 5.10551 15.9709L5.10351 15.9729C5.35651 15.6858 5.66779 15.4559 6.01662 15.2984C6.36544 15.141 6.7438 15.0597 7.12651 15.0599H7.14551C7.63051 15.063 8.09051 15.1609 8.51051 15.3379L8.48651 15.3289L8.24651 16.349C7.94073 16.1902 7.60105 16.1078 7.25651 16.1089H7.22951C6.80251 16.1089 6.41951 16.2939 6.15451 16.5879L6.15351 16.589C6.02451 16.747 5.92351 16.934 5.86151 17.138L5.85851 17.149H8.05051V17.767H5.71451V18.167H8.07751V18.785H5.84951C5.88851 19.025 5.99451 19.235 6.14551 19.403L6.14451 19.402C6.29328 19.557 6.47375 19.678 6.6736 19.7569C6.87345 19.8358 7.08797 19.8706 7.30251 19.8589H7.29851C7.6574 19.8567 8.01105 19.7726 8.33251 19.613L8.31851 19.6189L8.50851 20.672C8.07869 20.8997 7.59993 21.0195 7.11351 21.021L7.04351 21.0219C6.63901 21.0221 6.2397 20.9309 5.87539 20.7552C5.51107 20.5794 5.19115 20.3236 4.93951 20.007L4.93551 20.002L4.93651 20ZM16.7225 20.886V20.188C17.2535 19.9739 17.6325 19.487 17.6885 18.905V18.899C17.6949 18.7789 17.6855 18.6585 17.6605 18.541L17.6625 18.5499H16.8035V17.638H17.5015C17.4476 17.4143 17.4208 17.185 17.4215 16.955V16.9109C17.4215 16.6613 17.474 16.4145 17.5756 16.1865C17.6772 15.9585 17.8256 15.7544 18.0112 15.5875C18.1968 15.4206 18.4154 15.2946 18.6529 15.2177C18.8903 15.1407 19.1413 15.1146 19.3895 15.1409L19.3815 15.1399L19.4465 15.1389C19.7935 15.1389 20.1215 15.2179 20.4145 15.3599L20.4015 15.3539L20.1905 16.347C19.9585 16.2239 19.6965 16.1685 19.4345 16.187H19.4385C19.3295 16.175 19.2192 16.1877 19.1158 16.2242C19.0124 16.2606 18.9186 16.32 18.8413 16.3977C18.7639 16.4754 18.7051 16.5695 18.6691 16.6731C18.6332 16.7767 18.621 16.887 18.6335 16.996V16.993C18.6335 17.222 18.6635 17.444 18.7175 17.656L18.7135 17.6369H19.9215V18.549H18.8455V18.565C18.8455 18.779 18.8165 18.986 18.7615 19.183L18.7655 19.167C18.6761 19.4043 18.529 19.6156 18.3375 19.7819L18.3355 19.784V19.811H20.6445V20.885L16.7225 20.886ZM12.7085 6.38795C12.6068 7.93653 11.9073 9.38498 10.7576 10.4274C9.60791 11.4699 8.0981 12.0247 6.54699 11.9748C4.99587 11.9249 3.52486 11.2742 2.44458 10.1599C1.3643 9.04575 0.759313 7.55532 0.757371 6.00341C0.755428 4.45149 1.35668 2.95956 2.43417 1.84265C3.51166 0.725751 4.98104 0.0713058 6.53202 0.0175141C8.08301 -0.0362775 9.5942 0.514795 10.7465 1.55436C11.8988 2.59393 12.6019 4.04063 12.7075 5.58895L12.7085 5.60695C12.8101 4.06469 13.507 2.62227 14.6521 1.58422C15.7973 0.546172 17.301 -0.00624728 18.8458 0.0435994C20.3906 0.0934461 21.8555 0.741657 22.9314 1.85137C24.0072 2.96108 24.6097 4.44544 24.6116 5.99103C24.6136 7.53663 24.0148 9.02249 22.9417 10.1349C21.8687 11.2473 20.4054 11.8992 18.8607 11.9529C17.316 12.0066 15.8109 11.458 14.6632 10.4228C13.5155 9.38762 12.8149 7.94695 12.7095 6.40495L12.7085 6.38795ZM13.5015 5.98795C13.5014 6.66839 13.6354 7.34219 13.8957 7.97086C14.1561 8.59954 14.5377 9.17078 15.0188 9.65197C15.4999 10.1332 16.071 10.5149 16.6997 10.7753C17.3283 11.0358 18.0021 11.1699 18.6825 11.1699C19.363 11.17 20.0367 11.0361 20.6654 10.7757C21.2941 10.5154 21.8653 10.1338 22.3465 9.65268C22.8277 9.17158 23.2094 8.60041 23.4699 7.97179C23.7304 7.34316 23.8644 6.66939 23.8645 5.98895C23.8648 4.61473 23.3191 3.29669 22.3476 2.32478C21.8665 1.84354 21.2954 1.46177 20.6668 1.20125C20.0382 0.940734 19.3645 0.806581 18.684 0.80645C17.3098 0.806184 15.9917 1.35184 15.0198 2.32337C14.0479 3.2949 13.5018 4.61373 13.5015 5.98795ZM1.55551 5.98795C1.55577 7.36204 2.10188 8.67974 3.07369 9.65118C4.04551 10.6226 5.36342 11.1682 6.73751 11.1679C8.11159 11.1677 9.4293 10.6216 10.4007 9.64976C11.3722 8.67795 11.9178 7.36004 11.9175 5.98595C11.9175 4.61204 11.3718 3.29438 10.4004 2.32278C9.42897 1.35119 8.11142 0.805215 6.73751 0.80495C5.36479 0.809692 4.04963 1.35704 3.07887 2.32761C2.10811 3.29818 1.56051 4.61323 1.55551 5.98595V5.98795ZM6.38751 9.50795V8.37595C6.02783 8.35512 5.68143 8.23272 5.38851 8.02295L5.39451 8.02695C5.2099 7.88124 5.06071 7.69559 4.95818 7.48393C4.85564 7.27228 4.80242 7.04013 4.80251 6.80495L4.80451 6.73595V6.73895H5.69051C5.67268 6.94962 5.73354 7.15943 5.86134 7.32786C5.98914 7.49629 6.17481 7.6114 6.38251 7.65095L6.38751 7.65195V6.25595C6.2717 6.22565 6.15498 6.19897 6.03751 6.17595C5.74807 6.13877 5.48206 5.99749 5.2892 5.77849C5.09633 5.55949 4.9898 5.27777 4.98951 4.98595V4.96095C4.98951 4.53295 5.20051 4.15495 5.52451 3.92395L5.52851 3.92095C5.78084 3.74475 6.07353 3.63503 6.37951 3.60195L6.38751 3.60095V2.47095H7.08551V3.62595C7.43251 3.65295 7.74651 3.77995 8.00251 3.97795L7.99851 3.97495C8.32651 4.22395 8.53651 4.61495 8.53651 5.05395L8.53551 5.10495V5.10295H7.64951V5.08195C7.6496 4.91631 7.59537 4.75521 7.49512 4.62335C7.39487 4.49149 7.25414 4.39615 7.09451 4.35195L7.08951 4.35095V5.58595C7.30451 5.63995 7.48951 5.69395 7.73351 5.74595C8.02451 5.81795 8.26751 5.98995 8.42951 6.22195L8.43251 6.22595C8.59893 6.44039 8.68428 6.70672 8.67351 6.97795C8.67351 7.42795 8.43951 7.82295 8.08751 8.04795L8.08251 8.05095C7.78769 8.24477 7.44598 8.35534 7.09351 8.37095H7.08951V9.49795L6.38751 9.50795ZM7.08451 7.67995C7.54151 7.62595 7.75651 7.41095 7.75651 7.03495L7.75751 6.99695C7.75752 6.89142 7.72374 6.78866 7.66112 6.70373C7.5985 6.61879 7.51032 6.55614 7.40951 6.52495L7.40651 6.52395C7.30747 6.47627 7.20305 6.44068 7.09551 6.41795L7.08651 6.41595L7.08451 7.67995ZM5.87751 4.83195C5.87751 5.10095 6.03751 5.28895 6.38751 5.36895V4.29495C6.03851 4.37595 5.87751 4.53695 5.87751 4.83195ZM17.9925 9.19995V5.89795C17.5755 6.04495 17.1645 6.19695 16.7495 6.34695V5.81495C17.1655 5.66295 17.5825 5.51295 17.9925 5.35595V5.07395C17.5785 5.21495 17.1635 5.37295 16.7495 5.52095V4.99095C17.1635 4.83595 17.5835 4.68795 17.9925 4.52895V2.56695H18.6605V4.28495C19.3345 4.04095 20.0145 3.78395 20.6945 3.53895V4.08995C20.0145 4.33395 19.3405 4.58195 18.6605 4.82595V5.10995C19.3395 4.86395 20.0205 4.60795 20.6945 4.36395V4.91195C20.0205 5.16195 19.3385 5.40495 18.6605 5.65095V8.49795C19.2956 8.41566 19.879 8.10516 20.3021 7.62437C20.7251 7.14358 20.9587 6.52534 20.9595 5.88495H21.6535V5.98995C21.6394 6.47646 21.5189 6.95397 21.3005 7.38895L21.3095 7.36995C21.1232 7.73861 20.8718 8.0706 20.5675 8.34995L20.5645 8.35195C20.2189 8.66968 19.809 8.90946 19.3627 9.05508C18.9164 9.20069 18.444 9.24873 17.9775 9.19595L17.9925 9.19695V9.19995Z" fill="#FCFCFC"/>
</g>
<defs>
<clipPath id="clip0_480_820">
<rect width="24" height="24" fill="white" transform="translate(0.75)"/>
</clipPath>
</defs>
</svg>
