<svg width="195" height="195" viewBox="0 0 195 195" fill="none" xmlns="http://www.w3.org/2000/svg">
<g opacity="0.38" clip-path="url(#clip0_480_750)">
<path d="M51.6465 34.0256L26.8354 130.849" stroke="#EDF1F3" stroke-width="7" stroke-linecap="round"/>
<path d="M160.443 92.8743L143.067 160.683" stroke="#EDF1F3" stroke-width="7" stroke-linecap="round" stroke-linejoin="round"/>
<path d="M75.9863 19.6162L124.421 32.0277" stroke="#EDF1F3" stroke-width="7" stroke-linecap="round" stroke-linejoin="round"/>
<path d="M41.2324 155.234L118.729 175.093" stroke="#EDF1F3" stroke-width="7" stroke-linecap="round"/>
<path d="M143.067 160.683C140.641 170.373 128.416 177.575 118.729 175.093" stroke="#EDF1F3" stroke-width="7" stroke-linecap="round" stroke-linejoin="round"/>
<path d="M26.8232 130.896C24.3409 140.583 31.5457 152.752 41.2327 155.234" stroke="#EDF1F3" stroke-width="7" stroke-linecap="round" stroke-linejoin="round"/>
<path d="M51.6494 34.0115C54.1281 24.3385 66.2421 17.3495 75.9844 19.6161" stroke="#EDF1F3" stroke-width="7" stroke-linecap="round" stroke-linejoin="round"/>
<path d="M160.379 92.904L124.42 32.0276" stroke="#EDF1F3" stroke-width="7" stroke-linecap="round" stroke-linejoin="round"/>
<path d="M116.974 61.0886C114.535 70.7306 121.735 82.955 131.383 85.4272" stroke="#EDF1F3" stroke-width="7" stroke-linecap="round" stroke-linejoin="round"/>
<path d="M116.973 61.0886L124.42 32.0276" stroke="#EDF1F3" stroke-width="7" stroke-linecap="round" stroke-linejoin="round"/>
<path d="M131.383 85.4272L160.444 92.8741" stroke="#EDF1F3" stroke-width="7" stroke-linecap="round" stroke-linejoin="round"/>
<path d="M46.1973 135.86L75.2583 143.307" stroke="#EDF1F3" stroke-width="7" stroke-linecap="round" stroke-linejoin="round"/>
<path d="M51.1621 116.486L99.5972 128.898" stroke="#EDF1F3" stroke-width="7" stroke-linecap="round" stroke-linejoin="round"/>
<path d="M56.127 97.1123L85.188 104.559" stroke="#EDF1F3" stroke-width="7" stroke-linecap="round" stroke-linejoin="round"/>
</g>
<defs>
<clipPath id="clip0_480_750">
<rect width="160" height="160" fill="white" transform="translate(39.7188) rotate(14.3728)"/>
</clipPath>
</defs>
</svg>
