<svg width="195" height="195" viewBox="0 0 195 195" fill="none" xmlns="http://www.w3.org/2000/svg">
<g opacity="0.38" clip-path="url(#clip0_480_1008)">
<path d="M51.6445 34.0256L26.8334 130.849" stroke="#EDF1F3" stroke-width="7" stroke-linecap="round"/>
<path d="M160.441 92.8743L143.065 160.683" stroke="#EDF1F3" stroke-width="7" stroke-linecap="round" stroke-linejoin="round"/>
<path d="M75.9844 19.6162L124.419 32.0277" stroke="#EDF1F3" stroke-width="7" stroke-linecap="round" stroke-linejoin="round"/>
<path d="M41.2305 155.234L118.727 175.093" stroke="#EDF1F3" stroke-width="7" stroke-linecap="round"/>
<path d="M143.065 160.683C140.639 170.373 128.414 177.575 118.727 175.093" stroke="#EDF1F3" stroke-width="7" stroke-linecap="round" stroke-linejoin="round"/>
<path d="M26.8213 130.896C24.339 140.583 31.5437 152.752 41.2307 155.234" stroke="#EDF1F3" stroke-width="7" stroke-linecap="round" stroke-linejoin="round"/>
<path d="M51.6494 34.0115C54.1281 24.3385 66.2421 17.3495 75.9844 19.6161" stroke="#EDF1F3" stroke-width="7" stroke-linecap="round" stroke-linejoin="round"/>
<path d="M160.377 92.904L124.418 32.0276" stroke="#EDF1F3" stroke-width="7" stroke-linecap="round" stroke-linejoin="round"/>
<path d="M116.97 61.0886C114.531 70.7306 121.731 82.955 131.379 85.4272" stroke="#EDF1F3" stroke-width="7" stroke-linecap="round" stroke-linejoin="round"/>
<path d="M116.971 61.0886L124.418 32.0276" stroke="#EDF1F3" stroke-width="7" stroke-linecap="round" stroke-linejoin="round"/>
<path d="M131.383 85.4272L160.444 92.8741" stroke="#EDF1F3" stroke-width="7" stroke-linecap="round" stroke-linejoin="round"/>
<path d="M46.1953 135.86L75.2563 143.307" stroke="#EDF1F3" stroke-width="7" stroke-linecap="round" stroke-linejoin="round"/>
<path d="M51.1602 116.486L99.5952 128.898" stroke="#EDF1F3" stroke-width="7" stroke-linecap="round" stroke-linejoin="round"/>
<path d="M56.125 97.1123L85.186 104.559" stroke="#EDF1F3" stroke-width="7" stroke-linecap="round" stroke-linejoin="round"/>
</g>
<defs>
<clipPath id="clip0_480_1008">
<rect width="160" height="160" fill="white" transform="translate(39.7188) rotate(14.3728)"/>
</clipPath>
</defs>
</svg>
