<svg width="68" height="68" viewBox="0 0 68 68" fill="none" xmlns="http://www.w3.org/2000/svg">
<path d="M24.8899 2.95107L19.37 8.50834L27.7206 12.4719L26.6581 14.7131L17.5146 10.3761L7.96484 19.9922L12.3888 32.8711L19.9427 31.9207L21.3412 26.2801L23.7485 26.8738L17.66 51.4773L25.0059 44.8824L26.334 43.6871L26.9901 45.3472L28.9571 50.3317L33.1074 44.8035L34.1867 43.3633L35.1496 44.8866L39.1879 51.2904L42.197 45.0815L42.8733 43.6869L44.0852 44.6498L52.3902 51.2615L44.0477 27.0604L46.3927 26.251L48.0903 31.1735L56.1337 31.0486L59.6492 17.5185L49.9911 9.23841L40.6776 14.3974L39.4743 12.2226L47.9783 7.51199L44.0272 4.12128L24.8897 2.95081L24.8899 2.95107ZM50.2157 14.3065L51.9794 23.2339L37.7313 21.0757L50.2157 14.3063V14.3065ZM17.5188 14.4309L30.543 21.25L15.1035 23.039L17.5188 14.4309ZM33.8797 30.7004L41.2965 39.3L36.4821 41.01L34.1702 35.3448L32.1284 41.1015L27.4342 39.3L33.8799 30.7004H33.8797ZM43.7536 47.5593L40.4455 54.3827L39.4704 56.3955L38.279 54.5029L34.0126 47.7335L29.609 53.6024L28.2725 55.3744L27.4591 53.3118L25.338 47.9205L21.2958 51.5478L24.6865 60.3674L32.8421 65.045L45.9658 59.7906L48.2153 51.1122L43.7538 47.5595L43.7536 47.5593Z" fill="#AFD275"/>
</svg>
