<svg width="16" height="16" viewBox="0 0 16 16" fill="none" xmlns="http://www.w3.org/2000/svg">
<g clip-path="url(#clip0_376_627)">
<path d="M6.06065 5.99967C6.21739 5.55412 6.52675 5.17841 6.93395 4.9391C7.34116 4.69978 7.81991 4.6123 8.28544 4.69215C8.75096 4.772 9.1732 5.01402 9.47737 5.37536C9.78154 5.7367 9.94802 6.19402 9.94732 6.66634C9.94732 7.99967 7.94732 8.66634 7.94732 8.66634M8.00065 11.333H8.00732M14.6673 7.99967C14.6673 11.6816 11.6826 14.6663 8.00065 14.6663C4.31875 14.6663 1.33398 11.6816 1.33398 7.99967C1.33398 4.31778 4.31875 1.33301 8.00065 1.33301C11.6826 1.33301 14.6673 4.31778 14.6673 7.99967Z" stroke="#98A2B3" stroke-width="1.33333" stroke-linecap="round" stroke-linejoin="round"/>
</g>
<defs>
<clipPath id="clip0_376_627">
<rect width="16" height="16" fill="white"/>
</clipPath>
</defs>
</svg>
