<svg width="68" height="68" viewBox="0 0 68 68" fill="none" xmlns="http://www.w3.org/2000/svg">
<path d="M28.3333 51V50.6968C28.3333 48.4443 26.928 46.4808 25.1685 45.0755C22.872 43.244 21.2015 40.744 20.3884 37.9214C19.5752 35.0988 19.6596 32.0932 20.6298 29.3206C21.5999 26.5481 23.408 24.1456 25.8036 22.4459C28.1992 20.7461 31.064 19.833 34.0014 19.833C36.9388 19.833 39.8036 20.7461 42.1992 22.4459C44.5949 24.1456 46.4029 26.5481 47.3731 29.3206C48.3432 32.0932 48.4276 35.0988 47.6144 37.9214C46.8013 40.744 45.1309 43.244 42.8343 45.0755C41.072 46.4837 39.6667 48.4443 39.6667 50.6968V51M28.3333 51V56.6667C28.3333 57.4181 28.6318 58.1388 29.1632 58.6701C29.6946 59.2015 30.4152 59.5 31.1667 59.5H36.8333C37.5848 59.5 38.3054 59.2015 38.8368 58.6701C39.3682 58.1388 39.6667 57.4181 39.6667 56.6667V51M28.3333 51H39.6667M56.6667 34H59.5M11.3333 34H8.5M34 11.3333V8.5M50.0282 17.9718L52.0313 15.9687M17.9747 17.9718L15.9687 15.9687M34 42.5V36.8333" stroke="#EDF1F3" stroke-width="4" stroke-linecap="round" stroke-linejoin="round"/>
</svg>
