<svg width="70" height="70" viewBox="0 0 70 70" fill="none" xmlns="http://www.w3.org/2000/svg">
<path d="M46.6673 23.3335H23.334V46.6668H46.6673V23.3335Z" fill="#AFD275"/>
<path opacity="0.4" d="M14.584 64.1668C19.3965 64.1668 23.334 60.2293 23.334 55.4168V46.6668H14.584C9.77148 46.6668 5.83398 50.6043 5.83398 55.4168C5.83398 60.2293 9.77148 64.1668 14.584 64.1668ZM14.584 23.3335H23.334V14.5835C23.334 9.771 19.3965 5.8335 14.584 5.8335C9.77148 5.8335 5.83398 9.771 5.83398 14.5835C5.83398 19.396 9.77148 23.3335 14.584 23.3335ZM46.6673 23.3335H55.4173C60.2298 23.3335 64.1673 19.396 64.1673 14.5835C64.1673 9.771 60.2298 5.8335 55.4173 5.8335C50.6048 5.8335 46.6673 9.771 46.6673 14.5835V23.3335ZM55.4173 64.1668C60.2298 64.1668 64.1673 60.2293 64.1673 55.4168C64.1673 50.6043 60.2298 46.6668 55.4173 46.6668H46.6673V55.4168C46.6673 60.2293 50.6048 64.1668 55.4173 64.1668Z" fill="#AFD275"/>
</svg>
