<svg width="25" height="24" viewBox="0 0 25 24" fill="none" xmlns="http://www.w3.org/2000/svg">
<path d="M23.7763 9.9819L13.8267 9.98145C13.3874 9.98145 13.0312 10.3203 13.0312 10.7384V13.7633C13.0312 14.1814 13.3874 14.5203 13.8267 14.5203H19.4297C18.8161 16.0357 17.671 17.3047 16.21 18.111L18.5991 22.047C22.4316 19.9376 24.6973 16.2365 24.6973 12.0934C24.6973 11.5035 24.6516 11.0818 24.5603 10.6069C24.4908 10.2461 24.1617 9.9819 23.7763 9.9819Z" fill="#167EE6"/>
<path d="M12.5023 19.0649C9.76029 19.0649 7.36656 17.6391 6.08093 15.5293L1.94531 17.7979C4.0499 21.2692 7.99248 23.6068 12.5023 23.6068C14.7146 23.6068 16.8022 23.0399 18.6005 22.052V22.0466L16.2114 18.1106C15.1185 18.7138 13.8539 19.0649 12.5023 19.0649Z" fill="#12B347"/>
<path d="M18.5982 22.0517V22.0464L16.2091 18.1104C15.1163 18.7135 13.8517 19.0646 12.5 19.0646V23.6066C14.7124 23.6066 16.8 23.0397 18.5982 22.0517Z" fill="#0F993E"/>
<path d="M5.07719 11.9993C5.07719 10.7131 5.44603 9.50971 6.07972 8.46973L1.9441 6.20117C0.900309 7.9072 0.304688 9.88848 0.304688 11.9993C0.304688 14.1102 0.900309 16.0915 1.9441 17.7975L6.07972 15.529C5.44603 14.489 5.07719 13.2856 5.07719 11.9993Z" fill="#FFD500"/>
<path d="M12.5023 4.93451C14.2903 4.93451 15.9328 5.53917 17.2156 6.54495C17.5321 6.79306 17.9921 6.77515 18.282 6.49925L20.534 4.35601C20.8629 4.04298 20.8395 3.53059 20.4881 3.2405C18.3388 1.46592 15.5422 0.392578 12.5023 0.392578C7.99248 0.392578 4.0499 2.73019 1.94531 6.20155L6.08093 8.47011C7.36656 6.36028 9.76029 4.93451 12.5023 4.93451Z" fill="#FF4B26"/>
<path d="M17.2133 6.54495C17.5298 6.79306 17.9898 6.77515 18.2797 6.49925L20.5317 4.35601C20.8606 4.04298 20.8372 3.53059 20.4859 3.2405C18.3365 1.46588 15.5399 0.392578 12.5 0.392578V4.93451C14.288 4.93451 15.9305 5.53917 17.2133 6.54495Z" fill="#D93F21"/>
</svg>
