<svg width="70" height="70" viewBox="0 0 70 70" fill="none" xmlns="http://www.w3.org/2000/svg">
<path d="M63.323 33.1042L54.5439 38.6459L36.8105 20.9126L42.323 12.1334C44.8897 8.07922 50.0522 7.90422 53.8147 11.6667L63.7605 21.6126C67.3189 25.2001 67.0855 30.7126 63.323 33.1042Z" fill="#AFD275"/>
<path opacity="0.4" d="M46.6659 62.0956L19.3659 65.3039C17.47 65.5373 15.7784 65.2456 14.3492 64.5456C12.8382 63.8073 11.6167 62.5858 10.8784 61.0748C10.1784 59.6456 9.91587 57.9831 10.12 56.1164L13.1534 30.7123C13.6492 30.9748 14.2034 31.2081 14.7575 31.3831C16.07 31.8498 17.47 32.0831 18.9575 32.0831C22.2825 32.0831 25.2867 30.8581 27.5909 28.8164C29.5196 27.1365 30.9096 24.9246 31.5867 22.4581C31.7617 21.8748 31.8784 21.2623 31.9659 20.6206L36.8075 20.9123L54.5409 38.6748L55.2992 51.5664C56.0284 58.7998 53.52 61.3081 46.6659 62.0956Z" fill="#AFD275"/>
<path d="M25.6091 53.3197L14.38 64.5489C12.8341 63.7906 11.6675 62.6239 10.9091 61.0781L22.1383 49.8489C23.13 48.8864 24.6758 48.8864 25.6091 49.8489C26.5716 50.8114 26.5716 52.3572 25.6091 53.3197ZM18.9591 5.8335C15.8675 5.8335 13.0091 6.91266 10.7633 8.721C9.21879 9.94161 7.97233 11.4977 7.11832 13.2714C6.26432 15.0451 5.82516 16.9899 5.83412 18.9585C5.83412 21.4085 6.53412 23.7418 7.72995 25.7252C9.30495 28.3502 11.7841 30.3918 14.7591 31.3835C16.0716 31.8502 17.4716 32.0835 18.9591 32.0835C22.2841 32.0835 25.2883 30.8585 27.5925 28.8168C29.5212 27.1369 30.9112 24.925 31.5883 22.4585C31.9091 21.3502 32.0841 20.1543 32.0841 18.9585C32.0841 11.696 26.2216 5.8335 18.9591 5.8335ZM23.8008 21.146H21.205V23.8585C21.205 25.0543 20.2133 26.046 19.0175 26.046C17.8216 26.046 16.83 25.0543 16.83 23.8585V21.146H14.0008C12.805 21.146 11.8133 20.1543 11.8133 18.9585C11.8133 17.7627 12.805 16.771 14.0008 16.771H16.83V14.0585C16.83 12.8627 17.8216 11.871 19.0175 11.871C20.2133 11.871 21.205 12.8627 21.205 14.0585V16.771H23.8008C24.3809 16.771 24.9373 17.0015 25.3476 17.4117C25.7578 17.8219 25.9883 18.3783 25.9883 18.9585C25.9883 19.5387 25.7578 20.0951 25.3476 20.5053C24.9373 20.9155 24.3809 21.146 23.8008 21.146Z" fill="#AFD275"/>
</svg>
