<svg width="25" height="24" viewBox="0 0 25 24" fill="none" xmlns="http://www.w3.org/2000/svg">
<path d="M23.7744 9.98092L13.8248 9.98047C13.3854 9.98047 13.0293 10.3193 13.0293 10.7375V13.7624C13.0293 14.1804 13.3854 14.5194 13.8247 14.5194H19.4277C18.8142 16.0347 17.6691 17.3037 16.2081 18.11L18.5972 22.046C22.4296 19.9366 24.6954 16.2355 24.6954 12.0924C24.6954 11.5025 24.6497 11.0808 24.5583 10.6059C24.4888 10.2452 24.1597 9.98092 23.7744 9.98092Z" fill="#167EE6"/>
<path d="M12.4984 19.0649C9.75638 19.0649 7.36265 17.6391 6.07703 15.5293L1.94141 17.7979C4.046 21.2692 7.98857 23.6068 12.4984 23.6068C14.7107 23.6068 16.7983 23.0399 18.5966 22.052V22.0466L16.2075 18.1106C15.1146 18.7138 13.85 19.0649 12.4984 19.0649Z" fill="#12B347"/>
<path d="M18.5982 22.0527V22.0473L16.2091 18.1113C15.1163 18.7145 13.8517 19.0656 12.5 19.0656V23.6075C14.7124 23.6075 16.8 23.0406 18.5982 22.0527Z" fill="#0F993E"/>
<path d="M5.07524 11.9993C5.07524 10.7131 5.44408 9.50971 6.07777 8.46973L1.94215 6.20117C0.898356 7.9072 0.302734 9.88848 0.302734 11.9993C0.302734 14.1102 0.898356 16.0915 1.94215 17.7975L6.07777 15.529C5.44408 14.489 5.07524 13.2856 5.07524 11.9993Z" fill="#FFD500"/>
<path d="M12.4984 4.93451C14.2864 4.93451 15.9288 5.53917 17.2117 6.54495C17.5282 6.79306 17.9882 6.77515 18.2781 6.49925L20.5301 4.35601C20.859 4.04298 20.8356 3.53059 20.4842 3.2405C18.3349 1.46592 15.5383 0.392578 12.4984 0.392578C7.98857 0.392578 4.046 2.73019 1.94141 6.20155L6.07703 8.47011C7.36265 6.36028 9.75638 4.93451 12.4984 4.93451Z" fill="#FF4B26"/>
<path d="M17.2133 6.54495C17.5298 6.79306 17.9898 6.77515 18.2797 6.49925L20.5317 4.35601C20.8606 4.04298 20.8372 3.53059 20.4859 3.2405C18.3365 1.46588 15.5399 0.392578 12.5 0.392578V4.93451C14.288 4.93451 15.9305 5.53917 17.2133 6.54495Z" fill="#D93F21"/>
</svg>
