<svg width="70" height="70" viewBox="0 0 70 70" fill="none" xmlns="http://www.w3.org/2000/svg">
<path opacity="0.4" d="M47.2275 5.8335H22.815C12.1983 5.8335 5.86914 12.1627 5.86914 22.7793V47.1918C5.86914 57.8085 12.1983 64.1377 22.815 64.1377H47.2275C57.8441 64.1377 64.1733 57.8085 64.1733 47.1918V22.7793C64.1733 12.1627 57.8441 5.8335 47.2275 5.8335Z" fill="#AFD275"/>
<path d="M23.8868 48.9386H28.2327C31.4119 48.9386 33.891 46.4594 33.891 43.2802V38.9344C33.891 35.7552 31.4119 33.2761 28.2327 33.2761H22.6618C22.8952 27.9969 24.1202 27.2094 27.6494 25.1386C28.6994 24.5261 29.0202 23.1844 28.4077 22.1344C28.2146 21.8036 27.9377 21.5296 27.6048 21.3401C27.2719 21.1506 26.8949 21.0523 26.5119 21.0552C26.1327 21.0552 25.7535 21.1427 25.4035 21.3469C20.1827 24.4386 18.2285 26.4511 18.2285 35.4344V43.2219C18.2285 46.4011 20.766 48.9386 23.8868 48.9386ZM41.7631 48.9386H46.1089C49.2881 48.9386 51.7673 46.4594 51.7673 43.2802V38.9344C51.7673 35.7552 49.2881 33.2761 46.1089 33.2761H40.5381C40.7714 27.9969 41.9964 27.2094 45.5256 25.1386C46.5756 24.5261 46.8964 23.1844 46.2839 22.1344C46.0909 21.8036 45.8139 21.5296 45.481 21.3401C45.1481 21.1506 44.7711 21.0523 44.3881 21.0552C44.0089 21.0552 43.6298 21.1427 43.2798 21.3469C38.0589 24.4386 36.1048 26.4511 36.1048 35.4344V43.2219C36.1339 46.4011 38.6714 48.9386 41.7631 48.9386Z" fill="#AFD275"/>
</svg>
