<svg width="70" height="70" viewBox="0 0 70 70" fill="none" xmlns="http://www.w3.org/2000/svg">
<path opacity="0.4" d="M49.5833 64.1668H20.4167C14 64.1668 8.75 58.9168 8.75 52.5002V17.5002C8.75 11.0835 14 5.8335 20.4167 5.8335H49.5833C56 5.8335 61.25 11.0835 61.25 17.5002V52.5002C61.25 58.9168 56 64.1668 49.5833 64.1668Z" fill="#AFD275"/>
<path d="M47.3958 32.0835H22.6042C19.8042 32.0835 17.5 29.7793 17.5 26.9793V19.6877C17.5 16.8877 19.8042 14.5835 22.6042 14.5835H47.3958C50.1958 14.5835 52.5 16.8877 52.5 19.6877V26.9793C52.5 29.7793 50.1958 32.0835 47.3958 32.0835ZM31.675 49.8139L29.7792 47.9181L31.5875 46.1097C32.4333 45.2639 32.4333 43.8639 31.5875 43.0181C31.1758 42.6113 30.6204 42.3831 30.0417 42.3831C29.4629 42.3831 28.9075 42.6113 28.4958 43.0181L26.6875 44.8264L24.9667 43.1056C24.555 42.6988 23.9996 42.4706 23.4208 42.4706C22.8421 42.4706 22.2867 42.6988 21.875 43.1056C21.0292 43.9514 21.0292 45.3514 21.875 46.1972L23.5958 47.9181L21.7875 49.7264C20.9417 50.5722 20.9417 51.9722 21.7875 52.8181C22.225 53.2556 22.7792 53.4597 23.3333 53.4597C23.8875 53.4597 24.4417 53.2556 24.8792 52.8181L26.6875 51.0097L28.5833 52.9056C29.0208 53.3431 29.575 53.5472 30.1292 53.5472C30.6833 53.5472 31.2375 53.3431 31.675 52.9056C32.5208 52.0597 32.5208 50.6597 31.675 49.8139ZM48.1542 47.6235C46.55 47.6235 45.2083 46.311 45.2083 44.7068C45.2083 43.1027 46.4917 41.7902 48.0958 41.7902H48.1542C49.7583 41.7902 51.0708 43.1027 51.0708 44.7068C51.0708 46.311 49.7583 47.6235 48.1542 47.6235ZM42.2625 53.9293C40.6583 53.9293 39.3458 52.646 39.3458 51.0418V50.9835C39.3458 49.3793 40.6583 48.0668 42.2625 48.0668C43.8667 48.0668 45.1792 49.3793 45.1792 50.9835C45.1792 52.5877 43.8667 53.9293 42.2625 53.9293Z" fill="#AFD275"/>
</svg>
