<svg width="70" height="70" viewBox="0 0 70 70" fill="none" xmlns="http://www.w3.org/2000/svg">
<path opacity="0.4" d="M43.7494 11.6665H26.2493C18.1993 11.6665 11.666 18.1998 11.666 26.2498V43.7498C11.666 51.7998 18.1993 58.3332 26.2493 58.3332H43.7494C51.7994 58.3332 58.3327 51.7998 58.3327 43.7498V26.2498C58.3327 18.1998 51.7994 11.6665 43.7494 11.6665ZM50.341 41.5915C50.341 46.4332 46.4327 50.3415 41.591 50.3415H28.4077C23.566 50.3415 19.6577 46.4332 19.6577 41.5915V28.4082C19.6577 23.5665 23.566 19.6582 28.4077 19.6582H41.5618C46.4035 19.6582 50.3119 23.5665 50.3119 28.4082V41.5915H50.341Z" fill="#AFD275"/>
<path d="M26.4257 8.021V11.6668H26.2507C24.7923 11.6668 23.3923 11.871 22.0506 12.2793V8.021C22.0506 7.44083 22.2811 6.88444 22.6914 6.4742C23.1016 6.06396 23.658 5.8335 24.2382 5.8335C24.8183 5.8335 25.3747 6.06396 25.7849 6.4742C26.1952 6.88444 26.4257 7.44083 26.4257 8.021ZM37.1881 8.021V11.6668H32.8132V8.021C32.8132 6.82516 33.8048 5.8335 35.0006 5.8335C36.1965 5.8335 37.1881 6.82516 37.1881 8.021ZM47.9798 8.021V12.2793C46.6381 11.871 45.209 11.6668 43.7506 11.6668H43.6048V8.021C43.6048 6.82516 44.5965 5.8335 45.7923 5.8335C46.9881 5.8335 47.9798 6.82516 47.9798 8.021ZM64.1673 24.2085C64.1673 25.4335 63.2048 26.396 61.9798 26.396H58.334V26.2502C58.334 24.7918 58.1298 23.3627 57.7215 22.021H61.9798C63.2048 22.021 64.1673 23.0127 64.1673 24.2085ZM64.1673 35.0002C64.1673 36.196 63.2048 37.1877 61.9798 37.1877H58.334V32.8127H61.9798C63.2048 32.8127 64.1673 33.7752 64.1673 35.0002ZM64.1673 45.7918C64.1673 46.9877 63.2048 47.9793 61.9798 47.9793H57.7215C58.1298 46.6377 58.334 45.2085 58.334 43.7502V43.6043H61.9798C63.2048 43.6043 64.1673 44.5668 64.1673 45.7918ZM47.9798 57.721V61.9793C47.9798 63.1752 46.9881 64.1668 45.7923 64.1668C44.5965 64.1668 43.6048 63.1752 43.6048 61.9793V58.3335H43.7506C45.209 58.3335 46.6381 58.1293 47.9798 57.721ZM37.2173 58.3335V61.9793C37.2173 62.5595 36.9868 63.1159 36.5766 63.5261C36.1664 63.9364 35.61 64.1668 35.0298 64.1668C34.4497 64.1668 33.8933 63.9364 33.483 63.5261C33.0728 63.1159 32.8423 62.5595 32.8423 61.9793V58.3335H37.2173ZM26.4257 58.3335V61.9793C26.4257 62.5595 26.1952 63.1159 25.7849 63.5261C25.3747 63.9364 24.8183 64.1668 24.2382 64.1668C23.658 64.1668 23.1016 63.9364 22.6914 63.5261C22.2811 63.1159 22.0506 62.5595 22.0506 61.9793V57.721C23.3923 58.1293 24.7923 58.3335 26.2507 58.3335H26.4257ZM12.2798 22.021C11.8715 23.3627 11.6673 24.7918 11.6673 26.2502V26.396H8.02148C7.44132 26.396 6.88492 26.1655 6.47469 25.7553C6.06445 25.3451 5.83398 24.7887 5.83398 24.2085C5.83398 23.6283 6.06445 23.0719 6.47469 22.6617C6.88492 22.2515 7.44132 22.021 8.02148 22.021H12.2798ZM11.6673 32.8127V37.1877H8.02148C7.44132 37.1877 6.88492 36.9572 6.47469 36.547C6.06445 36.1367 5.83398 35.5803 5.83398 35.0002C5.83398 34.42 6.06445 33.8636 6.47469 33.4534C6.88492 33.0431 7.44132 32.8127 8.02148 32.8127H11.6673ZM12.2798 47.9793H8.02148C7.44132 47.9793 6.88492 47.7489 6.47469 47.3386C6.06445 46.9284 5.83398 46.372 5.83398 45.7918C5.83398 45.2117 6.06445 44.6553 6.47469 44.245C6.88492 43.8348 7.44132 43.6043 8.02148 43.6043H11.6673V43.7502C11.6673 45.2085 11.8715 46.6377 12.2798 47.9793ZM50.3423 28.4027V41.5568C50.3423 46.3985 46.434 50.3068 41.5923 50.3068H28.409C23.5673 50.3068 19.659 46.3985 19.659 41.5568V28.4027C19.659 23.561 23.5673 19.6527 28.409 19.6527H41.5631C43.8865 19.6526 46.1151 20.5736 47.7607 22.2137C49.4062 23.8538 50.3346 26.0793 50.3423 28.4027Z" fill="#AFD275"/>
</svg>
