<svg width="70" height="70" viewBox="0 0 70 70" fill="none" xmlns="http://www.w3.org/2000/svg">
<path opacity="0.4" d="M47.2275 5.8335H22.815C12.1983 5.8335 5.86914 12.1627 5.86914 22.7793V47.1918C5.86914 57.8085 12.1983 64.1377 22.815 64.1377H47.2275C57.8441 64.1377 64.1733 57.8085 64.1733 47.1918V22.7793C64.1733 12.1627 57.8441 5.8335 47.2275 5.8335Z" fill="#AFD275"/>
<path d="M35.5895 50.6977C33.4673 50.6977 31.4315 49.8567 29.9282 48.3588C28.4248 46.8609 27.5764 44.8282 27.5686 42.706C27.5686 40.5769 28.4145 38.5352 29.9311 37.0477L34.0436 32.9352C34.8895 32.0894 36.2895 32.0894 37.1353 32.9352C37.9811 33.781 37.9811 35.181 37.1353 36.0269L33.0228 40.1394C32.682 40.4744 32.4114 40.8738 32.2267 41.3145C32.0419 41.7552 31.9468 42.2282 31.9468 42.706C31.9468 43.1839 32.0419 43.6569 32.2267 44.0976C32.4114 44.5383 32.682 44.9377 33.0228 45.2727C34.452 46.7019 36.7561 46.7019 38.1853 45.2727L44.6603 38.7977C46.3992 37.0103 47.3644 34.6101 47.3472 32.1165C47.33 29.6228 46.3318 27.2362 44.5685 25.4728C42.8052 23.7095 40.4185 22.7113 37.9249 22.6941C35.4312 22.6769 33.0311 23.6422 31.2436 25.381L24.1853 32.4394C23.4558 33.1602 22.8767 34.0186 22.4814 34.9648C22.0861 35.9111 21.8826 36.9264 21.8826 37.9519C21.8826 38.9774 22.0861 39.9927 22.4814 40.9389C22.8767 41.8852 23.4558 42.7436 24.1853 43.4644C25.0311 44.3102 25.0311 45.7102 24.1853 46.556C23.3395 47.4019 21.9395 47.4019 21.0936 46.556C19.9585 45.4242 19.0595 44.0783 18.4487 42.5962C17.8378 41.1142 17.5274 39.5257 17.5353 37.9227C17.5353 34.656 18.7895 31.5935 21.0936 29.2894L28.152 22.231C30.755 19.6392 34.2787 18.1841 37.952 18.1841C41.6253 18.1841 45.149 19.6392 47.752 22.231C50.3438 24.834 51.7989 28.3578 51.7989 32.031C51.7989 35.7043 50.3438 39.2281 47.752 41.831L41.277 48.306C39.702 49.9102 37.6603 50.6977 35.5895 50.6977Z" fill="#AFD275"/>
</svg>
