<svg width="70" height="70" viewBox="0 0 70 70" fill="none" xmlns="http://www.w3.org/2000/svg">
<path opacity="0.4" d="M64.1667 34.9998C64.1667 43.0498 57.6333 49.5832 49.5833 49.5832C49.5833 41.5332 43.05 34.9998 35 34.9998C43.05 34.9998 49.5833 28.4665 49.5833 20.4165C57.6333 20.4165 64.1667 26.9498 64.1667 34.9998Z" fill="#AFD275"/>
<path d="M49.5833 49.5833C41.5333 49.5833 35 43.05 35 35C43.05 35 49.5833 41.5333 49.5833 49.5833Z" fill="#AFD275"/>
<path opacity="0.4" d="M49.5827 49.5833C49.5827 57.6333 43.0493 64.1667 34.9993 64.1667C26.9493 64.1667 20.416 57.6333 20.416 49.5833C28.466 49.5833 34.9993 43.05 34.9993 35C34.9993 43.05 41.5327 49.5833 49.5827 49.5833Z" fill="#AFD275"/>
<path d="M49.5833 20.4165C49.5833 28.4665 43.05 34.9998 35 34.9998C35 26.9498 41.5333 20.4165 49.5833 20.4165Z" fill="#AFD275"/>
<path opacity="0.4" d="M49.5827 20.4168C41.5327 20.4168 34.9993 26.9502 34.9993 35.0002C34.9993 26.9502 28.466 20.4168 20.416 20.4168C20.416 12.3668 26.9493 5.8335 34.9993 5.8335C43.0493 5.8335 49.5827 12.3668 49.5827 20.4168Z" fill="#AFD275"/>
<path d="M34.9993 34.9998C34.9993 43.0498 28.466 49.5832 20.416 49.5832C20.416 41.5332 26.9493 34.9998 34.9993 34.9998ZM34.9993 34.9998C26.9493 34.9998 20.416 28.4665 20.416 20.4165C28.466 20.4165 34.9993 26.9498 34.9993 34.9998Z" fill="#AFD275"/>
<path opacity="0.4" d="M35.0006 34.9998C26.9506 34.9998 20.4173 41.5332 20.4173 49.5832C12.3673 49.5832 5.83398 43.0498 5.83398 34.9998C5.83398 26.9498 12.3673 20.4165 20.4173 20.4165C20.4173 28.4665 26.9506 34.9998 35.0006 34.9998Z" fill="#AFD275"/>
</svg>
