<svg width="70" height="70" viewBox="0 0 70 70" fill="none" xmlns="http://www.w3.org/2000/svg">
<path opacity="0.4" d="M47.3875 6.00049H22.9458C12.3292 6.00049 6 12.3297 6 22.9463V47.3588C6 58.0047 12.3292 64.3338 22.9458 64.3338H47.3583C57.975 64.3338 64.3042 58.0047 64.3042 47.388V22.9463C64.3333 12.3297 58.0042 6.00049 47.3875 6.00049Z" fill="#AFD275"/>
<path d="M63.8378 10.5215C60.7753 18.134 53.8336 28.0798 47.1836 34.584C46.7102 31.648 45.3072 28.9414 43.1808 26.8622C41.0544 24.7831 38.317 23.4412 35.3711 23.034C41.9044 16.384 51.9086 9.32564 59.5503 6.23398C60.8919 5.70898 62.2628 6.11731 63.0794 6.96314C63.9836 7.83814 64.3919 9.17981 63.8378 10.5215Z" fill="#AFD275"/>
<path opacity="0.5" d="M47.1824 34.5607C46.0158 35.6982 44.8491 36.7482 43.7408 37.6232L39.1616 41.2982C38.5783 41.7066 37.9949 42.0566 37.3533 42.3482C37.3533 41.9107 37.2949 41.4732 37.2658 41.0066C37.0033 39.0816 36.1283 37.2441 34.5533 35.6691C33.0719 34.1837 31.147 33.2213 29.0699 32.9274C28.6033 32.8691 28.1074 32.8691 27.6699 32.8691C27.9324 32.1399 28.3116 31.4691 28.8074 30.9149L32.4533 26.3357C33.3283 25.2274 34.3199 24.1191 35.3991 23.0107C41.4366 23.8566 46.2491 28.5816 47.1824 34.5607Z" fill="#AFD275"/>
<path d="M37.3532 42.3716C37.3532 44.9383 36.3615 47.3883 34.524 49.2258C33.0949 50.6549 31.199 51.6466 28.8657 51.9383L23.149 52.5799C20.0282 52.9299 17.3449 50.2466 17.6949 47.0966L18.3365 41.3799C18.8907 36.2758 23.149 33.0091 27.6699 32.9216C28.1074 32.8924 28.6032 32.9216 29.0699 32.9799C31.0532 33.2424 32.949 34.1466 34.5532 35.7216C36.099 37.2674 37.0032 39.1341 37.2657 41.0591C37.2949 41.4966 37.3532 41.9341 37.3532 42.3716Z" fill="#AFD275"/>
</svg>
