<svg width="70" height="70" viewBox="0 0 70 70" fill="none" xmlns="http://www.w3.org/2000/svg">
<path opacity="0.4" d="M47.2215 5.8335H22.7798C12.1632 5.8335 5.83398 12.1627 5.83398 22.7793V47.1918C5.83398 57.8377 12.1632 64.1668 22.7798 64.1668H47.1923C57.809 64.1668 64.1382 57.8377 64.1382 47.221V22.7793C64.1673 12.1627 57.8382 5.8335 47.2215 5.8335Z" fill="#AFD275"/>
<path d="M45.4419 56.1515C44.2461 56.1515 43.2544 55.1598 43.2544 53.964V42.589C43.2544 41.3932 44.2461 40.4015 45.4419 40.4015C46.6378 40.4015 47.6294 41.3932 47.6294 42.589V53.964C47.6294 55.1598 46.6378 56.1515 45.4419 56.1515ZM45.4419 23.9165C44.2461 23.9165 43.2544 22.9248 43.2544 21.729V16.0415C43.2544 14.8457 44.2461 13.854 45.4419 13.854C46.6378 13.854 47.6294 14.8457 47.6294 16.0415V21.729C47.6294 22.9248 46.6378 23.9165 45.4419 23.9165ZM24.5586 56.1457C23.3628 56.1457 22.3711 55.154 22.3711 53.9582V48.2707C22.3711 47.0748 23.3628 46.0832 24.5586 46.0832C25.7544 46.0832 26.7461 47.0748 26.7461 48.2707V53.9582C26.7461 55.154 25.7836 56.1457 24.5586 56.1457ZM24.5586 29.604C23.3628 29.604 22.3711 28.6123 22.3711 27.4165V16.0415C22.3711 14.8457 23.3628 13.854 24.5586 13.854C25.7544 13.854 26.7461 14.8457 26.7461 16.0415V27.4165C26.7461 28.6123 25.7836 29.604 24.5586 29.604Z" fill="#AFD275"/>
<path d="M45.4417 21.3735C41.0667 21.3735 37.4792 24.9319 37.4792 29.3069C37.4792 33.6819 41.0375 37.2694 45.4417 37.2694C49.8167 37.2694 53.375 33.711 53.375 29.3069C53.375 24.9027 49.8167 21.3735 45.4417 21.3735ZM24.5583 32.7544C20.1833 32.7544 16.625 36.3127 16.625 40.7169C16.625 45.121 20.1833 48.6502 24.5583 48.6502C28.9333 48.6502 32.5208 45.0919 32.5208 40.7169C32.5208 36.3419 28.9625 32.7544 24.5583 32.7544Z" fill="#AFD275"/>
</svg>
