<svg width="70" height="70" viewBox="0 0 70 70" fill="none" xmlns="http://www.w3.org/2000/svg">
<path opacity="0.4" d="M47.2275 5.8335H22.815C12.1983 5.8335 5.86914 12.1627 5.86914 22.7793V47.1918C5.86914 57.8085 12.1983 64.1377 22.815 64.1377H47.2275C57.8441 64.1377 64.1733 57.8085 64.1733 47.1918V22.7793C64.1733 12.1627 57.8441 5.8335 47.2275 5.8335Z" fill="#AFD275"/>
<path d="M23.8642 48.9124H23.66C20.8309 48.6499 18.1767 47.3374 16.1934 45.2374C11.5267 40.3374 11.5267 32.3749 16.1934 27.4749L22.5809 20.7665C23.6841 19.5897 25.0167 18.6514 26.4965 18.0093C27.9763 17.3672 29.5719 17.035 31.185 17.0332C34.4517 17.0332 37.5142 18.3457 39.7892 20.7665C44.4559 25.6665 44.4559 33.629 39.7892 38.529L36.61 41.8832C35.7642 42.7582 34.3934 42.7874 33.5184 41.9707C33.1004 41.5703 32.8568 41.0214 32.8405 40.4428C32.8241 39.8642 33.0362 39.3024 33.4309 38.879L36.61 35.5249C39.7017 32.2874 39.7017 27.0082 36.61 23.7999C33.7225 20.7665 28.6475 20.7665 25.7309 23.7999L19.3434 30.5082C16.2517 33.7457 16.2517 39.0249 19.3434 42.2332C20.5975 43.5749 22.2892 44.3915 24.0684 44.5665C25.2642 44.6832 26.1392 45.7624 26.0225 46.9582C25.9716 47.4945 25.7219 47.9924 25.3225 48.354C24.9231 48.7156 24.4029 48.9148 23.8642 48.9124Z" fill="#AFD275"/>
<path d="M38.821 52.961C35.5543 52.961 32.4918 51.6485 30.2168 49.2277C25.5501 44.3277 25.5501 36.3652 30.2168 31.4652L33.396 28.111C34.2418 27.236 35.6126 27.2069 36.4876 28.0235C37.3626 28.8694 37.3918 30.2402 36.5751 31.1152L33.396 34.4694C30.3043 37.7069 30.3043 42.986 33.396 46.1944C36.2835 49.2277 41.3585 49.2569 44.2751 46.1944L50.6626 39.486C53.7543 36.2485 53.7543 30.9694 50.6626 27.761C49.4085 26.4194 47.7168 25.6027 45.9376 25.4277C45.3617 25.3688 44.8327 25.0839 44.4664 24.6356C44.1001 24.1873 43.9264 23.6121 43.9835 23.036C44.1001 21.8402 45.1501 20.936 46.3751 21.0819C49.2043 21.3735 51.8585 22.6569 53.8418 24.7569C58.5085 29.6569 58.5085 37.6194 53.8418 42.5194L47.4543 49.2277C46.3477 50.4081 45.0103 51.3485 43.5252 51.9907C42.0402 52.6329 40.439 52.9632 38.821 52.961Z" fill="#AFD275"/>
</svg>
