<svg width="25" height="24" viewBox="0 0 25 24" fill="none" xmlns="http://www.w3.org/2000/svg">
<path d="M23.7763 9.98092L13.8267 9.98047C13.3874 9.98047 13.0312 10.3193 13.0312 10.7375V13.7624C13.0312 14.1804 13.3874 14.5194 13.8267 14.5194H19.4297C18.8161 16.0347 17.671 17.3037 16.21 18.11L18.5991 22.046C22.4316 19.9366 24.6973 16.2355 24.6973 12.0924C24.6973 11.5025 24.6516 11.0808 24.5603 10.6059C24.4908 10.2452 24.1617 9.98092 23.7763 9.98092Z" fill="#167EE6"/>
<path d="M12.5023 19.0649C9.76029 19.0649 7.36656 17.6391 6.08093 15.5293L1.94531 17.7979C4.0499 21.2692 7.99248 23.6068 12.5023 23.6068C14.7146 23.6068 16.8022 23.0399 18.6005 22.052V22.0466L16.2114 18.1106C15.1185 18.7138 13.8539 19.0649 12.5023 19.0649Z" fill="#12B347"/>
<path d="M18.5982 22.0527V22.0473L16.2091 18.1113C15.1163 18.7145 13.8517 19.0656 12.5 19.0656V23.6075C14.7124 23.6075 16.8 23.0406 18.5982 22.0527Z" fill="#0F993E"/>
<path d="M5.07719 11.9993C5.07719 10.7131 5.44603 9.50971 6.07972 8.46973L1.9441 6.20117C0.900309 7.9072 0.304688 9.88848 0.304688 11.9993C0.304688 14.1102 0.900309 16.0915 1.9441 17.7975L6.07972 15.529C5.44603 14.489 5.07719 13.2856 5.07719 11.9993Z" fill="#FFD500"/>
<path d="M12.5023 4.93451C14.2903 4.93451 15.9328 5.53917 17.2156 6.54495C17.5321 6.79306 17.9921 6.77515 18.282 6.49925L20.534 4.35601C20.8629 4.04298 20.8395 3.53059 20.4881 3.2405C18.3388 1.46592 15.5422 0.392578 12.5023 0.392578C7.99248 0.392578 4.0499 2.73019 1.94531 6.20155L6.08093 8.47011C7.36656 6.36028 9.76029 4.93451 12.5023 4.93451Z" fill="#FF4B26"/>
<path d="M17.2133 6.54495C17.5298 6.79306 17.9898 6.77515 18.2797 6.49925L20.5317 4.35601C20.8606 4.04298 20.8372 3.53059 20.4859 3.2405C18.3365 1.46588 15.5399 0.392578 12.5 0.392578V4.93451C14.288 4.93451 15.9305 5.53917 17.2133 6.54495Z" fill="#D93F21"/>
</svg>
