<svg width="70" height="70" viewBox="0 0 70 70" fill="none" xmlns="http://www.w3.org/2000/svg">
<path d="M26.3382 15.0793C26.309 14.8168 26.2798 14.5835 26.2215 14.321C26.1923 14.1168 26.1631 13.9127 26.1048 13.6793C26.0173 13.3293 25.9007 12.9502 25.7548 12.6002C25.4048 11.5793 24.8798 10.646 24.209 9.771C23.8298 9.30433 23.4215 8.83766 22.9548 8.4585C21.0882 6.76683 18.6673 5.8335 16.1298 5.8335C13.3992 5.8335 10.7804 6.91823 8.84956 8.84908C6.91872 10.7799 5.83398 13.3987 5.83398 16.1293C5.83398 18.6668 6.76732 21.0877 8.45898 22.9543C8.83815 23.421 9.30482 23.8293 9.77148 24.2085C10.6465 24.8793 11.5798 25.4043 12.6007 25.7543C12.9507 25.9002 13.3298 26.0168 13.6798 26.1043C13.9132 26.1627 14.1173 26.1918 14.3215 26.221C14.584 26.2793 14.8173 26.3085 15.0798 26.3377C15.4298 26.3668 15.7798 26.396 16.1298 26.396C21.7882 26.396 26.3965 21.7877 26.3965 16.1293C26.3965 15.7793 26.3673 15.4293 26.3382 15.0793ZM61.5423 47.0752C61.2506 46.696 60.8715 46.3168 60.4631 45.996C60.4048 45.9377 60.3173 45.8502 60.2298 45.7918C59.4423 45.1793 58.5673 44.6835 57.6632 44.3335C57.5864 44.2786 57.495 44.2481 57.4007 44.246C57.0798 44.1293 56.759 44.0127 56.4381 43.9252C55.9423 43.8085 55.4173 43.721 54.9215 43.6627C54.5715 43.6335 54.2215 43.6043 53.8715 43.6043C48.2131 43.6043 43.6048 48.2127 43.6048 53.871C43.6048 54.221 43.634 54.571 43.6632 54.921C43.7215 55.4168 43.809 55.9418 43.9257 56.4377C44.0131 56.7585 44.1298 57.0793 44.2465 57.4002C44.2465 57.4877 44.2757 57.5752 44.334 57.6627C44.684 58.5668 45.1798 59.4418 45.7923 60.2293C45.8506 60.3168 45.9381 60.3752 45.9965 60.4627C46.3173 60.871 46.6965 61.2502 47.0756 61.5418C48.9423 63.2335 51.334 64.1668 53.8715 64.1668C56.6021 64.1668 59.2209 63.0821 61.1517 61.1512C63.0826 59.2204 64.1673 56.6016 64.1673 53.871C64.1673 51.3335 63.234 48.9418 61.5423 47.0752ZM16.1298 43.6043C15.7798 43.6043 15.4298 43.6335 15.0798 43.6627C14.584 43.721 14.059 43.8085 13.5632 43.9252C13.2423 44.0127 12.9215 44.1293 12.6007 44.246C12.5132 44.246 12.4257 44.2752 12.3382 44.3335C11.434 44.6835 10.559 45.1793 9.77148 45.7918C9.68398 45.8502 9.62565 45.9377 9.53815 45.996C9.12982 46.3168 8.75065 46.696 8.45898 47.0752C6.76732 48.9418 5.83398 51.3335 5.83398 53.871C5.83398 56.6016 6.91872 59.2204 8.84956 61.1512C10.7804 63.0821 13.3992 64.1668 16.1298 64.1668C18.6673 64.1668 21.0882 63.2335 22.9548 61.5418C23.4215 61.1627 23.8298 60.696 24.209 60.2293C24.8215 59.4418 25.3173 58.5668 25.6673 57.6627C25.7257 57.5752 25.7548 57.4877 25.7548 57.4002C25.8715 57.0793 25.9881 56.7585 26.0756 56.4377C26.1923 55.9418 26.2798 55.4168 26.3382 54.921C26.3673 54.571 26.3965 54.221 26.3965 53.871C26.3965 48.2127 21.7882 43.6043 16.1298 43.6043ZM53.8715 5.8335C51.334 5.8335 48.9423 6.76683 47.0756 8.4585C46.6965 8.75016 46.3173 9.12933 45.9965 9.53766C45.9381 9.596 45.8506 9.6835 45.7923 9.771C45.1798 10.5585 44.684 11.4335 44.334 12.3377C44.2757 12.4252 44.2465 12.5127 44.2465 12.6002C44.1298 12.921 44.0131 13.2418 43.9257 13.5627C43.809 14.0585 43.7215 14.5835 43.6632 15.0793C43.634 15.4293 43.6048 15.7793 43.6048 16.1293C43.6048 21.7877 48.2131 26.396 53.8715 26.396C54.2215 26.396 54.5715 26.3668 54.9215 26.3377C55.4173 26.2793 55.9423 26.1918 56.4381 26.0752C56.759 25.9877 57.0798 25.871 57.4007 25.7543C57.4881 25.7543 57.5756 25.7252 57.6632 25.6668C58.5673 25.3168 59.4423 24.821 60.2298 24.2085C60.6965 23.8293 61.1632 23.421 61.5423 22.9543C63.234 21.0877 64.1673 18.6668 64.1673 16.1293C64.1673 13.3987 63.0826 10.7799 61.1517 8.84908C59.2209 6.91823 56.6021 5.8335 53.8715 5.8335Z" fill="#AFD275"/>
<path opacity="0.4" d="M45.9965 60.4626C45.9381 60.3751 45.8506 60.3168 45.7923 60.2293C45.1798 59.4418 44.684 58.5668 44.334 57.6626L44.4215 57.9251C38.559 60.3751 31.559 60.4043 25.5798 57.9251L25.6673 57.6626C25.3173 58.5668 24.8215 59.4418 24.209 60.2293C23.8298 60.6959 23.4215 61.1626 22.9548 61.5418C26.6882 63.2626 30.8298 64.1668 35.0006 64.1668C39.259 64.1668 43.3131 63.2918 47.0756 61.5418C46.6965 61.2501 46.3173 60.8709 45.9965 60.4626ZM10.209 35.0001C10.209 31.7626 10.8507 28.5251 12.0757 25.5793C12.1048 25.5793 12.1632 25.6084 12.1923 25.6084C11.3244 25.2562 10.5096 24.7851 9.77148 24.2084C9.30482 23.8293 8.83815 23.4209 8.45898 22.9543C6.73815 26.6876 5.83398 30.8293 5.83398 35.0001C5.83398 39.2584 6.70898 43.3126 8.45898 47.0751C8.75065 46.6959 9.12982 46.3168 9.53815 45.9959C9.62565 45.9376 9.68398 45.8501 9.77148 45.7918C10.559 45.1793 11.434 44.6834 12.3382 44.3334L12.0757 44.4209C10.8215 41.4751 10.209 38.2959 10.209 35.0001ZM61.5423 22.9543C61.1632 23.4209 60.6965 23.8293 60.2298 24.2084C59.4423 24.8209 58.5673 25.3168 57.6632 25.6668L57.9257 25.5793C59.1507 28.5251 59.7923 31.7626 59.7923 35.0001C59.7923 38.2959 59.1798 41.4751 57.9257 44.4209L57.6632 44.3334C58.5673 44.6834 59.4423 45.1793 60.2298 45.7918C60.3173 45.8501 60.4048 45.9376 60.4631 45.9959C60.8715 46.3168 61.2506 46.6959 61.5423 47.0751C63.2923 43.3126 64.1673 39.2584 64.1673 35.0001C64.1673 30.8293 63.2631 26.6876 61.5423 22.9543ZM35.0006 5.83342C30.8298 5.83342 26.6882 6.73759 22.9548 8.45842C23.4215 8.83759 23.8298 9.30426 24.209 9.77092C24.7856 10.5091 25.2568 11.3238 25.609 12.1918C25.609 12.1626 25.5798 12.1043 25.5798 12.0751C31.5298 9.59592 38.559 9.62509 44.4215 12.0751L44.334 12.3376C44.684 11.4334 45.1798 10.5584 45.7923 9.77092C45.8506 9.68342 45.9381 9.59592 45.9965 9.53759C46.3173 9.12926 46.6965 8.75009 47.0756 8.45842C43.2923 6.70711 39.1696 5.81087 35.0006 5.83342Z" fill="#AFD275"/>
</svg>
