<svg width="120" height="120" viewBox="0 0 120 120" fill="none" xmlns="http://www.w3.org/2000/svg">
<path opacity="0.4" d="M80.9 10H39.05C20.85 10 10 20.85 10 39.05V80.9C10 99.1 20.85 109.95 39.05 109.95H80.9C99.1 109.95 109.95 99.1 109.95 80.9V39.05C109.95 20.85 99.1 10 80.9 10Z" fill="#AFD275"/>
<path d="M87.4891 57.2707L78.7099 62.8124L60.9766 45.0791L66.4891 36.2999C69.0557 32.2457 74.2182 32.0707 77.9807 35.8332L87.9266 45.7791C91.4849 49.3666 91.2516 54.8791 87.4891 57.2707Z" fill="#AFD275"/>
<path opacity="0.4" d="M70.8319 86.2621L43.5319 89.4704C41.6361 89.7038 39.9444 89.4121 38.5152 88.7121C37.0042 87.9738 35.7827 86.7523 35.0444 85.2413C34.3444 83.8121 34.0819 82.1496 34.2861 80.2829L37.3194 54.8788C37.8152 55.1413 38.3694 55.3746 38.9236 55.5496C40.2361 56.0163 41.6361 56.2496 43.1236 56.2496C46.4486 56.2496 49.4527 55.0246 51.7569 52.9829C53.6856 51.303 55.0756 49.0911 55.7527 46.6246C55.9277 46.0413 56.0444 45.4288 56.1319 44.7871L60.9735 45.0788L78.7069 62.8413L79.4652 75.7329C80.1944 82.9663 77.6861 85.4746 70.8319 86.2621Z" fill="#AFD275"/>
<path d="M49.7751 77.4863L38.546 88.7154C37.0001 87.9571 35.8335 86.7904 35.0751 85.2446L46.3043 74.0154C47.296 73.0529 48.8418 73.0529 49.7751 74.0154C50.7376 74.9779 50.7376 76.5238 49.7751 77.4863ZM43.1251 30C40.0335 30 37.1751 31.0792 34.9293 32.8875C33.3848 34.1081 32.1383 35.6642 31.2843 37.4379C30.4303 39.2116 29.9912 41.1564 30.0001 43.125C30.0001 45.575 30.7001 47.9083 31.896 49.8917C33.471 52.5167 35.9501 54.5583 38.9251 55.55C40.2376 56.0167 41.6376 56.25 43.1251 56.25C46.4501 56.25 49.4543 55.025 51.7585 52.9833C53.6872 51.3034 55.0772 49.0915 55.7543 46.625C56.0751 45.5167 56.2501 44.3208 56.2501 43.125C56.2501 35.8625 50.3876 30 43.1251 30ZM47.9668 45.3125H45.371V48.025C45.371 49.2208 44.3793 50.2125 43.1835 50.2125C41.9876 50.2125 40.996 49.2208 40.996 48.025V45.3125H38.1668C36.971 45.3125 35.9793 44.3208 35.9793 43.125C35.9793 41.9292 36.971 40.9375 38.1668 40.9375H40.996V38.225C40.996 37.0292 41.9876 36.0375 43.1835 36.0375C44.3793 36.0375 45.371 37.0292 45.371 38.225V40.9375H47.9668C48.547 40.9375 49.1034 41.168 49.5136 41.5782C49.9238 41.9884 50.1543 42.5448 50.1543 43.125C50.1543 43.7052 49.9238 44.2616 49.5136 44.6718C49.1034 45.082 48.547 45.3125 47.9668 45.3125Z" fill="#AFD275"/>
</svg>
