<svg width="24" height="24" viewBox="0 0 24 24" fill="none" xmlns="http://www.w3.org/2000/svg">
<path d="M9.00015 16.1698L5.53015 12.6998C5.34317 12.5129 5.08957 12.4078 4.82515 12.4078C4.56072 12.4078 4.30712 12.5129 4.12015 12.6998C3.93317 12.8868 3.82813 13.1404 3.82812 13.4048C3.82813 13.5358 3.85391 13.6654 3.90402 13.7864C3.95412 13.9073 4.02756 14.0173 4.12015 14.1098L8.30015 18.2898C8.69015 18.6798 9.32015 18.6798 9.71015 18.2898L20.2901 7.70983C20.4771 7.52286 20.5822 7.26926 20.5822 7.00483C20.5822 6.74041 20.4771 6.48681 20.2901 6.29983C20.1032 6.11286 19.8496 6.00781 19.5851 6.00781C19.3207 6.00781 19.0671 6.11286 18.8801 6.29983L9.00015 16.1698Z" fill="#AFD275"/>
</svg>
