<svg width="20" height="20" viewBox="0 0 20 20" fill="none" xmlns="http://www.w3.org/2000/svg">
<path fill-rule="evenodd" clip-rule="evenodd" d="M10.0001 2.5C8.61941 2.5 7.50012 3.61929 7.50012 5V10C7.50012 11.3807 8.61941 12.5 10.0001 12.5C11.3808 12.5 12.5001 11.3807 12.5001 10V5C12.5001 3.61929 11.3808 2.5 10.0001 2.5ZM6.25012 5C6.25012 2.92893 7.92905 1.25 10.0001 1.25C12.0712 1.25 13.7501 2.92893 13.7501 5V10C13.7501 12.0711 12.0712 13.75 10.0001 13.75C7.92905 13.75 6.25012 12.0711 6.25012 10V5Z" fill="#EEF1F4"/>
<path fill-rule="evenodd" clip-rule="evenodd" d="M10.0001 15C10.3453 15 10.6251 15.2798 10.6251 15.625V18.125C10.6251 18.4702 10.3453 18.75 10.0001 18.75C9.65494 18.75 9.37512 18.4702 9.37512 18.125V15.625C9.37512 15.2798 9.65494 15 10.0001 15Z" fill="#EEF1F4"/>
<path fill-rule="evenodd" clip-rule="evenodd" d="M4.33283 10.0043C4.67562 9.96374 4.9864 10.2087 5.02698 10.5515C5.17113 11.7692 5.75705 12.8917 6.67366 13.7062C7.59027 14.5207 8.77386 14.9706 10.0001 14.9706C11.2263 14.9706 12.4099 14.5207 13.3265 13.7062C14.2431 12.8917 14.829 11.7692 14.9731 10.5515C15.0137 10.2087 15.3245 9.96374 15.6673 10.0043C16.0101 10.0449 16.2551 10.3557 16.2145 10.6985C16.0343 12.2201 15.3022 13.6228 14.1568 14.6406C13.0114 15.6584 11.5323 16.2206 10.0001 16.2206C8.46778 16.2206 6.98876 15.6584 5.84336 14.6406C4.69796 13.6228 3.96579 12.2201 3.78564 10.6985C3.74506 10.3557 3.99005 10.0449 4.33283 10.0043Z" fill="#EEF1F4"/>
</svg>
