<svg width="20" height="20" viewBox="0 0 20 20" fill="none" xmlns="http://www.w3.org/2000/svg">
<path fill-rule="evenodd" clip-rule="evenodd" d="M11.5641 2.77114C12.1585 2.23252 12.9374 1.94312 13.7393 1.96286C14.5412 1.98261 15.3049 2.30998 15.8721 2.87721C16.4393 3.44443 16.7667 4.20806 16.7864 5.01C16.8062 5.81193 16.5168 6.59075 15.9781 7.1852C15.9722 7.19172 15.9662 7.19812 15.96 7.20438L8.2022 15.0716C8.19397 15.0799 8.18551 15.088 8.17683 15.0959C7.82016 15.4191 7.35287 15.5927 6.87171 15.5809C6.39055 15.569 5.93237 15.3726 5.59204 15.0322C5.2517 14.6919 5.05528 14.2337 5.04343 13.7526C5.03158 13.2714 5.20522 12.8041 5.52839 12.4474C5.53412 12.4411 5.53997 12.4349 5.54594 12.4289L12.0538 5.81168C12.2958 5.56557 12.6915 5.56227 12.9376 5.80431C13.1837 6.04634 13.187 6.44206 12.945 6.68816L6.44766 13.2947C6.34446 13.4125 6.28919 13.5649 6.29305 13.7218C6.297 13.8822 6.36247 14.0349 6.47592 14.1484C6.58936 14.2618 6.74209 14.3273 6.90248 14.3312C7.05801 14.3351 7.20919 14.2807 7.32662 14.1792L15.06 6.33678C15.3779 5.98128 15.5485 5.51784 15.5368 5.04076C15.525 4.5596 15.3285 4.10142 14.9882 3.76109C14.6479 3.42075 14.1897 3.22433 13.7085 3.21248C13.2328 3.20077 12.7706 3.37037 12.4155 3.68655L4.66788 11.5434C4.08268 12.1286 3.75391 12.9223 3.75391 13.7499C3.75391 14.5775 4.08267 15.3712 4.66787 15.9564C5.25307 16.5416 6.04677 16.8704 6.87436 16.8704C7.70196 16.8704 8.49566 16.5416 9.08086 15.9564L15.4955 9.55744C15.7398 9.31366 16.1356 9.31414 16.3793 9.55852C16.6231 9.80289 16.6226 10.1986 16.3783 10.4424L9.96474 16.8403C9.14512 17.6599 8.03348 18.1204 6.87436 18.1204C5.71525 18.1204 4.6036 17.6599 3.78398 16.8403C2.96436 16.0207 2.50391 14.909 2.50391 13.7499C2.50391 12.5916 2.96376 11.4806 3.78237 10.6612L11.5387 2.79546C11.5469 2.78711 11.5554 2.77901 11.5641 2.77114Z" fill="#EEF1F4"/>
</svg>
