<svg width="24" height="24" viewBox="0 0 24 24" fill="none" xmlns="http://www.w3.org/2000/svg">
<g clip-path="url(#clip0_376_878)">
<path d="M24 12.9889V0H0V24H24V16.9978C23.9466 16.9978 24 12.9889 24 12.9889Z" fill="#006FCF"/>
<path d="M21.0601 11.6524H22.8775V7.42969H20.8997V8.01759L20.5255 7.42969H18.8151V8.178L18.4943 7.42969H15.3406C15.2337 7.42969 15.1268 7.48312 15.02 7.48312C14.9131 7.48312 14.8597 7.53656 14.7527 7.59C14.6458 7.64344 14.5924 7.64344 14.4855 7.69687V7.42969H5.45203L5.18484 8.12456L4.91747 7.42969H2.7795V8.178L2.45888 7.42969H0.748219L0 9.24703V11.6524H1.22944L1.44319 11.0644H1.87078L2.08463 11.6524H11.4923V11.1178L11.8663 11.6524H14.4855V11.3318C14.5389 11.3852 14.6458 11.3852 14.6993 11.4386C14.7528 11.4921 14.8597 11.4921 14.9131 11.5455C15.02 11.5989 15.1269 11.5989 15.2338 11.5989H17.1581L17.3719 11.0109H17.7996L18.0133 11.5989H20.6325V11.0644L21.0601 11.6524ZM24 16.9976V13.0421H9.30066L8.9265 13.5767L8.55234 13.0421H4.27612V17.2648H8.55234L8.9265 16.7303L9.30066 17.2648H11.9733V16.3562H11.8664C12.2405 16.3562 12.5613 16.3027 12.8285 16.1959V17.3183H14.7528V16.7838L15.1269 17.3183H23.0913C23.412 17.2115 23.7327 17.1579 24 16.9976Z" fill="white"/>
<path d="M23.0913 15.9825H21.6481V16.5704H23.0378C23.6258 16.5704 24 16.1963 24 15.6618C24 15.1272 23.6794 14.8599 23.1448 14.8599H22.5034C22.3431 14.8599 22.2361 14.753 22.2361 14.5927C22.2361 14.4324 22.343 14.3254 22.5033 14.3254H23.7327L24 13.7374H22.5568C21.9688 13.7374 21.5947 14.1116 21.5947 14.5927C21.5947 15.1272 21.9153 15.3945 22.4498 15.3945H23.0913C23.2516 15.3945 23.3586 15.5013 23.3586 15.6617C23.412 15.8755 23.305 15.9825 23.0913 15.9825ZM20.4722 15.9825H19.029V16.5704H20.4188C21.0067 16.5704 21.3808 16.1963 21.3808 15.6618C21.3808 15.1272 21.0602 14.8599 20.5256 14.8599H19.8842C19.7239 14.8599 19.617 14.753 19.617 14.5927C19.617 14.4324 19.7239 14.3254 19.8842 14.3254H21.1136L21.3808 13.7374H19.9376C19.3496 13.7374 18.9755 14.1116 18.9755 14.5927C18.9755 15.1272 19.2962 15.3945 19.8307 15.3945H20.4722C20.6325 15.3945 20.7394 15.5013 20.7394 15.6617C20.7928 15.8755 20.6325 15.9825 20.4722 15.9825ZM18.6013 14.272V13.684H16.3564V16.5169H18.6013V15.9289H16.9978V15.341H18.5479V14.753H16.9978V14.2185H18.6013V14.272ZM14.9666 14.272C15.2338 14.272 15.3407 14.4323 15.3407 14.5926C15.3407 14.753 15.2338 14.9133 14.9666 14.9133H14.1648V14.2185L14.9666 14.272ZM14.1648 15.5013H14.4855L15.3408 16.5169H16.1425L15.1804 15.4479C15.6615 15.341 15.9287 15.0203 15.9287 14.5927C15.9287 14.0582 15.5546 13.684 14.9666 13.684H13.4699V16.5169H14.1113L14.1648 15.5013ZM12.4543 14.6462C12.4543 14.8599 12.3474 15.0202 12.0802 15.0202H11.225V14.272H12.0267C12.2939 14.272 12.4543 14.4323 12.4543 14.6461V14.6462ZM10.5835 13.684V16.5169H11.225V15.5548H12.0802C12.6682 15.5548 13.0958 15.1807 13.0958 14.5927C13.0958 14.0582 12.7217 13.6306 12.1336 13.6306L10.5835 13.684ZM9.62138 16.5169H10.4231L9.30066 15.0738L10.4231 13.684H9.62138L8.9265 14.5927L8.23162 13.684H7.42987L8.55234 15.0738L7.42987 16.4635H8.23162L8.9265 15.5548L9.62138 16.5169ZM7.21603 14.272V13.684H4.971V16.5169H7.21603V15.9289H5.61244V15.341H7.16259V14.753H5.61244V14.2185H7.21603V14.272ZM20.2049 9.24747L21.3274 10.9579H22.1292V8.125H21.4878V9.99578L21.3275 9.72859L20.3118 8.125H19.4566V10.9579H20.098V9.03363L20.2049 9.24747ZM17.4254 9.19403L17.6392 8.60603L17.853 9.19403L18.1202 9.83547H17.1581L17.4253 9.19403H17.4254ZM18.5479 10.9579H19.2428L18.0134 8.125H17.1581L15.9287 10.9579H16.6236L16.8908 10.3699H18.2806L18.5479 10.9579ZM15.5545 10.9579L15.8218 10.3699H15.6615C15.1804 10.3699 14.9131 10.0493 14.9131 9.56819V9.51475C14.9131 9.03362 15.1804 8.71291 15.6615 8.71291H16.3564V8.125H15.6081C14.7528 8.125 14.2717 8.71291 14.2717 9.51475V9.56819C14.2717 10.4234 14.7528 10.9579 15.5545 10.9579ZM13.1492 10.9579H13.7906V8.17844H13.1492V10.9579ZM11.7594 8.71291C12.0267 8.71291 12.1336 8.87322 12.1336 9.03363C12.1336 9.19394 12.0267 9.35434 11.7595 9.35434H10.9577V8.65947L11.7594 8.71291ZM10.9577 9.94234H11.2783L12.1336 10.9579H12.9354L11.9733 9.88891C12.4543 9.78203 12.7216 9.46131 12.7216 9.03363C12.7216 8.49916 12.3474 8.125 11.7594 8.125H10.2628V10.9579H10.9042L10.9577 9.94234ZM9.78178 8.71291V8.125H7.53675V10.9579H9.78178V10.3699H8.17819V9.78203H9.72825V9.19403H8.17819V8.65947H9.78178V8.71291ZM4.91756 10.9579H5.50556L6.30731 8.65947V10.9579H6.94875V8.125H5.87972L5.23828 10.0492L4.59684 8.125H3.52781V10.9579H4.16925V8.65947L4.91756 10.9579ZM1.44319 9.19403L1.65694 8.60603L1.87078 9.19403L2.13806 9.83547H1.17591L1.44319 9.19403ZM2.56566 10.9579H3.26062L2.03119 8.125H1.22944L0 10.9579H0.694875L0.962062 10.3699H2.35191L2.56566 10.9579Z" fill="#006FCF"/>
</g>
<defs>
<clipPath id="clip0_376_878">
<rect width="24" height="24" fill="white"/>
</clipPath>
</defs>
</svg>
