<svg width="25" height="24" viewBox="0 0 25 24" fill="none" xmlns="http://www.w3.org/2000/svg">
<path d="M12.75 22C11.3667 22 10.0667 21.7373 8.85 21.212C7.63333 20.6867 6.575 19.9743 5.675 19.075C4.775 18.175 4.06267 17.1167 3.538 15.9C3.01333 14.6833 2.75067 13.3833 2.75 12C2.75 10.6167 3.01267 9.31667 3.538 8.1C4.06333 6.88333 4.77567 5.825 5.675 4.925C6.575 4.025 7.63333 3.31267 8.85 2.788C10.0667 2.26333 11.3667 2.00067 12.75 2C14.1333 2 15.4333 2.26267 16.65 2.788C17.8667 3.31333 18.925 4.02567 19.825 4.925C20.725 5.825 21.4377 6.88333 21.963 8.1C22.4883 9.31667 22.7507 10.6167 22.75 12C22.75 13.3833 22.4873 14.6833 21.962 15.9C21.4367 17.1167 20.7243 18.175 19.825 19.075C18.925 19.975 17.8667 20.6877 16.65 21.213C15.4333 21.7383 14.1333 22.0007 12.75 22ZM12.75 20L12.05 19.3C11.95 19.2 11.875 19.0917 11.825 18.975C11.775 18.8583 11.75 18.7333 11.75 18.6V13C11.2 13 10.729 12.804 10.337 12.412C9.945 12.02 9.74933 11.5493 9.75 11V10L6.625 6.875C6.04167 7.575 5.58333 8.35833 5.25 9.225C4.91667 10.0917 4.75 11.0167 4.75 12C4.75 14.2333 5.525 16.125 7.075 17.675C8.625 19.225 10.5167 20 12.75 20ZM13.75 19.95C15.7333 19.7 17.396 18.825 18.738 17.325C20.08 15.825 20.7507 14.05 20.75 12C20.75 9.78333 19.971 7.89567 18.413 6.337C16.855 4.77833 14.9673 3.99933 12.75 4C12.0167 4 11.3123 4.096 10.637 4.288C9.96167 4.48 9.33267 4.742 8.75 5.074V7H12.3C12.6 7 12.8877 7.06667 13.163 7.2C13.4383 7.33333 13.6673 7.51667 13.85 7.75L15.25 9.5H16.75C17.0333 9.5 17.271 9.596 17.463 9.788C17.655 9.98 17.7507 10.2173 17.75 10.5V11.55C17.75 11.7 17.729 11.8417 17.687 11.975C17.645 12.1083 17.5827 12.2417 17.5 12.375L13.75 18V19.95Z" fill="#FCFCFC"/>
</svg>
