<svg width="68" height="68" viewBox="0 0 68 68" fill="none" xmlns="http://www.w3.org/2000/svg">
<path d="M14.1654 22.6667C17.1712 22.6667 20.0538 23.8608 22.1792 25.9862C24.3047 28.1116 25.4987 30.9943 25.4987 34C25.4987 37.0058 24.3047 39.8885 22.1792 42.0139C20.0538 44.1393 17.1712 45.3334 14.1654 45.3334C11.1596 45.3334 8.2769 44.1393 6.15149 42.0139C4.02608 39.8885 2.83203 37.0058 2.83203 34C2.83203 30.9943 4.02608 28.1116 6.15149 25.9862C8.2769 23.8608 11.1596 22.6667 14.1654 22.6667ZM33.9987 2.83337C37.0045 2.83337 39.8872 4.02742 42.0126 6.15283C44.138 8.27824 45.332 11.1609 45.332 14.1667C45.332 17.1725 44.138 20.0552 42.0126 22.1806C39.8872 24.306 37.0045 25.5 33.9987 25.5C30.9929 25.5 28.1102 24.306 25.9848 22.1806C23.8594 20.0552 22.6654 17.1725 22.6654 14.1667C22.6654 11.1609 23.8594 8.27824 25.9848 6.15283C28.1102 4.02742 30.9929 2.83337 33.9987 2.83337ZM33.9987 42.5C37.0045 42.5 39.8872 43.6941 42.0126 45.8195C44.138 47.9449 45.332 50.8276 45.332 53.8334C45.332 56.8392 44.138 59.7218 42.0126 61.8472C39.8872 63.9727 37.0045 65.1667 33.9987 65.1667C30.9929 65.1667 28.1102 63.9727 25.9848 61.8472C23.8594 59.7218 22.6654 56.8392 22.6654 53.8334C22.6654 50.8276 23.8594 47.9449 25.9848 45.8195C28.1102 43.6941 30.9929 42.5 33.9987 42.5ZM53.832 22.6667C56.8378 22.6667 59.7205 23.8608 61.8459 25.9862C63.9713 28.1116 65.1654 30.9943 65.1654 34C65.1654 37.0058 63.9713 39.8885 61.8459 42.0139C59.7205 44.1393 56.8378 45.3334 53.832 45.3334C50.8262 45.3334 47.9436 44.1393 45.8182 42.0139C43.6927 39.8885 42.4987 37.0058 42.4987 34C42.4987 30.9943 43.6927 28.1116 45.8182 25.9862C47.9436 23.8608 50.8262 22.6667 53.832 22.6667ZM53.832 28.3334C52.3291 28.3334 50.8878 28.9304 49.8251 29.9931C48.7624 31.0558 48.1654 32.4971 48.1654 34C48.1654 35.5029 48.7624 36.9443 49.8251 38.007C50.8878 39.0697 52.3291 39.6667 53.832 39.6667C55.3349 39.6667 56.7763 39.0697 57.839 38.007C58.9017 36.9443 59.4987 35.5029 59.4987 34C59.4987 32.4971 58.9017 31.0558 57.839 29.9931C56.7763 28.9304 55.3349 28.3334 53.832 28.3334ZM33.9987 48.1667C32.4958 48.1667 31.0545 48.7637 29.9918 49.8264C28.9291 50.8891 28.332 52.3305 28.332 53.8334C28.332 55.3363 28.9291 56.7776 29.9918 57.8403C31.0545 58.903 32.4958 59.5 33.9987 59.5C35.5016 59.5 36.9429 58.903 38.0056 57.8403C39.0683 56.7776 39.6654 55.3363 39.6654 53.8334C39.6654 52.3305 39.0683 50.8891 38.0056 49.8264C36.9429 48.7637 35.5016 48.1667 33.9987 48.1667ZM33.9987 8.50004C32.4958 8.50004 31.0545 9.09706 29.9918 10.1598C28.9291 11.2225 28.332 12.6638 28.332 14.1667C28.332 15.6696 28.9291 17.1109 29.9918 18.1736C31.0545 19.2364 32.4958 19.8334 33.9987 19.8334C35.5016 19.8334 36.9429 19.2364 38.0056 18.1736C39.0683 17.1109 39.6654 15.6696 39.6654 14.1667C39.6654 12.6638 39.0683 11.2225 38.0056 10.1598C36.9429 9.09706 35.5016 8.50004 33.9987 8.50004Z" fill="#AFD276"/>
</svg>
