<svg width="69" height="68" viewBox="0 0 69 68" fill="none" xmlns="http://www.w3.org/2000/svg">
<path d="M14.4974 22.6667C17.5032 22.6667 20.3859 23.8608 22.5113 25.9862C24.6367 28.1116 25.8307 30.9943 25.8307 34C25.8307 37.0058 24.6367 39.8885 22.5113 42.0139C20.3859 44.1393 17.5032 45.3334 14.4974 45.3334C11.4916 45.3334 8.60893 44.1393 6.48352 42.0139C4.35811 39.8885 3.16406 37.0058 3.16406 34C3.16406 30.9943 4.35811 28.1116 6.48352 25.9862C8.60893 23.8608 11.4916 22.6667 14.4974 22.6667ZM34.3307 2.83337C37.3365 2.83337 40.2192 4.02742 42.3446 6.15283C44.47 8.27824 45.6641 11.1609 45.6641 14.1667C45.6641 17.1725 44.47 20.0552 42.3446 22.1806C40.2192 24.306 37.3365 25.5 34.3307 25.5C31.3249 25.5 28.4423 24.306 26.3169 22.1806C24.1914 20.0552 22.9974 17.1725 22.9974 14.1667C22.9974 11.1609 24.1914 8.27824 26.3169 6.15283C28.4423 4.02742 31.3249 2.83337 34.3307 2.83337ZM34.3307 42.5C37.3365 42.5 40.2192 43.6941 42.3446 45.8195C44.47 47.9449 45.6641 50.8276 45.6641 53.8334C45.6641 56.8392 44.47 59.7218 42.3446 61.8472C40.2192 63.9727 37.3365 65.1667 34.3307 65.1667C31.3249 65.1667 28.4423 63.9727 26.3169 61.8472C24.1914 59.7218 22.9974 56.8392 22.9974 53.8334C22.9974 50.8276 24.1914 47.9449 26.3169 45.8195C28.4423 43.6941 31.3249 42.5 34.3307 42.5ZM54.1641 22.6667C57.1698 22.6667 60.0525 23.8608 62.1779 25.9862C64.3033 28.1116 65.4974 30.9943 65.4974 34C65.4974 37.0058 64.3033 39.8885 62.1779 42.0139C60.0525 44.1393 57.1698 45.3334 54.1641 45.3334C51.1583 45.3334 48.2756 44.1393 46.1502 42.0139C44.0248 39.8885 42.8307 37.0058 42.8307 34C42.8307 30.9943 44.0248 28.1116 46.1502 25.9862C48.2756 23.8608 51.1583 22.6667 54.1641 22.6667ZM54.1641 28.3334C52.6612 28.3334 51.2198 28.9304 50.1571 29.9931C49.0944 31.0558 48.4974 32.4971 48.4974 34C48.4974 35.5029 49.0944 36.9443 50.1571 38.007C51.2198 39.0697 52.6612 39.6667 54.1641 39.6667C55.667 39.6667 57.1083 39.0697 58.171 38.007C59.2337 36.9443 59.8307 35.5029 59.8307 34C59.8307 32.4971 59.2337 31.0558 58.171 29.9931C57.1083 28.9304 55.667 28.3334 54.1641 28.3334ZM34.3307 48.1667C32.8278 48.1667 31.3865 48.7637 30.3238 49.8264C29.2611 50.8891 28.6641 52.3305 28.6641 53.8334C28.6641 55.3363 29.2611 56.7776 30.3238 57.8403C31.3865 58.903 32.8278 59.5 34.3307 59.5C35.8336 59.5 37.275 58.903 38.3377 57.8403C39.4004 56.7776 39.9974 55.3363 39.9974 53.8334C39.9974 52.3305 39.4004 50.8891 38.3377 49.8264C37.275 48.7637 35.8336 48.1667 34.3307 48.1667Z" fill="#AFD276"/>
</svg>
