<svg width="25" height="25" viewBox="0 0 25 25" fill="none" xmlns="http://www.w3.org/2000/svg">
<path d="M10.4154 15.625L15.8216 12.5L10.4154 9.37504V15.625ZM22.457 7.46879C22.5924 7.95837 22.6862 8.61462 22.7487 9.44796C22.8216 10.2813 22.8529 11 22.8529 11.625L22.9154 12.5C22.9154 14.7813 22.7487 16.4584 22.457 17.5313C22.1966 18.4688 21.5924 19.073 20.6549 19.3334C20.1654 19.4688 19.2695 19.5625 17.8945 19.625C16.5404 19.698 15.3008 19.7292 14.1549 19.7292L12.4987 19.7917C8.13412 19.7917 5.41536 19.625 4.34245 19.3334C3.40495 19.073 2.80078 18.4688 2.54036 17.5313C2.40495 17.0417 2.3112 16.3855 2.2487 15.5521C2.17578 14.7188 2.14453 14 2.14453 13.375L2.08203 12.5C2.08203 10.2188 2.2487 8.54171 2.54036 7.46879C2.80078 6.53129 3.40495 5.92712 4.34245 5.66671C4.83203 5.53129 5.72786 5.43754 7.10287 5.37504C8.45703 5.30212 9.69661 5.27087 10.8424 5.27087L12.4987 5.20837C16.8633 5.20837 19.582 5.37504 20.6549 5.66671C21.5924 5.92712 22.1966 6.53129 22.457 7.46879Z" fill="#EDF1F3"/>
</svg>
