<svg width="25" height="25" viewBox="0 0 25 25" fill="none" xmlns="http://www.w3.org/2000/svg">
<path d="M10.4173 15.6252L15.8236 12.5002L10.4173 9.37516V15.6252ZM22.459 7.46891C22.5944 7.9585 22.6882 8.61474 22.7507 9.44808C22.8236 10.2814 22.8548 11.0002 22.8548 11.6252L22.9173 12.5002C22.9173 14.7814 22.7507 16.4585 22.459 17.5314C22.1986 18.4689 21.5944 19.0731 20.6569 19.3335C20.1673 19.4689 19.2715 19.5627 17.8965 19.6252C16.5423 19.6981 15.3027 19.7293 14.1569 19.7293L12.5007 19.7918C8.13607 19.7918 5.41732 19.6252 4.3444 19.3335C3.4069 19.0731 2.80273 18.4689 2.54232 17.5314C2.4069 17.0418 2.31315 16.3856 2.25065 15.5522C2.17773 14.7189 2.14648 14.0002 2.14648 13.3752L2.08398 12.5002C2.08398 10.2189 2.25065 8.54183 2.54232 7.46891C2.80273 6.53141 3.4069 5.92725 4.3444 5.66683C4.83398 5.53141 5.72982 5.43766 7.10482 5.37516C8.45898 5.30225 9.69857 5.271 10.8444 5.271L12.5007 5.2085C16.8652 5.2085 19.584 5.37516 20.6569 5.66683C21.5944 5.92725 22.1986 6.53141 22.459 7.46891Z" fill="black"/>
</svg>
