<svg width="25" height="25" viewBox="0 0 25 25" fill="none" xmlns="http://www.w3.org/2000/svg">
<path d="M10.4154 15.6249L15.8216 12.4999L10.4154 9.37492V15.6249ZM22.457 7.46867C22.5924 7.95825 22.6862 8.6145 22.7487 9.44783C22.8216 10.2812 22.8529 10.9999 22.8529 11.6249L22.9154 12.4999C22.9154 14.7812 22.7487 16.4582 22.457 17.5312C22.1966 18.4687 21.5924 19.0728 20.6549 19.3332C20.1654 19.4687 19.2695 19.5624 17.8945 19.6249C16.5404 19.6978 15.3008 19.7291 14.1549 19.7291L12.4987 19.7916C8.13412 19.7916 5.41536 19.6249 4.34245 19.3332C3.40495 19.0728 2.80078 18.4687 2.54036 17.5312C2.40495 17.0416 2.3112 16.3853 2.2487 15.552C2.17578 14.7187 2.14453 13.9999 2.14453 13.3749L2.08203 12.4999C2.08203 10.2187 2.2487 8.54158 2.54036 7.46867C2.80078 6.53117 3.40495 5.927 4.34245 5.66659C4.83203 5.53117 5.72786 5.43742 7.10287 5.37492C8.45703 5.302 9.69661 5.27075 10.8424 5.27075L12.4987 5.20825C16.8633 5.20825 19.582 5.37492 20.6549 5.66659C21.5924 5.927 22.1966 6.53117 22.457 7.46867Z" fill="#EDF1F3"/>
</svg>
