<svg width="25" height="25" viewBox="0 0 25 25" fill="none" xmlns="http://www.w3.org/2000/svg">
<path d="M10.4173 15.625L15.8236 12.5L10.4173 9.37504V15.625ZM22.459 7.46879C22.5944 7.95837 22.6882 8.61462 22.7507 9.44796C22.8236 10.2813 22.8548 11 22.8548 11.625L22.9173 12.5C22.9173 14.7813 22.7507 16.4584 22.459 17.5313C22.1986 18.4688 21.5944 19.073 20.6569 19.3334C20.1673 19.4688 19.2715 19.5625 17.8965 19.625C16.5423 19.698 15.3027 19.7292 14.1569 19.7292L12.5007 19.7917C8.13607 19.7917 5.41732 19.625 4.3444 19.3334C3.4069 19.073 2.80273 18.4688 2.54232 17.5313C2.4069 17.0417 2.31315 16.3855 2.25065 15.5521C2.17773 14.7188 2.14648 14 2.14648 13.375L2.08398 12.5C2.08398 10.2188 2.25065 8.54171 2.54232 7.46879C2.80273 6.53129 3.4069 5.92712 4.3444 5.66671C4.83398 5.53129 5.72982 5.43754 7.10482 5.37504C8.45898 5.30212 9.69857 5.27087 10.8444 5.27087L12.5007 5.20837C16.8652 5.20837 19.584 5.37504 20.6569 5.66671C21.5944 5.92712 22.1986 6.53129 22.459 7.46879Z" fill="#EDF1F3"/>
</svg>
