<svg width="24" height="24" viewBox="0 0 24 24" fill="none" xmlns="http://www.w3.org/2000/svg">
<g clip-path="url(#clip0_480_360)">
<path fill-rule="evenodd" clip-rule="evenodd" d="M11.2936 8.29315C11.4812 8.10567 11.7355 8.00036 12.0006 8.00036C12.2658 8.00036 12.5201 8.10567 12.7076 8.29315L18.3646 13.9501C18.4601 14.0424 18.5363 14.1527 18.5887 14.2747C18.6411 14.3967 18.6687 14.528 18.6699 14.6607C18.671 14.7935 18.6457 14.9252 18.5955 15.0481C18.5452 15.171 18.4709 15.2826 18.377 15.3765C18.2831 15.4704 18.1715 15.5447 18.0486 15.595C17.9257 15.6452 17.794 15.6705 17.6612 15.6694C17.5285 15.6682 17.3972 15.6407 17.2752 15.5882C17.1532 15.5358 17.0429 15.4597 16.9506 15.3641L12.0006 10.4141L7.05063 15.3641C6.86203 15.5463 6.60943 15.6471 6.34723 15.6448C6.08504 15.6425 5.83422 15.5374 5.64882 15.352C5.46341 15.1666 5.35824 14.9157 5.35596 14.6535C5.35368 14.3913 5.45447 14.1387 5.63663 13.9501L11.2936 8.29315Z" fill="#FCFCFC"/>
</g>
<defs>
<clipPath id="clip0_480_360">
<rect width="24" height="24" fill="white" transform="matrix(-1 0 0 -1 24 24)"/>
</clipPath>
</defs>
</svg>
