<svg width="205" height="205" viewBox="0 0 205 205" fill="none" xmlns="http://www.w3.org/2000/svg">
<g opacity="0.38" clip-path="url(#clip0_480_748)">
<path d="M39.8415 96.0066C37.7269 90.0502 37.1879 83.6484 38.2768 77.4224C39.3656 71.1963 42.0455 65.3574 46.0562 60.4724C50.0669 55.5873 55.2723 51.822 61.1672 49.5417C67.0622 47.2615 73.4464 46.5438 79.7005 47.4584C85.9546 48.3729 91.866 50.8886 96.8612 54.7612C101.856 58.6339 105.766 63.7321 108.21 69.561C110.654 75.3899 111.55 81.7517 110.81 88.0288C110.071 94.306 107.721 100.285 103.99 105.387C115.972 105.509 127.643 109.214 137.502 116.025C147.361 122.837 154.956 132.442 159.309 143.607C159.727 144.829 159.656 146.165 159.112 147.336C158.567 148.507 157.592 149.423 156.388 149.891C155.185 150.36 153.847 150.345 152.654 149.851C151.461 149.356 150.505 148.419 149.986 147.237C145.264 135.129 136.012 125.336 124.192 119.932C112.372 114.529 98.913 113.94 86.6665 118.291C74.42 122.642 64.3488 131.59 58.5869 143.239C52.8251 154.889 51.8256 168.324 55.8001 180.697C56.1743 181.95 56.043 183.299 55.4344 184.456C54.8258 185.613 53.7883 186.486 52.5442 186.887C51.3 187.288 49.9482 187.186 48.7783 186.603C47.6084 186.02 46.7134 185.001 46.2852 183.766C42.618 172.357 42.4493 160.112 45.8008 148.606C49.1524 137.1 55.8708 126.861 65.0912 119.206C59.3096 117.691 53.9862 114.786 49.5851 110.742C45.184 106.698 41.8389 101.64 39.8415 96.0066ZM65.4657 58.6039C58.8013 60.9715 53.3504 65.8895 50.3121 72.2761C47.2738 78.6626 46.897 85.9946 49.2646 92.659C51.6321 99.3233 56.5502 104.774 62.9367 107.813C69.3233 110.851 76.6552 111.228 83.3196 108.86C89.984 106.492 95.4349 101.574 98.4732 95.1879C101.511 88.8014 101.888 81.4694 99.5207 74.805C97.1531 68.1406 92.2351 62.6897 85.8485 59.6514C79.462 56.6131 72.13 56.2363 65.4657 58.6039ZM126.471 65.2308C125.541 65.5611 124.659 65.9453 123.811 66.3879C123.228 66.7207 122.584 66.9326 121.917 67.011C121.25 67.0893 120.574 67.0326 119.93 66.8441C119.285 66.6557 118.685 66.3393 118.166 65.914C117.646 65.4886 117.218 64.963 116.906 64.3684C116.594 63.7739 116.405 63.1226 116.35 62.4533C116.295 61.7841 116.376 61.1107 116.587 60.4733C116.798 59.8359 117.135 59.2475 117.578 58.7433C118.022 58.2391 118.562 57.8293 119.167 57.5385C125.094 54.4155 131.892 53.352 138.489 54.5153C145.087 55.6787 151.111 59.0028 155.612 63.9645C160.114 68.9263 162.837 75.244 163.355 81.9234C163.873 88.6028 162.154 95.2647 158.471 100.861C167.051 101.546 175.25 104.699 182.078 109.939C188.906 115.18 194.072 122.285 196.952 130.396C197.396 131.646 197.325 133.021 196.756 134.218C196.186 135.416 195.164 136.338 193.914 136.782C192.665 137.225 191.29 137.155 190.093 136.585C188.895 136.015 187.973 134.993 187.529 133.744C185.038 126.734 180.355 120.714 174.175 116.574C167.994 112.433 160.645 110.394 153.214 110.758L149.503 110.945L145.762 100.416L147.872 98.1882C151.002 94.8979 152.933 90.6484 153.352 86.1259C153.771 81.6034 152.653 77.0717 150.179 73.2625C147.706 69.4533 144.021 66.5888 139.719 65.1316C135.417 63.6743 130.75 63.7093 126.471 65.2308Z" fill="#EDF1F3"/>
</g>
<defs>
<clipPath id="clip0_480_748">
<rect width="160" height="160" fill="white" transform="translate(0 53.5615) rotate(-19.558)"/>
</clipPath>
</defs>
</svg>
