<svg width="205" height="205" viewBox="0 0 205 205" fill="none" xmlns="http://www.w3.org/2000/svg">
<g opacity="0.38" clip-path="url(#clip0_480_1006)">
<path d="M39.8396 96.0066C37.7249 90.0502 37.1859 83.6484 38.2748 77.4224C39.3637 71.1963 42.0435 65.3574 46.0542 60.4724C50.065 55.5873 55.2704 51.822 61.1653 49.5417C67.0602 47.2615 73.4445 46.5438 79.6985 47.4584C85.9526 48.3729 91.8641 50.8886 96.8593 54.7612C101.854 58.6339 105.764 63.7321 108.208 69.561C110.652 75.3899 111.548 81.7517 110.808 88.0288C110.069 94.306 107.719 100.285 103.988 105.387C115.97 105.509 127.641 109.214 137.5 116.025C147.359 122.837 154.954 132.442 159.307 143.607C159.725 144.829 159.654 146.165 159.11 147.336C158.565 148.507 157.59 149.423 156.386 149.891C155.183 150.36 153.845 150.345 152.652 149.851C151.459 149.356 150.503 148.419 149.985 147.237C145.262 135.129 136.01 125.336 124.19 119.932C112.37 114.529 98.9111 113.94 86.6646 118.291C74.4181 122.642 64.3468 131.59 58.585 143.239C52.8232 154.889 51.8236 168.324 55.7982 180.697C56.1723 181.95 56.0411 183.299 55.4325 184.456C54.8239 185.613 53.7864 186.486 52.5422 186.887C51.2981 187.288 49.9462 187.186 48.7763 186.603C47.6064 186.02 46.7115 185.001 46.2833 183.766C42.616 172.357 42.4473 160.112 45.7989 148.606C49.1504 137.1 55.8688 126.861 65.0893 119.206C59.3076 117.691 53.9842 114.786 49.5831 110.742C45.1821 106.698 41.837 101.64 39.8396 96.0066ZM65.4637 58.6039C58.7993 60.9715 53.3484 65.8895 50.3101 72.2761C47.2718 78.6626 46.895 85.9946 49.2626 92.659C51.6302 99.3233 56.5482 104.774 62.9348 107.813C69.3213 110.851 76.6533 111.228 83.3176 108.86C89.982 106.492 95.4329 101.574 98.4712 95.1879C101.51 88.8014 101.886 81.4694 99.5188 74.805C97.1512 68.1406 92.2332 62.6897 85.8466 59.6514C79.46 56.6131 72.1281 56.2363 65.4637 58.6039ZM126.469 65.2308C125.539 65.5611 124.657 65.9453 123.809 66.3879C123.226 66.7207 122.582 66.9326 121.915 67.011C121.248 67.0893 120.572 67.0326 119.928 66.8441C119.283 66.6557 118.683 66.3393 118.164 65.914C117.644 65.4886 117.216 64.963 116.904 64.3684C116.592 63.7739 116.403 63.1226 116.348 62.4533C116.293 61.7841 116.374 61.1107 116.585 60.4733C116.796 59.8359 117.133 59.2475 117.576 58.7433C118.02 58.2391 118.56 57.8293 119.165 57.5385C125.093 54.4155 131.89 53.352 138.487 54.5153C145.085 55.6787 151.109 59.0028 155.61 63.9645C160.112 68.9263 162.835 75.244 163.353 81.9234C163.871 88.6028 162.153 95.2647 158.469 100.861C167.049 101.546 175.248 104.699 182.076 109.939C188.904 115.18 194.07 122.285 196.95 130.396C197.394 131.646 197.323 133.021 196.754 134.218C196.184 135.416 195.162 136.338 193.912 136.782C192.663 137.225 191.288 137.155 190.091 136.585C188.893 136.015 187.971 134.993 187.527 133.744C185.036 126.734 180.353 120.714 174.173 116.574C167.992 112.433 160.643 110.394 153.212 110.758L149.501 110.945L145.76 100.416L147.87 98.1882C151 94.8979 152.931 90.6484 153.35 86.1259C153.769 81.6034 152.651 77.0717 150.177 73.2625C147.704 69.4533 144.019 66.5888 139.717 65.1316C135.415 63.6743 130.748 63.7093 126.469 65.2308Z" fill="#EDF1F3"/>
</g>
<defs>
<clipPath id="clip0_480_1006">
<rect width="160" height="160" fill="white" transform="translate(0 53.5615) rotate(-19.558)"/>
</clipPath>
</defs>
</svg>
