<svg width="205" height="205" viewBox="0 0 205 205" fill="none" xmlns="http://www.w3.org/2000/svg">
<g opacity="0.38" clip-path="url(#clip0_480_257)">
<path d="M39.8415 96.0068C37.7269 90.0505 37.1879 83.6487 38.2768 77.4226C39.3656 71.1965 42.0455 65.3577 46.0562 60.4726C50.0669 55.5876 55.2723 51.8222 61.1672 49.542C67.0622 47.2618 73.4464 46.5441 79.7005 47.4586C85.9546 48.3731 91.866 50.8888 96.8612 54.7615C101.856 58.6342 105.766 63.7323 108.21 69.5612C110.654 75.3902 111.55 81.7519 110.81 88.0291C110.071 94.3062 107.721 100.286 103.99 105.387C115.972 105.509 127.643 109.214 137.502 116.026C147.361 122.837 154.956 132.443 159.309 143.607C159.727 144.829 159.656 146.165 159.112 147.336C158.567 148.507 157.592 149.423 156.388 149.891C155.185 150.36 153.847 150.345 152.654 149.851C151.461 149.356 150.505 148.42 149.986 147.237C145.264 135.129 136.012 125.336 124.192 119.933C112.372 114.529 98.913 113.941 86.6665 118.291C74.42 122.642 64.3488 131.59 58.5869 143.24C52.8251 154.889 51.8256 168.324 55.8001 180.698C56.1743 181.95 56.043 183.299 55.4344 184.456C54.8258 185.613 53.7883 186.486 52.5442 186.887C51.3 187.289 49.9482 187.187 48.7783 186.603C47.6084 186.02 46.7134 185.002 46.2852 183.767C42.618 172.357 42.4493 160.112 45.8008 148.606C49.1524 137.1 55.8708 126.861 65.0912 119.206C59.3096 117.692 53.9862 114.786 49.5851 110.742C45.184 106.699 41.8389 101.64 39.8415 96.0068ZM65.4657 58.6042C58.8013 60.9717 53.3504 65.8898 50.3121 72.2763C47.2738 78.6629 46.897 85.9948 49.2646 92.6592C51.6321 99.3236 56.5502 104.775 62.9367 107.813C69.3233 110.851 76.6552 111.228 83.3196 108.86C89.984 106.493 95.4349 101.575 98.4732 95.1882C101.511 88.8016 101.888 81.4697 99.5207 74.8053C97.1531 68.1409 92.2351 62.69 85.8485 59.6517C79.462 56.6134 72.13 56.2366 65.4657 58.6042ZM126.471 65.2311C125.541 65.5614 124.659 65.9456 123.811 66.3881C123.228 66.7209 122.584 66.9328 121.917 67.0112C121.25 67.0896 120.574 67.0329 119.93 66.8444C119.285 66.6559 118.685 66.3396 118.166 65.9142C117.646 65.4889 117.218 64.9633 116.906 64.3687C116.594 63.7741 116.405 63.1228 116.35 62.4536C116.295 61.7844 116.376 61.111 116.587 60.4736C116.798 59.8361 117.135 59.2478 117.578 58.7435C118.022 58.2393 118.562 57.8296 119.167 57.5387C125.094 54.4158 131.892 53.3523 138.489 54.5156C145.087 55.6789 151.111 59.003 155.612 63.9648C160.114 68.9265 162.837 75.2442 163.355 81.9236C163.873 88.6031 162.154 95.265 158.471 100.861C167.051 101.546 175.25 104.699 182.078 109.94C188.906 115.18 194.072 122.285 196.952 130.396C197.396 131.646 197.325 133.021 196.756 134.218C196.186 135.416 195.164 136.338 193.914 136.782C192.665 137.226 191.29 137.155 190.093 136.585C188.895 136.016 187.973 134.994 187.529 133.744C185.038 126.735 180.355 120.714 174.175 116.574C167.994 112.434 160.645 110.395 153.214 110.758L149.503 110.945L145.762 100.416L147.872 98.1884C151.002 94.8981 152.933 90.6487 153.352 86.1262C153.771 81.6036 152.653 77.072 150.179 73.2628C147.706 69.4535 144.021 66.5891 139.719 65.1318C135.417 63.6745 130.75 63.7095 126.471 65.2311Z" fill="#EDF1F3"/>
</g>
<defs>
<clipPath id="clip0_480_257">
<rect width="160" height="160" fill="white" transform="translate(0 53.5618) rotate(-19.558)"/>
</clipPath>
</defs>
</svg>
