<svg width="205" height="205" viewBox="0 0 205 205" fill="none" xmlns="http://www.w3.org/2000/svg">
<g opacity="0.38" clip-path="url(#clip0_480_399)">
<path d="M39.8415 96.0063C37.7269 90.05 37.1879 83.6482 38.2768 77.4221C39.3656 71.196 42.0455 65.3572 46.0562 60.4721C50.0669 55.5871 55.2723 51.8217 61.1672 49.5415C67.0622 47.2613 73.4464 46.5436 79.7005 47.4581C85.9546 48.3727 91.866 50.8883 96.8612 54.761C101.856 58.6337 105.766 63.7318 108.21 69.5608C110.654 75.3897 111.55 81.7514 110.81 88.0286C110.071 94.3057 107.721 100.285 103.99 105.387C115.972 105.509 127.643 109.214 137.502 116.025C147.361 122.836 154.956 132.442 159.309 143.606C159.727 144.828 159.656 146.164 159.112 147.336C158.567 148.507 157.592 149.422 156.388 149.891C155.185 150.36 153.847 150.345 152.654 149.85C151.461 149.356 150.505 148.419 149.986 147.237C145.264 135.129 136.012 125.335 124.192 119.932C112.372 114.529 98.913 113.94 86.6665 118.291C74.42 122.642 64.3488 131.59 58.5869 143.239C52.8251 154.888 51.8256 168.323 55.8001 180.697C56.1743 181.95 56.043 183.299 55.4344 184.456C54.8258 185.613 53.7883 186.485 52.5442 186.887C51.3 187.288 49.9482 187.186 48.7783 186.603C47.6084 186.019 46.7134 185.001 46.2852 183.766C42.618 172.357 42.4493 160.111 45.8008 148.606C49.1524 137.1 55.8708 126.861 65.0912 119.206C59.3096 117.691 53.9862 114.786 49.5851 110.742C45.184 106.698 41.8389 101.639 39.8415 96.0063ZM65.4657 58.6037C58.8013 60.9713 53.3504 65.8893 50.3121 72.2758C47.2738 78.6624 46.897 85.9943 49.2646 92.6587C51.6321 99.3231 56.5502 104.774 62.9367 107.812C69.3233 110.851 76.6552 111.227 83.3196 108.86C89.984 106.492 95.4349 101.574 98.4732 95.1877C101.511 88.8011 101.888 81.4692 99.5207 74.8048C97.1531 68.1404 92.2351 62.6895 85.8485 59.6512C79.462 56.6129 72.13 56.2361 65.4657 58.6037ZM126.471 65.2306C125.541 65.5609 124.659 65.9451 123.811 66.3876C123.228 66.7204 122.584 66.9323 121.917 67.0107C121.25 67.0891 120.574 67.0324 119.93 66.8439C119.285 66.6554 118.685 66.3391 118.166 65.9138C117.646 65.4884 117.218 64.9628 116.906 64.3682C116.594 63.7736 116.405 63.1223 116.35 62.4531C116.295 61.7839 116.376 61.1105 116.587 60.4731C116.798 59.8357 117.135 59.2473 117.578 58.7431C118.022 58.2388 118.562 57.8291 119.167 57.5383C125.094 54.4153 131.892 53.3518 138.489 54.5151C145.087 55.6784 151.111 59.0025 155.612 63.9643C160.114 68.926 162.837 75.2437 163.355 81.9232C163.873 88.6026 162.154 95.2645 158.471 100.86C167.051 101.545 175.25 104.698 182.078 109.939C188.906 115.18 194.072 122.285 196.952 130.396C197.396 131.646 197.325 133.02 196.756 134.218C196.186 135.415 195.164 136.337 193.914 136.781C192.665 137.225 191.29 137.155 190.093 136.585C188.895 136.015 187.973 134.993 187.529 133.744C185.038 126.734 180.355 120.713 174.175 116.573C167.994 112.433 160.645 110.394 153.214 110.758L149.503 110.945L145.762 100.416L147.872 98.1879C151.002 94.8976 152.933 90.6482 153.352 86.1257C153.771 81.6032 152.653 77.0715 150.179 73.2623C147.706 69.453 144.021 66.5886 139.719 65.1313C135.417 63.674 130.75 63.709 126.471 65.2306Z" fill="#EDF1F3"/>
</g>
<defs>
<clipPath id="clip0_480_399">
<rect width="160" height="160" fill="white" transform="translate(0 53.5615) rotate(-19.558)"/>
</clipPath>
</defs>
</svg>
