<svg width="63" height="81" viewBox="0 0 63 81" fill="none" xmlns="http://www.w3.org/2000/svg">
<path fill-rule="evenodd" clip-rule="evenodd" d="M22.5182 74.259C22.5902 75.4245 21.7037 76.4235 20.5247 76.518H20.2592H6.75919C5.59369 76.59 4.59019 75.7035 4.50019 74.5245V74.259V6.759C4.42819 5.5935 5.31469 4.59 6.49369 4.5H6.75919H20.2592C21.4247 4.428 22.4282 5.3145 22.5182 6.4935V6.759V74.259ZM58.5182 6.777C58.5902 5.6115 57.7037 4.6035 56.5247 4.518H56.2592H42.7592C41.5937 4.446 40.5902 5.3325 40.5002 6.5115V6.777V74.277C40.4282 75.4425 41.3102 76.4415 42.4937 76.536H42.7592H56.2592C57.4202 76.6035 58.4282 75.7215 58.5182 74.538V74.277V6.777Z" fill="#EDF1F3"/>
</svg>
