<svg width="25" height="24" viewBox="0 0 25 24" fill="none" xmlns="http://www.w3.org/2000/svg">
<path opacity="0.2" d="M21.25 12C21.25 13.78 20.7222 15.5201 19.7332 17.0001C18.7443 18.4802 17.3387 19.6337 15.6942 20.3149C14.0496 20.9961 12.24 21.1743 10.4942 20.8271C8.74836 20.4798 7.14472 19.6226 5.88604 18.364C4.62737 17.1053 3.7702 15.5016 3.42294 13.7558C3.07567 12.01 3.2539 10.2004 3.93509 8.55585C4.61628 6.91131 5.76983 5.50571 7.24987 4.51677C8.72991 3.52784 10.47 3 12.25 3C14.637 3 16.9261 3.94821 18.614 5.63604C20.3018 7.32387 21.25 9.61305 21.25 12Z" fill="#FCFCFC"/>
<path d="M12.25 2.25C10.3216 2.25 8.43657 2.82183 6.83319 3.89317C5.22982 4.96451 3.98013 6.48726 3.24218 8.26884C2.50422 10.0504 2.31114 12.0108 2.68735 13.9021C3.06355 15.7934 3.99215 17.5307 5.35571 18.8943C6.71928 20.2579 8.45656 21.1865 10.3479 21.5627C12.2392 21.9389 14.1996 21.7458 15.9812 21.0078C17.7627 20.2699 19.2855 19.0202 20.3568 17.4168C21.4282 15.8134 22 13.9284 22 12C21.9973 9.41498 20.9692 6.93661 19.1413 5.10872C17.3134 3.28084 14.835 2.25273 12.25 2.25ZM12.25 20.25C10.6183 20.25 9.02326 19.7661 7.66655 18.8596C6.30984 17.9531 5.25242 16.6646 4.628 15.1571C4.00358 13.6496 3.8402 11.9908 4.15853 10.3905C4.47685 8.79016 5.26259 7.32015 6.41637 6.16637C7.57016 5.01259 9.04017 4.22685 10.6405 3.90852C12.2409 3.59019 13.8997 3.75357 15.4071 4.37799C16.9146 5.00242 18.2031 6.05984 19.1096 7.41655C20.0161 8.77325 20.5 10.3683 20.5 12C20.4975 14.1873 19.6275 16.2843 18.0809 17.8309C16.5343 19.3775 14.4373 20.2475 12.25 20.25ZM18.25 12C18.25 12.1989 18.171 12.3897 18.0303 12.5303C17.8897 12.671 17.6989 12.75 17.5 12.75H12.25C12.0511 12.75 11.8603 12.671 11.7197 12.5303C11.579 12.3897 11.5 12.1989 11.5 12V6.75C11.5 6.55109 11.579 6.36032 11.7197 6.21967C11.8603 6.07902 12.0511 6 12.25 6C12.4489 6 12.6397 6.07902 12.7803 6.21967C12.921 6.36032 13 6.55109 13 6.75V11.25H17.5C17.6989 11.25 17.8897 11.329 18.0303 11.4697C18.171 11.6103 18.25 11.8011 18.25 12Z" fill="#FCFCFC"/>
</svg>
