<svg width="25" height="24" viewBox="0 0 25 24" fill="none" xmlns="http://www.w3.org/2000/svg">
<path opacity="0.2" d="M21.25 12C21.25 13.78 20.7222 15.5201 19.7332 17.0001C18.7443 18.4802 17.3387 19.6337 15.6942 20.3149C14.0496 20.9961 12.24 21.1743 10.4942 20.8271C8.74836 20.4798 7.14472 19.6226 5.88604 18.364C4.62737 17.1053 3.7702 15.5016 3.42294 13.7558C3.07567 12.01 3.2539 10.2004 3.93509 8.55585C4.61628 6.91131 5.76983 5.50571 7.24987 4.51677C8.72991 3.52784 10.47 3 12.25 3C14.637 3 16.9261 3.94821 18.614 5.63604C20.3018 7.32387 21.25 9.61305 21.25 12Z" fill="#FCFCFC"/>
<path d="M12.25 2.25C10.3216 2.25 8.43657 2.82183 6.83319 3.89317C5.22982 4.96451 3.98013 6.48726 3.24218 8.26884C2.50422 10.0504 2.31114 12.0108 2.68735 13.9021C3.06355 15.7934 3.99215 17.5307 5.35571 18.8943C6.71928 20.2579 8.45656 21.1865 10.3479 21.5627C12.2392 21.9389 14.1996 21.7458 15.9812 21.0078C17.7627 20.2699 19.2855 19.0202 20.3568 17.4168C21.4282 15.8134 22 13.9284 22 12C21.9973 9.41498 20.9692 6.93661 19.1413 5.10872C17.3134 3.28084 14.835 2.25273 12.25 2.25ZM9.77782 15.75H14.7222C14.2188 17.4694 13.375 19.0191 12.25 20.2397C11.125 19.0191 10.2813 17.4694 9.77782 15.75ZM9.4375 14.25C9.18876 12.7603 9.18876 11.2397 9.4375 9.75H15.0625C15.3113 11.2397 15.3113 12.7603 15.0625 14.25H9.4375ZM4 12C3.99935 11.2392 4.10442 10.4819 4.31219 9.75H7.91782C7.69407 11.2417 7.69407 12.7583 7.91782 14.25H4.31219C4.10442 13.5181 3.99935 12.7608 4 12ZM14.7222 8.25H9.77782C10.2813 6.53062 11.125 4.98094 12.25 3.76031C13.375 4.98094 14.2188 6.53062 14.7222 8.25ZM16.5822 9.75H20.1878C20.6041 11.2211 20.6041 12.7789 20.1878 14.25H16.5822C16.8059 12.7583 16.8059 11.2417 16.5822 9.75ZM19.5972 8.25H16.2756C15.8929 6.74392 15.2501 5.31623 14.3763 4.03125C15.4927 4.33127 16.5339 4.86162 17.4331 5.58818C18.3323 6.31475 19.0694 7.22146 19.5972 8.25ZM10.1238 4.03125C9.2499 5.31623 8.60713 6.74392 8.22438 8.25H4.90282C5.43056 7.22146 6.16772 6.31475 7.06689 5.58818C7.96606 4.86162 9.00733 4.33127 10.1238 4.03125ZM4.90282 15.75H8.22438C8.60713 17.2561 9.2499 18.6838 10.1238 19.9688C9.00733 19.6687 7.96606 19.1384 7.06689 18.4118C6.16772 17.6852 5.43056 16.7785 4.90282 15.75ZM14.3763 19.9688C15.2501 18.6838 15.8929 17.2561 16.2756 15.75H19.5972C19.0694 16.7785 18.3323 17.6852 17.4331 18.4118C16.5339 19.1384 15.4927 19.6687 14.3763 19.9688Z" fill="#FCFCFC"/>
</svg>
