<svg width="69" height="68" viewBox="0 0 69 68" fill="none" xmlns="http://www.w3.org/2000/svg">
<path opacity="0.2" d="M43.168 19.125V57.375L26.168 48.875V10.625L43.168 19.125Z" fill="#AFD276"/>
<path d="M61.4748 13.199C61.2203 13.0006 60.9239 12.8629 60.6082 12.7961C60.2925 12.7294 59.9657 12.7354 59.6527 12.8138L43.415 16.8726L27.1189 8.72318C26.6649 8.4967 26.1448 8.44017 25.6527 8.5638L8.65266 12.8138C8.19293 12.9287 7.78481 13.194 7.49316 13.5675C7.2015 13.9409 7.04304 14.4012 7.04297 14.8751V53.1251C7.04302 53.4479 7.11665 53.7666 7.25828 54.0568C7.3999 54.347 7.60579 54.601 7.86031 54.7997C8.11483 54.9984 8.41129 55.1365 8.72716 55.2035C9.04304 55.2705 9.37002 55.2646 9.68328 55.1863L25.9209 51.1276L42.217 59.2769C42.5129 59.4228 42.8381 59.4991 43.168 59.5001C43.3417 59.4999 43.5148 59.4785 43.6833 59.4363L60.6833 55.1863C61.143 55.0714 61.5511 54.8061 61.8428 54.4326C62.1344 54.0592 62.2929 53.5989 62.293 53.1251V14.8751C62.293 14.5519 62.2194 14.2329 62.0776 13.9425C61.9358 13.652 61.7297 13.3977 61.4748 13.199ZM28.293 14.0622L41.043 20.4372V53.9379L28.293 47.5629V14.0622ZM11.293 16.5352L24.043 13.3477V47.2149L11.293 50.4024V16.5352ZM58.043 51.4649L45.293 54.6524V20.7852L58.043 17.5977V51.4649Z" fill="#AFD276"/>
</svg>
