<svg width="25" height="25" viewBox="0 0 25 25" fill="none" xmlns="http://www.w3.org/2000/svg">
<path d="M24.2178 10.1562C24.2177 9.55739 24.0455 8.9712 23.7217 8.46742C23.3979 7.96365 22.9363 7.56351 22.3916 7.31463C21.8469 7.06575 21.2422 6.97861 20.6494 7.06358C20.0566 7.14855 19.5007 7.40206 19.0479 7.79393C17.4122 6.92479 15.4581 6.3994 13.417 6.27733L13.9239 3.23338L15.6543 3.49901C15.7421 4.04487 16.0201 4.54213 16.439 4.90289C16.858 5.26365 17.391 5.46468 17.9439 5.47045C18.4967 5.47623 19.0338 5.28637 19.4602 4.93444C19.8866 4.58251 20.1749 4.09117 20.2741 3.54725C20.3733 3.00334 20.277 2.44187 20.0022 1.9621C19.7274 1.48232 19.2919 1.11512 18.7726 0.925393C18.2533 0.735671 17.6836 0.735643 17.1643 0.925314C16.645 1.11499 16.2094 1.48214 15.9346 1.9619L13.3956 1.57127C13.1924 1.53995 12.9851 1.58994 12.8186 1.7104C12.6521 1.83087 12.5397 2.0121 12.5059 2.21483L11.835 6.26561C9.7022 6.35741 7.65337 6.88866 5.95024 7.79393C5.32827 7.26851 4.5258 7.00658 3.71362 7.06389C2.90145 7.1212 2.14371 7.49323 1.60169 8.10079C1.05967 8.70835 0.776178 9.50346 0.811546 10.3169C0.846915 11.1303 1.19836 11.8978 1.79106 12.456C1.63916 12.978 1.5619 13.5189 1.56157 14.0625C1.56157 16.2041 2.73345 18.1982 4.87309 19.6767C6.92095 21.0937 9.62895 21.875 12.4991 21.875C15.3692 21.875 18.0772 21.0937 20.125 19.6767C22.2647 18.1982 23.4366 16.2041 23.4366 14.0625C23.4362 13.5189 23.359 12.978 23.2071 12.456C23.5247 12.1629 23.7785 11.8073 23.9524 11.4116C24.1263 11.0159 24.2167 10.5885 24.2178 10.1562ZM17.9678 2.34373C18.1223 2.34373 18.2734 2.38955 18.4019 2.4754C18.5303 2.56124 18.6305 2.68326 18.6896 2.82601C18.7487 2.96877 18.7642 3.12585 18.7341 3.2774C18.7039 3.42894 18.6295 3.56815 18.5202 3.67741C18.411 3.78667 18.2718 3.86108 18.1202 3.89122C17.9687 3.92137 17.8116 3.90589 17.6688 3.84676C17.5261 3.78763 17.4041 3.6875 17.3182 3.55902C17.2324 3.43055 17.1866 3.2795 17.1866 3.12498C17.1866 2.91778 17.2689 2.71907 17.4154 2.57256C17.5619 2.42604 17.7606 2.34373 17.9678 2.34373ZM7.03032 12.5C7.03032 12.191 7.12196 11.8889 7.29365 11.6319C7.46534 11.375 7.70937 11.1747 7.99488 11.0564C8.28039 10.9382 8.59455 10.9072 8.89765 10.9675C9.20074 11.0278 9.47916 11.1766 9.69767 11.3951C9.91619 11.6137 10.065 11.8921 10.1253 12.1952C10.1856 12.4983 10.1546 12.8124 10.0364 13.0979C9.91812 13.3834 9.71785 13.6275 9.4609 13.7992C9.20395 13.9708 8.90185 14.0625 8.59282 14.0625C8.17842 14.0625 7.78099 13.8979 7.48797 13.6048C7.19494 13.3118 7.03032 12.9144 7.03032 12.5ZM15.9903 17.8779C14.9153 18.4492 13.7165 18.748 12.4991 18.748C11.2817 18.748 10.0829 18.4492 9.00786 17.8779C8.91719 17.8298 8.83688 17.7643 8.77152 17.6852C8.70616 17.6061 8.65702 17.5149 8.62691 17.4167C8.59681 17.3186 8.58632 17.2155 8.59605 17.1134C8.60579 17.0112 8.63555 16.9119 8.68364 16.8213C8.73173 16.7306 8.79721 16.6503 8.87634 16.5849C8.95547 16.5196 9.0467 16.4704 9.14481 16.4403C9.24293 16.4102 9.34602 16.3997 9.44819 16.4095C9.55036 16.4192 9.64961 16.449 9.74028 16.4971C10.5897 16.9487 11.537 17.1848 12.4991 17.1848C13.4611 17.1848 14.4084 16.9487 15.2579 16.4971C15.3485 16.449 15.4478 16.4192 15.55 16.4095C15.6521 16.3997 15.7552 16.4102 15.8533 16.4403C15.9514 16.4704 16.0427 16.5196 16.1218 16.5849C16.2009 16.6503 16.2664 16.7306 16.3145 16.8213C16.3626 16.9119 16.3924 17.0112 16.4021 17.1134C16.4118 17.2155 16.4013 17.3186 16.3712 17.4167C16.3411 17.5149 16.292 17.6061 16.2266 17.6852C16.1613 17.7643 16.0809 17.8298 15.9903 17.8779ZM16.4053 14.0625C16.0963 14.0625 15.7942 13.9708 15.5372 13.7992C15.2803 13.6275 15.08 13.3834 14.9618 13.0979C14.8435 12.8124 14.8126 12.4983 14.8728 12.1952C14.9331 11.8921 15.0819 11.6137 15.3005 11.3951C15.519 11.1766 15.7974 11.0278 16.1005 10.9675C16.4036 10.9072 16.7178 10.9382 17.0033 11.0564C17.2888 11.1747 17.5328 11.375 17.7045 11.6319C17.8762 11.8889 17.9678 12.191 17.9678 12.5C17.9678 12.9144 17.8032 13.3118 17.5102 13.6048C17.2171 13.8979 16.8197 14.0625 16.4053 14.0625Z" fill="#EDF1F3"/>
</svg>
