<svg width="25" height="25" viewBox="0 0 25 25" fill="none" xmlns="http://www.w3.org/2000/svg">
<path d="M24.2178 10.1564C24.2177 9.55751 24.0455 8.97132 23.7217 8.46754C23.3979 7.96377 22.9363 7.56363 22.3916 7.31475C21.8469 7.06587 21.2422 6.97873 20.6494 7.0637C20.0566 7.14868 19.5007 7.40218 19.0479 7.79405C17.4122 6.92491 15.4581 6.39952 13.417 6.27745L13.9239 3.2335L15.6543 3.49913C15.7421 4.045 16.0201 4.54225 16.439 4.90301C16.858 5.26377 17.391 5.4648 17.9439 5.47058C18.4967 5.47635 19.0338 5.28649 19.4602 4.93456C19.8866 4.58264 20.1749 4.09129 20.2741 3.54738C20.3733 3.00346 20.277 2.442 20.0022 1.96222C19.7274 1.48244 19.2919 1.11524 18.7726 0.925515C18.2533 0.735793 17.6836 0.735765 17.1643 0.925437C16.645 1.11511 16.2094 1.48227 15.9346 1.96202L13.3956 1.57139C13.1924 1.54007 12.9851 1.59006 12.8186 1.71052C12.6521 1.83099 12.5397 2.01222 12.5059 2.21495L11.835 6.26573C9.7022 6.35753 7.65337 6.88878 5.95024 7.79405C5.32827 7.26863 4.5258 7.0067 3.71362 7.06401C2.90145 7.12132 2.14371 7.49335 1.60169 8.10091C1.05967 8.70847 0.776178 9.50358 0.811546 10.317C0.846915 11.1304 1.19836 11.8979 1.79106 12.4562C1.63916 12.9781 1.5619 13.519 1.56157 14.0626C1.56157 16.2042 2.73345 18.1984 4.87309 19.6769C6.92095 21.0939 9.62895 21.8751 12.4991 21.8751C15.3692 21.8751 18.0772 21.0939 20.125 19.6769C22.2647 18.1984 23.4366 16.2042 23.4366 14.0626C23.4362 13.519 23.359 12.9781 23.2071 12.4562C23.5247 12.163 23.7785 11.8074 23.9524 11.4117C24.1263 11.016 24.2167 10.5886 24.2178 10.1564ZM17.9678 2.34385C18.1223 2.34385 18.2734 2.38967 18.4019 2.47552C18.5303 2.56136 18.6305 2.68338 18.6896 2.82613C18.7487 2.96889 18.7642 3.12597 18.7341 3.27752C18.7039 3.42907 18.6295 3.56827 18.5202 3.67753C18.411 3.78679 18.2718 3.8612 18.1202 3.89134C17.9687 3.92149 17.8116 3.90602 17.6688 3.84689C17.5261 3.78776 17.4041 3.68762 17.3182 3.55914C17.2324 3.43067 17.1866 3.27962 17.1866 3.1251C17.1866 2.9179 17.2689 2.71919 17.4154 2.57268C17.5619 2.42616 17.7606 2.34385 17.9678 2.34385ZM7.03032 12.5001C7.03032 12.1911 7.12196 11.889 7.29365 11.632C7.46534 11.3751 7.70937 11.1748 7.99488 11.0565C8.28039 10.9383 8.59455 10.9073 8.89765 10.9676C9.20074 11.0279 9.47916 11.1767 9.69767 11.3953C9.91619 11.6138 10.065 11.8922 10.1253 12.1953C10.1856 12.4984 10.1546 12.8125 10.0364 13.0981C9.91812 13.3836 9.71785 13.6276 9.4609 13.7993C9.20395 13.971 8.90185 14.0626 8.59282 14.0626C8.17842 14.0626 7.78099 13.898 7.48797 13.605C7.19494 13.3119 7.03032 12.9145 7.03032 12.5001ZM15.9903 17.878C14.9153 18.4493 13.7165 18.7481 12.4991 18.7481C11.2817 18.7481 10.0829 18.4493 9.00786 17.878C8.91719 17.8299 8.83688 17.7645 8.77152 17.6853C8.70616 17.6062 8.65702 17.515 8.62691 17.4169C8.59681 17.3187 8.58632 17.2157 8.59605 17.1135C8.60579 17.0113 8.63555 16.9121 8.68364 16.8214C8.73173 16.7307 8.79721 16.6504 8.87634 16.5851C8.95547 16.5197 9.0467 16.4706 9.14481 16.4404C9.24293 16.4103 9.34602 16.3999 9.44819 16.4096C9.55036 16.4193 9.64961 16.4491 9.74028 16.4972C10.5897 16.9488 11.537 17.1849 12.4991 17.1849C13.4611 17.1849 14.4084 16.9488 15.2579 16.4972C15.3485 16.4491 15.4478 16.4193 15.55 16.4096C15.6521 16.3999 15.7552 16.4103 15.8533 16.4404C15.9514 16.4706 16.0427 16.5197 16.1218 16.5851C16.2009 16.6504 16.2664 16.7307 16.3145 16.8214C16.3626 16.9121 16.3924 17.0113 16.4021 17.1135C16.4118 17.2157 16.4013 17.3187 16.3712 17.4169C16.3411 17.515 16.292 17.6062 16.2266 17.6853C16.1613 17.7645 16.0809 17.8299 15.9903 17.878ZM16.4053 14.0626C16.0963 14.0626 15.7942 13.971 15.5372 13.7993C15.2803 13.6276 15.08 13.3836 14.9618 13.0981C14.8435 12.8125 14.8126 12.4984 14.8728 12.1953C14.9331 11.8922 15.0819 11.6138 15.3005 11.3953C15.519 11.1767 15.7974 11.0279 16.1005 10.9676C16.4036 10.9073 16.7178 10.9383 17.0033 11.0565C17.2888 11.1748 17.5328 11.3751 17.7045 11.632C17.8762 11.889 17.9678 12.1911 17.9678 12.5001C17.9678 12.9145 17.8032 13.3119 17.5102 13.605C17.2171 13.898 16.8197 14.0626 16.4053 14.0626Z" fill="#211D19"/>
</svg>
