<svg width="201" height="197" viewBox="0 0 201 197" fill="none" xmlns="http://www.w3.org/2000/svg">
<g opacity="0.38" clip-path="url(#clip0_480_1004)">
<path d="M173.154 65.3736L146.648 58.3545L148.465 51.4942C149.951 45.8812 149.281 40.6425 146.453 35.7781C143.626 30.9137 139.405 27.7383 133.792 26.2519L106.975 19.1502C101.362 17.6638 96.1232 18.3343 91.2588 21.1618C86.3944 23.9892 83.219 28.2094 81.7326 33.8224L79.9159 40.6827L53.4102 33.6636C47.7972 32.1772 42.5723 32.7957 37.7354 35.5192C32.8986 38.2428 29.7094 42.515 28.168 48.3358L21.1488 74.8415C19.9927 79.2072 21.5975 81.968 25.9631 83.1241L11.8423 136.447C10.9064 139.981 11.4319 143.458 13.4187 146.876C15.4056 150.294 18.1661 152.471 21.7002 153.407L141.444 185.117C144.978 186.053 148.454 185.527 151.872 183.541C155.29 181.554 157.467 178.793 158.403 175.259L172.524 121.936C176.89 123.092 179.651 121.487 180.807 117.122L187.826 90.6158C189.367 84.795 188.711 79.5043 185.856 74.7439C183.001 69.9834 178.767 66.86 173.154 65.3736ZM95.1414 37.3733C95.6369 35.5023 96.6734 34.1083 98.2511 33.1913C99.8287 32.2743 101.553 32.0635 103.424 32.559L130.242 39.6607C132.113 40.1562 133.507 41.1927 134.424 42.7703C135.341 44.348 135.551 46.0723 135.056 47.9433L133.239 54.8036L93.3247 44.2336L95.1414 37.3733ZM25.251 139.998L39.3719 86.675L79.2864 97.245L74.0014 117.202C73.0104 120.944 73.4702 124.459 75.3807 127.745C77.2911 131.032 80.1173 133.171 83.8593 134.162L96.9562 137.63C100.698 138.621 104.213 138.161 107.499 136.251C110.786 134.34 112.925 131.514 113.916 127.772L119.201 107.815L159.115 118.385L144.994 171.708L25.251 139.998ZM87.4102 120.753L92.6952 100.796L105.792 104.264L100.507 124.221L87.4102 120.753ZM169.132 107.022L36.2917 71.8439L41.5767 51.8867C42.7879 47.3131 45.5763 45.6044 49.9419 46.7605L169.685 78.4705C174.051 79.6266 175.628 82.4914 174.417 87.065L169.132 107.022Z" fill="#EDF1F3"/>
</g>
<defs>
<clipPath id="clip0_480_1004">
<rect width="165.175" height="160" fill="white" transform="translate(40.9609) rotate(14.8324)"/>
</clipPath>
</defs>
</svg>
