<svg width="69" height="68" viewBox="0 0 69 68" fill="none" xmlns="http://www.w3.org/2000/svg">
<path d="M60.0006 22.6667C61.5035 22.6667 62.9449 23.2637 64.0076 24.3264C65.0703 25.3891 65.6673 26.8305 65.6673 28.3334V39.6667C65.6673 41.1696 65.0703 42.6109 64.0076 43.6736C62.9449 44.7364 61.5035 45.3334 60.0006 45.3334H56.9916C56.3009 50.8111 53.6349 55.8484 49.4939 59.5C45.353 63.1517 40.0217 65.1666 34.5007 65.1667V59.5C39.0093 59.5 43.3334 57.709 46.5215 54.5209C49.7096 51.3327 51.5006 47.0087 51.5006 42.5V25.5C51.5006 20.9914 49.7096 16.6673 46.5215 13.4792C43.3334 10.2911 39.0093 8.50004 34.5007 8.50004C29.992 8.50004 25.668 10.2911 22.4798 13.4792C19.2917 16.6673 17.5007 20.9914 17.5007 25.5V45.3334H9.00065C7.49776 45.3334 6.05642 44.7364 4.99371 43.6736C3.93101 42.6109 3.33398 41.1696 3.33398 39.6667V28.3334C3.33398 26.8305 3.93101 25.3891 4.99371 24.3264C6.05642 23.2637 7.49776 22.6667 9.00065 22.6667H12.0097C12.7011 17.1896 15.3674 12.153 19.5083 8.50196C23.6492 4.85093 28.9801 2.83643 34.5007 2.83643C40.0212 2.83643 45.3521 4.85093 49.493 8.50196C53.6339 12.153 56.3002 17.1896 56.9916 22.6667H60.0006ZM22.4873 44.7242L25.4907 39.9189C28.191 41.6105 31.3142 42.5052 34.5007 42.5C37.6871 42.5052 40.8103 41.6105 43.5107 39.9189L46.514 44.7242C42.9136 46.98 38.7494 48.1732 34.5007 48.1667C30.2519 48.1734 26.0877 46.9801 22.4873 44.7242Z" fill="#EDF1F3"/>
</svg>
