<svg width="193" height="183" viewBox="0 0 193 183" fill="none" xmlns="http://www.w3.org/2000/svg">
<path d="M183 97C183 85.575 180.347 74.5553 176 64C171.653 53.4447 166.032 43.0787 158 35C149.968 26.9213 140.495 21.3722 130 17C119.505 12.6278 108.359 10 97 10C85.6407 9.99999 73.4947 12.6278 63 17C52.5053 21.3722 43.0323 26.9213 35 35C26.9677 43.0787 21.347 53.4447 17 64C12.653 74.5553 10 85.575 10 97" stroke="#35322F" stroke-width="19.2727" stroke-linecap="round" stroke-linejoin="round"/>
<path d="M10 96.5C10 78.233 15.783 60.4349 26.52 45.6566C37.2571 30.8782 52.3971 19.8784 69.77 14.2336C87.143 8.58879 105.857 8.5888 123.23 14.2336C140.603 19.8784 155.743 30.8783 166.48 45.6566" stroke="#AFD275" stroke-width="19.2727" stroke-linecap="round" stroke-linejoin="round"/>
</svg>
