<svg width="193" height="183" viewBox="0 0 193 183" fill="none" xmlns="http://www.w3.org/2000/svg">
<path d="M183 97C183 85.575 180.347 74.5553 176 64C171.653 53.4447 166.032 43.0787 158 35C149.968 26.9213 140.495 21.3722 130 17C119.505 12.6278 108.359 10 97 10C85.6407 9.99999 73.4947 12.6278 63 17C52.5053 21.3722 43.0323 26.9213 35 35C26.9677 43.0787 21.347 53.4447 17 64C12.653 74.5553 10 85.575 10 97" stroke="#35322F" stroke-width="19.2727" stroke-linecap="round" stroke-linejoin="round"/>
<path d="M10 96.5C10 80.5475 14.4115 64.9056 22.7466 51.3039C31.0818 37.7021 43.016 26.6702 57.2298 19.4279C71.4436 12.1856 87.3834 9.01503 103.287 10.2667C119.19 11.5183 134.438 17.1434 147.343 26.52" stroke="#AFD275" stroke-width="19.2727" stroke-linecap="round" stroke-linejoin="round"/>
</svg>
