<svg width="193" height="183" viewBox="0 0 193 183" fill="none" xmlns="http://www.w3.org/2000/svg">
<path d="M182.668 97C182.668 85.575 180.015 74.5553 175.668 64C171.321 53.4447 165.7 43.0787 157.668 35C149.636 26.9213 140.163 21.3722 129.668 17C119.173 12.6278 108.027 10 96.668 10C85.3086 9.99999 73.1626 12.6278 62.668 17C52.1733 21.3722 42.7002 26.9213 34.668 35C26.6357 43.0787 21.015 53.4447 16.668 64C12.3209 74.5553 9.66797 85.575 9.66797 97" stroke="#35322F" stroke-width="19.2727" stroke-linecap="round" stroke-linejoin="round"/>
<path d="M9.66797 96.5C9.66797 85.1407 11.9054 73.8925 16.2524 63.3979C20.5994 52.9032 26.971 43.3675 35.0032 35.3353C43.0355 27.303 52.5712 20.9314 63.0659 16.5844C73.5605 12.2374 84.8086 10 96.168 10C107.527 10 118.775 12.2374 129.27 16.5844C139.765 20.9315 149.3 27.303 157.333 35.3353C165.365 43.3675 171.737 52.9032 176.084 63.3979C180.431 73.8926 182.668 85.1407 182.668 96.5" stroke="#AFD275" stroke-width="19.2727" stroke-linecap="round" stroke-linejoin="round"/>
</svg>
