<svg width="193" height="183" viewBox="0 0 193 183" fill="none" xmlns="http://www.w3.org/2000/svg">
<path d="M182.668 97C182.668 85.575 180.015 74.5553 175.668 64C171.321 53.4447 165.7 43.0787 157.668 35C149.636 26.9213 140.163 21.3722 129.668 17C119.173 12.6278 108.027 10 96.668 10C85.3086 9.99999 73.1626 12.6278 62.668 17C52.1733 21.3722 42.7002 26.9213 34.668 35C26.6357 43.0787 21.015 53.4447 16.668 64C12.3209 74.5553 9.66797 85.575 9.66797 97" stroke="#35322F" stroke-width="19.2727" stroke-linecap="round" stroke-linejoin="round"/>
<path d="M9.66797 96.5C9.66797 82.8494 12.8987 69.3926 19.0959 57.2298C25.2932 45.067 34.281 34.5436 45.3246 26.52C56.3681 18.4964 69.1539 13.2004 82.6364 11.065C96.1189 8.92953 109.915 10.0153 122.898 14.2336" stroke="#AFD275" stroke-width="19.2727" stroke-linecap="round" stroke-linejoin="round"/>
</svg>
