<svg width="193" height="183" viewBox="0 0 193 183" fill="none" xmlns="http://www.w3.org/2000/svg">
<path d="M183.332 97C183.332 85.575 180.679 74.5553 176.332 64C171.985 53.4447 166.364 43.0787 158.332 35C150.3 26.9213 140.827 21.3722 130.332 17C119.837 12.6278 108.691 10 97.332 10C85.9727 9.99999 73.8267 12.6278 63.332 17C52.8374 21.3722 43.3643 26.9213 35.332 35C27.2998 43.0787 21.6791 53.4447 17.332 64C12.985 74.5553 10.332 85.575 10.332 97" stroke="#35322F" stroke-width="19.2727" stroke-linecap="round" stroke-linejoin="round"/>
<path d="M10.332 96.5C10.332 82.8494 13.5627 69.3926 19.76 57.2298C25.9572 45.067 34.9451 34.5436 45.9886 26.52" stroke="#AFD275" stroke-width="19.2727" stroke-linecap="round" stroke-linejoin="round"/>
</svg>
