<svg width="193" height="183" viewBox="0 0 193 183" fill="none" xmlns="http://www.w3.org/2000/svg">
<path d="M183 97C183 85.575 180.347 74.5553 176 64C171.653 53.4447 166.032 43.0787 158 35C149.968 26.9213 140.495 21.3722 130 17C119.505 12.6278 108.359 10 97 10C85.6407 9.99999 73.4947 12.6278 63 17C52.5053 21.3722 43.0323 26.9213 35 35C26.9677 43.0787 21.347 53.4447 17 64C12.653 74.5553 10 85.575 10 97" stroke="#35322F" stroke-width="19.2727" stroke-linecap="round" stroke-linejoin="round"/>
<path d="M10 96.5C10 75.9041 17.3489 55.984 30.7249 40.3227C44.1009 24.6615 62.6261 14.2869 82.9684 11.065C103.311 7.84305 124.135 11.9853 141.696 22.7466C159.257 33.508 172.402 50.1821 178.766 69.77" stroke="#AFD275" stroke-width="19.2727" stroke-linecap="round" stroke-linejoin="round"/>
</svg>
