<svg width="25" height="25" viewBox="0 0 25 25" fill="none" xmlns="http://www.w3.org/2000/svg">
<path d="M12.5061 2.08337C7.03737 2.08337 2.55195 6.30212 2.12695 11.6636L7.71029 13.9719C8.1992 13.6379 8.77755 13.4593 9.36966 13.4594C9.42487 13.4594 9.47904 13.4625 9.5332 13.4646L12.0165 9.86879V9.81775C12.0165 7.65108 13.777 5.89067 15.9436 5.89067C16.985 5.89232 17.9832 6.30688 18.7194 7.04345C19.4556 7.78001 19.8696 8.77845 19.8707 9.81983C19.8699 10.8612 19.4559 11.8597 18.7196 12.5962C17.9834 13.3326 16.985 13.7469 15.9436 13.748H15.853L12.3145 16.275C12.3145 16.3198 12.3176 16.3667 12.3176 16.4136C12.3181 16.8003 12.2425 17.1834 12.0949 17.5409C11.9473 17.8984 11.7308 18.2233 11.4576 18.4971C11.1844 18.7709 10.8599 18.9881 10.5028 19.1364C10.1456 19.2847 9.76267 19.3612 9.37591 19.3615C8.69545 19.3588 8.03665 19.122 7.51024 18.6908C6.98383 18.2597 6.6219 17.6604 6.48529 16.9938L2.48737 15.3386C3.72383 19.7105 7.73841 22.9167 12.5072 22.9167C18.2592 22.9167 22.9217 18.2532 22.9217 12.5C22.9217 6.74796 18.2582 2.08337 12.5061 2.08337ZM7.37591 17.3615C7.60299 17.8323 7.9957 18.2282 8.51654 18.4459C8.92047 18.6129 9.36479 18.6567 9.79355 18.5717C10.2223 18.4867 10.6163 18.2767 10.926 17.9681C11.2356 17.6596 11.447 17.2664 11.5336 16.8379C11.6201 16.4095 11.578 15.965 11.4124 15.5605C11.1934 15.0288 10.776 14.6033 10.2486 14.3743C9.72123 14.1452 9.12538 14.1305 8.58737 14.3334L9.90924 14.8813C10.3041 15.0505 10.6162 15.3686 10.7778 15.7667C10.9393 16.1647 10.9372 16.6104 10.772 17.0069C10.6068 17.4034 10.2917 17.7186 9.8953 17.8841C9.4989 18.0496 9.0532 18.052 8.65508 17.8907L7.37591 17.3615ZM18.5634 9.81462C18.5623 9.1208 18.2861 8.45572 17.7954 7.96521C17.3047 7.4747 16.6395 7.19878 15.9457 7.19796C15.4279 7.19796 14.9218 7.35151 14.4913 7.63919C14.0608 7.92688 13.7253 8.33577 13.5272 8.81415C13.3291 9.29254 13.2773 9.81892 13.3784 10.3267C13.4795 10.8346 13.7289 11.301 14.0951 11.667C14.4613 12.0331 14.9278 12.2823 15.4357 12.3832C15.9435 12.4841 16.4699 12.4321 16.9482 12.2338C17.4265 12.0355 17.8352 11.6998 18.1228 11.2692C18.4103 10.8386 18.5636 10.3324 18.5634 9.81462ZM15.9509 7.84379C16.4723 7.84434 16.9722 8.05172 17.3409 8.42042C17.7096 8.78913 17.917 9.28903 17.9176 9.81046C17.917 10.3319 17.7096 10.8318 17.3409 11.2005C16.9722 11.5692 16.4723 11.7766 15.9509 11.7771C15.4293 11.7771 14.9291 11.5699 14.5603 11.2011C14.1914 10.8323 13.9842 10.3321 13.9842 9.81046C13.9842 9.28887 14.1914 8.78864 14.5603 8.41981C14.9291 8.05099 15.4293 7.84379 15.9509 7.84379Z" fill="#EDF1F3"/>
</svg>
