<svg width="25" height="25" viewBox="0 0 25 25" fill="none" xmlns="http://www.w3.org/2000/svg">
<path d="M12.5042 2.08325C7.03542 2.08325 2.55 6.302 2.125 11.6635L7.70833 13.9718C8.19725 13.6378 8.7756 13.4592 9.36771 13.4593C9.42292 13.4593 9.47708 13.4624 9.53125 13.4645L12.0146 9.86867V9.81763C12.0146 7.65096 13.775 5.89054 15.9417 5.89054C16.983 5.8922 17.9813 6.30676 18.7174 7.04332C19.4536 7.77989 19.8676 8.77833 19.8687 9.81971C19.8679 10.8611 19.4539 11.8596 18.7177 12.596C17.9814 13.3325 16.983 13.7467 15.9417 13.7478H15.851L12.3125 16.2749C12.3125 16.3197 12.3156 16.3666 12.3156 16.4135C12.3162 16.8002 12.2405 17.1833 12.0929 17.5408C11.9454 17.8983 11.7288 18.2232 11.4556 18.497C11.1824 18.7707 10.858 18.988 10.5008 19.1363C10.1436 19.2846 9.76071 19.3611 9.37396 19.3614C8.6935 19.3587 8.0347 19.1219 7.50829 18.6907C6.98188 18.2595 6.61995 17.6603 6.48333 16.9937L2.48542 15.3385C3.72188 19.7103 7.73646 22.9166 12.5052 22.9166C18.2573 22.9166 22.9198 18.253 22.9198 12.4999C22.9198 6.74784 18.2563 2.08325 12.5042 2.08325ZM7.37396 17.3614C7.60104 17.8322 7.99375 18.228 8.51458 18.4458C8.91851 18.6128 9.36284 18.6566 9.7916 18.5715C10.2204 18.4865 10.6144 18.2765 10.924 17.968C11.2336 17.6595 11.4451 17.2662 11.5316 16.8378C11.6182 16.4093 11.576 15.9649 11.4104 15.5603C11.1914 15.0287 10.774 14.6032 10.2467 14.3741C9.71928 14.1451 9.12342 14.1304 8.58542 14.3333L9.90729 14.8812C10.3021 15.0503 10.6143 15.3685 10.7758 15.7665C10.9374 16.1646 10.9353 16.6103 10.7701 17.0068C10.6048 17.4033 10.2897 17.7185 9.89334 17.884C9.49695 18.0495 9.05125 18.0518 8.65312 17.8905L7.37396 17.3614ZM18.5615 9.8145C18.5604 9.12068 18.2842 8.4556 17.7935 7.96509C17.3028 7.47458 16.6376 7.19866 15.9438 7.19784C15.426 7.19784 14.9198 7.35139 14.4893 7.63907C14.0588 7.92675 13.7233 8.33565 13.5252 8.81403C13.3271 9.29242 13.2753 9.8188 13.3764 10.3266C13.4775 10.8344 13.7269 11.3009 14.0931 11.6669C14.4593 12.033 14.9258 12.2822 15.4337 12.3831C15.9416 12.484 16.4679 12.432 16.9462 12.2337C17.4245 12.0354 17.8333 11.6997 18.1208 11.2691C18.4083 10.8385 18.5617 10.3323 18.5615 9.8145ZM15.949 7.84367C16.4704 7.84422 16.9703 8.0516 17.339 8.4203C17.7077 8.789 17.9151 9.28891 17.9156 9.81034C17.9151 10.3318 17.7077 10.8317 17.339 11.2004C16.9703 11.5691 16.4704 11.7765 15.949 11.777C15.4274 11.777 14.9271 11.5698 14.5583 11.201C14.1895 10.8322 13.9823 10.3319 13.9823 9.81034C13.9823 9.28874 14.1895 8.78851 14.5583 8.41969C14.9271 8.05087 15.4274 7.84367 15.949 7.84367Z" fill="#EDF1F3"/>
</svg>
