<svg width="25" height="25" viewBox="0 0 25 25" fill="none" xmlns="http://www.w3.org/2000/svg">
<path d="M12.5042 2.08337C7.03542 2.08337 2.55 6.30212 2.125 11.6636L7.70833 13.9719C8.19725 13.6379 8.7756 13.4593 9.36771 13.4594C9.42292 13.4594 9.47708 13.4625 9.53125 13.4646L12.0146 9.86879V9.81775C12.0146 7.65108 13.775 5.89067 15.9417 5.89067C16.983 5.89232 17.9813 6.30688 18.7174 7.04345C19.4536 7.78001 19.8676 8.77845 19.8687 9.81983C19.8679 10.8612 19.4539 11.8597 18.7177 12.5962C17.9814 13.3326 16.983 13.7469 15.9417 13.748H15.851L12.3125 16.275C12.3125 16.3198 12.3156 16.3667 12.3156 16.4136C12.3162 16.8003 12.2405 17.1834 12.0929 17.5409C11.9454 17.8984 11.7288 18.2233 11.4556 18.4971C11.1824 18.7709 10.858 18.9881 10.5008 19.1364C10.1436 19.2847 9.76071 19.3612 9.37396 19.3615C8.6935 19.3588 8.0347 19.122 7.50829 18.6908C6.98188 18.2597 6.61995 17.6604 6.48333 16.9938L2.48542 15.3386C3.72188 19.7105 7.73646 22.9167 12.5052 22.9167C18.2573 22.9167 22.9198 18.2532 22.9198 12.5C22.9198 6.74796 18.2563 2.08337 12.5042 2.08337ZM7.37396 17.3615C7.60104 17.8323 7.99375 18.2282 8.51458 18.4459C8.91851 18.6129 9.36284 18.6567 9.7916 18.5717C10.2204 18.4867 10.6144 18.2767 10.924 17.9681C11.2336 17.6596 11.4451 17.2664 11.5316 16.8379C11.6182 16.4095 11.576 15.965 11.4104 15.5605C11.1914 15.0288 10.774 14.6033 10.2467 14.3743C9.71928 14.1452 9.12342 14.1305 8.58542 14.3334L9.90729 14.8813C10.3021 15.0505 10.6143 15.3686 10.7758 15.7667C10.9374 16.1647 10.9353 16.6104 10.7701 17.0069C10.6048 17.4034 10.2897 17.7186 9.89334 17.8841C9.49695 18.0496 9.05125 18.052 8.65312 17.8907L7.37396 17.3615ZM18.5615 9.81462C18.5604 9.1208 18.2842 8.45572 17.7935 7.96521C17.3028 7.4747 16.6376 7.19878 15.9438 7.19796C15.426 7.19796 14.9198 7.35151 14.4893 7.63919C14.0588 7.92688 13.7233 8.33577 13.5252 8.81415C13.3271 9.29254 13.2753 9.81892 13.3764 10.3267C13.4775 10.8346 13.7269 11.301 14.0931 11.667C14.4593 12.0331 14.9258 12.2823 15.4337 12.3832C15.9416 12.4841 16.4679 12.4321 16.9462 12.2338C17.4245 12.0355 17.8333 11.6998 18.1208 11.2692C18.4083 10.8386 18.5617 10.3324 18.5615 9.81462ZM15.949 7.84379C16.4704 7.84434 16.9703 8.05172 17.339 8.42042C17.7077 8.78913 17.9151 9.28903 17.9156 9.81046C17.9151 10.3319 17.7077 10.8318 17.339 11.2005C16.9703 11.5692 16.4704 11.7766 15.949 11.7771C15.4274 11.7771 14.9271 11.5699 14.5583 11.2011C14.1895 10.8323 13.9823 10.3321 13.9823 9.81046C13.9823 9.28887 14.1895 8.78864 14.5583 8.41981C14.9271 8.05099 15.4274 7.84379 15.949 7.84379Z" fill="#EDF1F3"/>
</svg>
