<svg width="25" height="25" viewBox="0 0 25 25" fill="none" xmlns="http://www.w3.org/2000/svg">
<path d="M12.5061 2.0835C7.03737 2.0835 2.55195 6.30225 2.12695 11.6637L7.71029 13.972C8.1992 13.638 8.77755 13.4594 9.36966 13.4595C9.42487 13.4595 9.47904 13.4627 9.5332 13.4647L12.0165 9.86891V9.81787C12.0165 7.65121 13.777 5.89079 15.9436 5.89079C16.985 5.89244 17.9832 6.307 18.7194 7.04357C19.4556 7.78013 19.8696 8.77857 19.8707 9.81995C19.8699 10.8613 19.4559 11.8598 18.7196 12.5963C17.9834 13.3327 16.985 13.747 15.9436 13.7481H15.853L12.3145 16.2752C12.3145 16.32 12.3176 16.3668 12.3176 16.4137C12.3181 16.8005 12.2425 17.1835 12.0949 17.541C11.9473 17.8985 11.7308 18.2234 11.4576 18.4972C11.1844 18.771 10.8599 18.9882 10.5028 19.1365C10.1456 19.2849 9.76267 19.3613 9.37591 19.3616C8.69545 19.359 8.03665 19.1221 7.51024 18.691C6.98383 18.2598 6.6219 17.6605 6.48529 16.9939L2.48737 15.3387C3.72383 19.7106 7.73841 22.9168 12.5072 22.9168C18.2592 22.9168 22.9217 18.2533 22.9217 12.5002C22.9217 6.74808 18.2582 2.0835 12.5061 2.0835ZM7.37591 17.3616C7.60299 17.8325 7.9957 18.2283 8.51654 18.446C8.92047 18.613 9.36479 18.6568 9.79355 18.5718C10.2223 18.4868 10.6163 18.2768 10.926 17.9683C11.2356 17.6597 11.447 17.2665 11.5336 16.838C11.6201 16.4096 11.578 15.9651 11.4124 15.5606C11.1934 15.0289 10.776 14.6035 10.2486 14.3744C9.72123 14.1453 9.12538 14.1307 8.58737 14.3335L9.90924 14.8814C10.3041 15.0506 10.6162 15.3688 10.7778 15.7668C10.9393 16.1648 10.9372 16.6105 10.772 17.007C10.6068 17.4035 10.2917 17.7188 9.8953 17.8843C9.4989 18.0497 9.0532 18.0521 8.65508 17.8908L7.37591 17.3616ZM18.5634 9.81475C18.5623 9.12092 18.2861 8.45584 17.7954 7.96533C17.3047 7.47482 16.6395 7.19891 15.9457 7.19808C15.4279 7.19808 14.9218 7.35163 14.4913 7.63932C14.0608 7.927 13.7253 8.33589 13.5272 8.81428C13.3291 9.29266 13.2773 9.81905 13.3784 10.3269C13.4795 10.8347 13.7289 11.3011 14.0951 11.6672C14.4613 12.0332 14.9278 12.2824 15.4357 12.3833C15.9435 12.4842 16.4699 12.4322 16.9482 12.2339C17.4265 12.0356 17.8352 11.7 18.1228 11.2694C18.4103 10.8387 18.5636 10.3325 18.5634 9.81475ZM15.9509 7.84391C16.4723 7.84446 16.9722 8.05184 17.3409 8.42055C17.7096 8.78925 17.917 9.28916 17.9176 9.81058C17.917 10.332 17.7096 10.8319 17.3409 11.2006C16.9722 11.5693 16.4723 11.7767 15.9509 11.7772C15.4293 11.7772 14.9291 11.57 14.5603 11.2012C14.1914 10.8324 13.9842 10.3322 13.9842 9.81058C13.9842 9.28899 14.1914 8.78876 14.5603 8.41994C14.9291 8.05111 15.4293 7.84391 15.9509 7.84391Z" fill="black"/>
</svg>
