<svg width="60" height="60" viewBox="0 0 60 60" fill="none" xmlns="http://www.w3.org/2000/svg">
<rect width="60" height="60" rx="18" fill="#C2B9B0" fill-opacity="0.15"/>
<path d="M29.5 39.75C23.85 39.75 19.25 35.15 19.25 29.5C19.25 23.85 23.85 19.25 29.5 19.25C35.15 19.25 39.75 23.85 39.75 29.5C39.75 35.15 35.15 39.75 29.5 39.75ZM29.5 20.75C24.67 20.75 20.75 24.68 20.75 29.5C20.75 34.32 24.67 38.25 29.5 38.25C34.33 38.25 38.25 34.32 38.25 29.5C38.25 24.68 34.33 20.75 29.5 20.75Z" fill="#EDF1F3"/>
<path d="M39.9995 40.7504C39.8095 40.7504 39.6195 40.6804 39.4695 40.5304L37.4695 38.5304C37.1795 38.2404 37.1795 37.7604 37.4695 37.4704C37.7595 37.1804 38.2395 37.1804 38.5295 37.4704L40.5295 39.4704C40.8195 39.7604 40.8195 40.2404 40.5295 40.5304C40.3795 40.6804 40.1895 40.7504 39.9995 40.7504Z" fill="#EDF1F3"/>
</svg>
