<svg width="24" height="24" viewBox="0 0 24 24" fill="none" xmlns="http://www.w3.org/2000/svg">
<g clip-path="url(#clip0_503_1532)">
<path d="M6.35208 0V2.824H4.93908V5.647H3.52908V8.471H2.11708V11.294H0.705078V14.118H9.17508V16.941H7.76408V19.765H6.35208V22.588H7.76408V21.176H9.17508V19.765H10.5871V18.353H11.9991V16.94H13.4111V15.53H14.8231V14.119H16.2341V12.707H17.6461V11.295H19.0581V9.882H20.4701V8.471H21.8811V7.059H17.6461V5.647H19.0581V4.235H20.4701V2.824H21.8811V1.412H23.2931V0H6.35208ZM6.35208 22.588H4.93908V24H6.35108L6.35208 22.588ZM7.76408 2.824H17.6461V4.235H16.2341V5.647H14.8231V7.06H13.4111V8.47H11.9991V9.881H13.4111V11.293H11.9991V9.882H10.5871V11.294H9.17508V9.882H7.76408V11.294H6.35208V9.882H4.93908V8.471H6.35108V5.647H7.76308L7.76408 2.824ZM6.35208 8.47V9.881H7.76408V8.471L6.35208 8.47ZM9.17508 9.881H10.5871V8.471H9.17508V9.881ZM14.8231 9.881H16.2341V11.293H14.8231V9.881Z" fill="#FCFCFC"/>
</g>
<defs>
<clipPath id="clip0_503_1532">
<rect width="24" height="24" fill="white"/>
</clipPath>
</defs>
</svg>
