<svg width="24" height="24" viewBox="0 0 24 24" fill="none" xmlns="http://www.w3.org/2000/svg">
<path fill-rule="evenodd" clip-rule="evenodd" d="M24 12C24 18.6274 18.6274 24 12 24C5.37258 24 0 18.6274 0 12C0 5.37258 5.37258 0 12 0C18.6274 0 24 5.37258 24 12ZM18.2459 10.2456C19.2143 10.2456 20.0002 11.0316 20.0002 12C20.0002 12.7158 19.5652 13.3333 18.9897 13.614C19.0178 13.7824 19.0318 13.9509 19.0318 14.1333C19.0318 16.828 15.902 19.0035 12.0283 19.0035C8.15464 19.0035 5.02481 16.828 5.02481 14.1333C5.02481 13.9509 5.03885 13.7684 5.06692 13.6C4.44937 13.3193 4.02832 12.7158 4.02832 12C4.02832 11.0316 4.81429 10.2456 5.78271 10.2456C6.24586 10.2456 6.68095 10.4421 6.98972 10.7368C8.19674 9.85261 9.86692 9.30524 11.7336 9.2491L12.6178 5.06664C12.6459 4.98243 12.688 4.91226 12.7581 4.87015C12.8283 4.82805 12.9125 4.81401 12.9967 4.82805L15.902 5.44559C16.0985 5.02454 16.5196 4.74384 17.0108 4.74384C17.6985 4.74384 18.2599 5.30524 18.2599 5.99296C18.2599 6.68068 17.6985 7.24208 17.0108 7.24208C16.3371 7.24208 15.7897 6.70875 15.7617 6.0491L13.1652 5.50173L12.3652 9.2491C14.1897 9.31927 15.8459 9.88068 17.0388 10.7368C17.3476 10.428 17.7687 10.2456 18.2459 10.2456ZM9.24937 12C8.56165 12 8.00025 12.5614 8.00025 13.2491C8.00025 13.9368 8.56165 14.4982 9.24937 14.4982C9.93709 14.4982 10.4985 13.9368 10.4985 13.2491C10.4985 12.5614 9.93709 12 9.24937 12ZM12.0143 17.4596C12.4915 17.4596 14.1195 17.4035 14.9757 16.5473C15.102 16.421 15.102 16.2245 15.0038 16.0842C14.8774 15.9579 14.6669 15.9579 14.5406 16.0842C13.9932 16.6175 12.8564 16.814 12.0283 16.814C11.2003 16.814 10.0494 16.6175 9.51604 16.0842C9.38972 15.9579 9.1792 15.9579 9.05288 16.0842C8.92657 16.2105 8.92657 16.421 9.05288 16.5473C9.89499 17.3895 11.5371 17.4596 12.0143 17.4596ZM13.502 13.2491C13.502 13.9368 14.0634 14.4982 14.7511 14.4982C15.4388 14.4982 16.0002 13.9368 16.0002 13.2491C16.0002 12.5614 15.4388 12 14.7511 12C14.0634 12 13.502 12.5614 13.502 13.2491Z" fill="#EDF1F3"/>
</svg>
