<svg width="68" height="68" viewBox="0 0 68 68" fill="none" xmlns="http://www.w3.org/2000/svg">
<path d="M59.9033 19.4286H24.2842M17.808 19.4286H8.09375M59.9033 51.8095H24.2842M17.808 51.8095H8.09375M43.7128 35.6191H8.09375M59.9033 35.6191H50.189M21.0461 12.9524C21.9049 12.9524 22.7285 13.2935 23.3358 13.9008C23.9431 14.5081 24.2842 15.3317 24.2842 16.1905V22.6667C24.2842 23.5255 23.9431 24.3491 23.3358 24.9564C22.7285 25.5636 21.9049 25.9048 21.0461 25.9048C20.1873 25.9048 19.3637 25.5636 18.7565 24.9564C18.1492 24.3491 17.808 23.5255 17.808 22.6667V16.1905C17.808 15.3317 18.1492 14.5081 18.7565 13.9008C19.3637 13.2935 20.1873 12.9524 21.0461 12.9524ZM21.0461 45.3333C21.9049 45.3333 22.7285 45.6745 23.3358 46.2818C23.9431 46.889 24.2842 47.7126 24.2842 48.5714V55.0476C24.2842 55.9064 23.9431 56.7301 23.3358 57.3373C22.7285 57.9446 21.9049 58.2857 21.0461 58.2857C20.1873 58.2857 19.3637 57.9446 18.7565 57.3373C18.1492 56.7301 17.808 55.9064 17.808 55.0476V48.5714C17.808 47.7126 18.1492 46.889 18.7565 46.2818C19.3637 45.6745 20.1873 45.3333 21.0461 45.3333ZM46.9509 29.1429C47.8097 29.1429 48.6333 29.484 49.2406 30.0913C49.8478 30.6985 50.189 31.5222 50.189 32.381V38.8572C50.189 39.716 49.8478 40.5396 49.2406 41.1468C48.6333 41.7541 47.8097 42.0953 46.9509 42.0953C46.0921 42.0953 45.2685 41.7541 44.6612 41.1468C44.054 40.5396 43.7128 39.716 43.7128 38.8572V32.381C43.7128 31.5222 44.054 30.6985 44.6612 30.0913C45.2685 29.484 46.0921 29.1429 46.9509 29.1429Z" stroke="#AFD275" stroke-width="3.2381" stroke-linecap="round" stroke-linejoin="round"/>
</svg>
