<svg width="14" height="14" viewBox="0 0 14 14" fill="none" xmlns="http://www.w3.org/2000/svg">
<path d="M11.0295 8.57104C11.0295 9.32354 11.6479 9.93604 12.4004 9.93604C12.4004 12.1235 11.852 12.6719 9.66453 12.6719H4.19286C2.00536 12.6719 1.45703 12.1235 1.45703 9.93604V9.66771C2.20953 9.66771 2.82786 9.04937 2.82786 8.29687C2.82786 7.54437 2.20953 6.92604 1.45703 6.92604V6.65771C1.46286 4.47021 2.00536 3.92188 4.19286 3.92188H9.6587C11.8462 3.92188 12.3945 4.47021 12.3945 6.65771V7.20604C11.642 7.20604 11.0295 7.81271 11.0295 8.57104Z" stroke="#EDF1F3" stroke-linecap="round" stroke-linejoin="round"/>
<path d="M9.45484 3.92178H4.15234L5.86151 2.21262C7.25568 0.81845 7.95568 0.81845 9.34984 2.21262L9.69984 2.56262C9.33234 2.93012 9.24484 3.47262 9.45484 3.92178Z" stroke="#EDF1F3" stroke-linecap="round" stroke-linejoin="round"/>
<path d="M5.76172 3.92188L5.76172 12.6719" stroke="#EDF1F3" stroke-linecap="round" stroke-linejoin="round" stroke-dasharray="5 5"/>
</svg>
