<svg width="33" height="32" viewBox="0 0 33 32" fill="none" xmlns="http://www.w3.org/2000/svg">
<path d="M8.5013 21.3334H5.83464C5.12739 21.3334 4.44911 21.6144 3.94902 22.1145C3.44892 22.6146 3.16797 23.2928 3.16797 24.0001V26.6667C3.16797 27.374 3.44892 28.0523 3.94902 28.5524C4.44911 29.0525 5.12739 29.3334 5.83464 29.3334H8.5013C9.20855 29.3334 9.88682 29.0525 10.3869 28.5524C10.887 28.0523 11.168 27.374 11.168 26.6667V24.0001C11.168 23.2928 10.887 22.6146 10.3869 22.1145C9.88682 21.6144 9.20855 21.3334 8.5013 21.3334ZM8.5013 26.6667H5.83464V24.0001H8.5013V26.6667ZM8.5013 12.0001H5.83464C5.12739 12.0001 4.44911 12.281 3.94902 12.7811C3.44892 13.2812 3.16797 13.9595 3.16797 14.6667V17.3334C3.16797 18.0407 3.44892 18.7189 3.94902 19.219C4.44911 19.7191 5.12739 20.0001 5.83464 20.0001H8.5013C9.20855 20.0001 9.88682 19.7191 10.3869 19.219C10.887 18.7189 11.168 18.0407 11.168 17.3334V14.6667C11.168 13.9595 10.887 13.2812 10.3869 12.7811C9.88682 12.281 9.20855 12.0001 8.5013 12.0001ZM8.5013 17.3334H5.83464V14.6667H8.5013V17.3334ZM8.5013 2.66675H5.83464C5.12739 2.66675 4.44911 2.9477 3.94902 3.4478C3.44892 3.94789 3.16797 4.62617 3.16797 5.33341V8.00008C3.16797 8.70732 3.44892 9.3856 3.94902 9.8857C4.44911 10.3858 5.12739 10.6667 5.83464 10.6667H8.5013C9.20855 10.6667 9.88682 10.3858 10.3869 9.8857C10.887 9.3856 11.168 8.70732 11.168 8.00008V5.33341C11.168 4.62617 10.887 3.94789 10.3869 3.4478C9.88682 2.9477 9.20855 2.66675 8.5013 2.66675ZM17.8346 21.3334H15.168C14.4607 21.3334 13.7824 21.6144 13.2824 22.1145C12.7823 22.6146 12.5013 23.2928 12.5013 24.0001V26.6667C12.5013 27.374 12.7823 28.0523 13.2824 28.5524C13.7824 29.0525 14.4607 29.3334 15.168 29.3334H17.8346C18.5419 29.3334 19.2202 29.0525 19.7203 28.5524C20.2203 28.0523 20.5013 27.374 20.5013 26.6667V24.0001C20.5013 23.2928 20.2203 22.6146 19.7203 22.1145C19.2202 21.6144 18.5419 21.3334 17.8346 21.3334ZM17.8346 26.6667H15.168V24.0001H17.8346V26.6667ZM17.8346 12.0001H15.168C14.4607 12.0001 13.7824 12.281 13.2824 12.7811C12.7823 13.2812 12.5013 13.9595 12.5013 14.6667V17.3334C12.5013 18.0407 12.7823 18.7189 13.2824 19.219C13.7824 19.7191 14.4607 20.0001 15.168 20.0001H17.8346C18.5419 20.0001 19.2202 19.7191 19.7203 19.219C20.2203 18.7189 20.5013 18.0407 20.5013 17.3334V14.6667C20.5013 13.9595 20.2203 13.2812 19.7203 12.7811C19.2202 12.281 18.5419 12.0001 17.8346 12.0001ZM17.8346 17.3334H15.168V14.6667H17.8346V17.3334ZM17.8346 2.66675H15.168C14.4607 2.66675 13.7824 2.9477 13.2824 3.4478C12.7823 3.94789 12.5013 4.62617 12.5013 5.33341V8.00008C12.5013 8.70732 12.7823 9.3856 13.2824 9.8857C13.7824 10.3858 14.4607 10.6667 15.168 10.6667H17.8346C18.5419 10.6667 19.2202 10.3858 19.7203 9.8857C20.2203 9.3856 20.5013 8.70732 20.5013 8.00008V5.33341C20.5013 4.62617 20.2203 3.94789 19.7203 3.4478C19.2202 2.9477 18.5419 2.66675 17.8346 2.66675ZM27.168 21.3334H24.5013C23.7941 21.3334 23.1158 21.6144 22.6157 22.1145C22.1156 22.6146 21.8346 23.2928 21.8346 24.0001V26.6667C21.8346 27.374 22.1156 28.0523 22.6157 28.5524C23.1158 29.0525 23.7941 29.3334 24.5013 29.3334H27.168C27.8752 29.3334 28.5535 29.0525 29.0536 28.5524C29.5537 28.0523 29.8346 27.374 29.8346 26.6667V24.0001C29.8346 23.2928 29.5537 22.6146 29.0536 22.1145C28.5535 21.6144 27.8752 21.3334 27.168 21.3334ZM27.168 26.6667H24.5013V24.0001H27.168V26.6667ZM27.168 12.0001H24.5013C23.7941 12.0001 23.1158 12.281 22.6157 12.7811C22.1156 13.2812 21.8346 13.9595 21.8346 14.6667V17.3334C21.8346 18.0407 22.1156 18.7189 22.6157 19.219C23.1158 19.7191 23.7941 20.0001 24.5013 20.0001H27.168C27.8752 20.0001 28.5535 19.7191 29.0536 19.219C29.5537 18.7189 29.8346 18.0407 29.8346 17.3334V14.6667C29.8346 13.9595 29.5537 13.2812 29.0536 12.7811C28.5535 12.281 27.8752 12.0001 27.168 12.0001ZM27.168 17.3334H24.5013V14.6667H27.168V17.3334ZM27.168 2.66675H24.5013C23.7941 2.66675 23.1158 2.9477 22.6157 3.4478C22.1156 3.94789 21.8346 4.62617 21.8346 5.33341V8.00008C21.8346 8.70732 22.1156 9.3856 22.6157 9.8857C23.1158 10.3858 23.7941 10.6667 24.5013 10.6667H27.168C27.8752 10.6667 28.5535 10.3858 29.0536 9.8857C29.5537 9.3856 29.8346 8.70732 29.8346 8.00008V5.33341C29.8346 4.62617 29.5537 3.94789 29.0536 3.4478C28.5535 2.9477 27.8752 2.66675 27.168 2.66675Z" fill="#FCFCFC"/>
</svg>
