<svg width="33" height="32" viewBox="0 0 33 32" fill="none" xmlns="http://www.w3.org/2000/svg">
<path d="M8.16732 21.3334H5.50065C4.79341 21.3334 4.11513 21.6144 3.61503 22.1145C3.11494 22.6146 2.83398 23.2928 2.83398 24.0001V26.6667C2.83398 27.374 3.11494 28.0523 3.61503 28.5524C4.11513 29.0525 4.79341 29.3334 5.50065 29.3334H8.16732C8.87456 29.3334 9.55284 29.0525 10.0529 28.5524C10.553 28.0523 10.834 27.374 10.834 26.6667V24.0001C10.834 23.2928 10.553 22.6146 10.0529 22.1145C9.55284 21.6144 8.87456 21.3334 8.16732 21.3334ZM8.16732 12.0001H5.50065C4.79341 12.0001 4.11513 12.281 3.61503 12.7811C3.11494 13.2812 2.83398 13.9595 2.83398 14.6667V17.3334C2.83398 18.0407 3.11494 18.7189 3.61503 19.219C4.11513 19.7191 4.79341 20.0001 5.50065 20.0001H8.16732C8.87456 20.0001 9.55284 19.7191 10.0529 19.219C10.553 18.7189 10.834 18.0407 10.834 17.3334V14.6667C10.834 13.9595 10.553 13.2812 10.0529 12.7811C9.55284 12.281 8.87456 12.0001 8.16732 12.0001ZM8.16732 2.66675H5.50065C4.79341 2.66675 4.11513 2.9477 3.61503 3.4478C3.11494 3.94789 2.83398 4.62617 2.83398 5.33341V8.00008C2.83398 8.70732 3.11494 9.3856 3.61503 9.8857C4.11513 10.3858 4.79341 10.6667 5.50065 10.6667H8.16732C8.87456 10.6667 9.55284 10.3858 10.0529 9.8857C10.553 9.3856 10.834 8.70732 10.834 8.00008V5.33341C10.834 4.62617 10.553 3.94789 10.0529 3.4478C9.55284 2.9477 8.87456 2.66675 8.16732 2.66675ZM17.5007 21.3334H14.834C14.1267 21.3334 13.4485 21.6144 12.9484 22.1145C12.4483 22.6146 12.1673 23.2928 12.1673 24.0001V26.6667C12.1673 27.374 12.4483 28.0523 12.9484 28.5524C13.4485 29.0525 14.1267 29.3334 14.834 29.3334H17.5007C18.2079 29.3334 18.8862 29.0525 19.3863 28.5524C19.8864 28.0523 20.1673 27.374 20.1673 26.6667V24.0001C20.1673 23.2928 19.8864 22.6146 19.3863 22.1145C18.8862 21.6144 18.2079 21.3334 17.5007 21.3334ZM17.5007 12.0001H14.834C14.1267 12.0001 13.4485 12.281 12.9484 12.7811C12.4483 13.2812 12.1673 13.9595 12.1673 14.6667V17.3334C12.1673 18.0407 12.4483 18.7189 12.9484 19.219C13.4485 19.7191 14.1267 20.0001 14.834 20.0001H17.5007C18.2079 20.0001 18.8862 19.7191 19.3863 19.219C19.8864 18.7189 20.1673 18.0407 20.1673 17.3334V14.6667C20.1673 13.9595 19.8864 13.2812 19.3863 12.7811C18.8862 12.281 18.2079 12.0001 17.5007 12.0001ZM17.5007 2.66675H14.834C14.1267 2.66675 13.4485 2.9477 12.9484 3.4478C12.4483 3.94789 12.1673 4.62617 12.1673 5.33341V8.00008C12.1673 8.70732 12.4483 9.3856 12.9484 9.8857C13.4485 10.3858 14.1267 10.6667 14.834 10.6667H17.5007C18.2079 10.6667 18.8862 10.3858 19.3863 9.8857C19.8864 9.3856 20.1673 8.70732 20.1673 8.00008V5.33341C20.1673 4.62617 19.8864 3.94789 19.3863 3.4478C18.8862 2.9477 18.2079 2.66675 17.5007 2.66675ZM26.834 21.3334H24.1673C23.4601 21.3334 22.7818 21.6144 22.2817 22.1145C21.7816 22.6146 21.5007 23.2928 21.5007 24.0001V26.6667C21.5007 27.374 21.7816 28.0523 22.2817 28.5524C22.7818 29.0525 23.4601 29.3334 24.1673 29.3334H26.834C27.5412 29.3334 28.2195 29.0525 28.7196 28.5524C29.2197 28.0523 29.5006 27.374 29.5006 26.6667V24.0001C29.5006 23.2928 29.2197 22.6146 28.7196 22.1145C28.2195 21.6144 27.5412 21.3334 26.834 21.3334ZM26.834 12.0001H24.1673C23.4601 12.0001 22.7818 12.281 22.2817 12.7811C21.7816 13.2812 21.5007 13.9595 21.5007 14.6667V17.3334C21.5007 18.0407 21.7816 18.7189 22.2817 19.219C22.7818 19.7191 23.4601 20.0001 24.1673 20.0001H26.834C27.5412 20.0001 28.2195 19.7191 28.7196 19.219C29.2197 18.7189 29.5006 18.0407 29.5006 17.3334V14.6667C29.5006 13.9595 29.2197 13.2812 28.7196 12.7811C28.2195 12.281 27.5412 12.0001 26.834 12.0001ZM26.834 2.66675H24.1673C23.4601 2.66675 22.7818 2.9477 22.2817 3.4478C21.7816 3.94789 21.5007 4.62617 21.5007 5.33341V8.00008C21.5007 8.70732 21.7816 9.3856 22.2817 9.8857C22.7818 10.3858 23.4601 10.6667 24.1673 10.6667H26.834C27.5412 10.6667 28.2195 10.3858 28.7196 9.8857C29.2197 9.3856 29.5006 8.70732 29.5006 8.00008V5.33341C29.5006 4.62617 29.2197 3.94789 28.7196 3.4478C28.2195 2.9477 27.5412 2.66675 26.834 2.66675Z" fill="#FCFCFC"/>
</svg>
