<svg width="33" height="32" viewBox="0 0 33 32" fill="none" xmlns="http://www.w3.org/2000/svg">
<path d="M8.49935 21.3334H5.83268C5.12544 21.3334 4.44716 21.6144 3.94706 22.1145C3.44697 22.6146 3.16602 23.2928 3.16602 24.0001V26.6667C3.16602 27.374 3.44697 28.0523 3.94706 28.5524C4.44716 29.0525 5.12544 29.3334 5.83268 29.3334H8.49935C9.20659 29.3334 9.88487 29.0525 10.385 28.5524C10.8851 28.0523 11.166 27.374 11.166 26.6667V24.0001C11.166 23.2928 10.8851 22.6146 10.385 22.1145C9.88487 21.6144 9.20659 21.3334 8.49935 21.3334ZM8.49935 26.6667H5.83268V24.0001H8.49935V26.6667ZM8.49935 12.0001H5.83268C5.12544 12.0001 4.44716 12.281 3.94706 12.7811C3.44697 13.2812 3.16602 13.9595 3.16602 14.6667V17.3334C3.16602 18.0407 3.44697 18.7189 3.94706 19.219C4.44716 19.7191 5.12544 20.0001 5.83268 20.0001H8.49935C9.20659 20.0001 9.88487 19.7191 10.385 19.219C10.8851 18.7189 11.166 18.0407 11.166 17.3334V14.6667C11.166 13.9595 10.8851 13.2812 10.385 12.7811C9.88487 12.281 9.20659 12.0001 8.49935 12.0001ZM8.49935 17.3334H5.83268V14.6667H8.49935V17.3334ZM8.49935 2.66675H5.83268C5.12544 2.66675 4.44716 2.9477 3.94706 3.4478C3.44697 3.94789 3.16602 4.62617 3.16602 5.33341V8.00008C3.16602 8.70732 3.44697 9.3856 3.94706 9.8857C4.44716 10.3858 5.12544 10.6667 5.83268 10.6667H8.49935C9.20659 10.6667 9.88487 10.3858 10.385 9.8857C10.8851 9.3856 11.166 8.70732 11.166 8.00008V5.33341C11.166 4.62617 10.8851 3.94789 10.385 3.4478C9.88487 2.9477 9.20659 2.66675 8.49935 2.66675ZM17.8327 21.3334H15.166C14.4588 21.3334 13.7805 21.6144 13.2804 22.1145C12.7803 22.6146 12.4993 23.2928 12.4993 24.0001V26.6667C12.4993 27.374 12.7803 28.0523 13.2804 28.5524C13.7805 29.0525 14.4588 29.3334 15.166 29.3334H17.8327C18.5399 29.3334 19.2182 29.0525 19.7183 28.5524C20.2184 28.0523 20.4993 27.374 20.4993 26.6667V24.0001C20.4993 23.2928 20.2184 22.6146 19.7183 22.1145C19.2182 21.6144 18.5399 21.3334 17.8327 21.3334ZM17.8327 26.6667H15.166V24.0001H17.8327V26.6667ZM17.8327 12.0001H15.166C14.4588 12.0001 13.7805 12.281 13.2804 12.7811C12.7803 13.2812 12.4993 13.9595 12.4993 14.6667V17.3334C12.4993 18.0407 12.7803 18.7189 13.2804 19.219C13.7805 19.7191 14.4588 20.0001 15.166 20.0001H17.8327C18.5399 20.0001 19.2182 19.7191 19.7183 19.219C20.2184 18.7189 20.4993 18.0407 20.4993 17.3334V14.6667C20.4993 13.9595 20.2184 13.2812 19.7183 12.7811C19.2182 12.281 18.5399 12.0001 17.8327 12.0001ZM17.8327 17.3334H15.166V14.6667H17.8327V17.3334ZM17.8327 2.66675H15.166C14.4588 2.66675 13.7805 2.9477 13.2804 3.4478C12.7803 3.94789 12.4993 4.62617 12.4993 5.33341V8.00008C12.4993 8.70732 12.7803 9.3856 13.2804 9.8857C13.7805 10.3858 14.4588 10.6667 15.166 10.6667H17.8327C18.5399 10.6667 19.2182 10.3858 19.7183 9.8857C20.2184 9.3856 20.4993 8.70732 20.4993 8.00008V5.33341C20.4993 4.62617 20.2184 3.94789 19.7183 3.4478C19.2182 2.9477 18.5399 2.66675 17.8327 2.66675ZM27.166 21.3334H24.4993C23.7921 21.3334 23.1138 21.6144 22.6137 22.1145C22.1136 22.6146 21.8327 23.2928 21.8327 24.0001V26.6667C21.8327 27.374 22.1136 28.0523 22.6137 28.5524C23.1138 29.0525 23.7921 29.3334 24.4993 29.3334H27.166C27.8733 29.3334 28.5515 29.0525 29.0516 28.5524C29.5517 28.0523 29.8327 27.374 29.8327 26.6667V24.0001C29.8327 23.2928 29.5517 22.6146 29.0516 22.1145C28.5515 21.6144 27.8733 21.3334 27.166 21.3334ZM27.166 26.6667H24.4993V24.0001H27.166V26.6667ZM27.166 12.0001H24.4993C23.7921 12.0001 23.1138 12.281 22.6137 12.7811C22.1136 13.2812 21.8327 13.9595 21.8327 14.6667V17.3334C21.8327 18.0407 22.1136 18.7189 22.6137 19.219C23.1138 19.7191 23.7921 20.0001 24.4993 20.0001H27.166C27.8733 20.0001 28.5515 19.7191 29.0516 19.219C29.5517 18.7189 29.8327 18.0407 29.8327 17.3334V14.6667C29.8327 13.9595 29.5517 13.2812 29.0516 12.7811C28.5515 12.281 27.8733 12.0001 27.166 12.0001ZM27.166 17.3334H24.4993V14.6667H27.166V17.3334ZM27.166 2.66675H24.4993C23.7921 2.66675 23.1138 2.9477 22.6137 3.4478C22.1136 3.94789 21.8327 4.62617 21.8327 5.33341V8.00008C21.8327 8.70732 22.1136 9.3856 22.6137 9.8857C23.1138 10.3858 23.7921 10.6667 24.4993 10.6667H27.166C27.8733 10.6667 28.5515 10.3858 29.0516 9.8857C29.5517 9.3856 29.8327 8.70732 29.8327 8.00008V5.33341C29.8327 4.62617 29.5517 3.94789 29.0516 3.4478C28.5515 2.9477 27.8733 2.66675 27.166 2.66675Z" fill="#FCFCFC"/>
</svg>
