<svg width="33" height="32" viewBox="0 0 33 32" fill="none" xmlns="http://www.w3.org/2000/svg">
<path d="M8.83333 21.3334H6.16667C5.45942 21.3334 4.78115 21.6144 4.28105 22.1145C3.78095 22.6146 3.5 23.2928 3.5 24.0001V26.6667C3.5 27.374 3.78095 28.0523 4.28105 28.5524C4.78115 29.0525 5.45942 29.3334 6.16667 29.3334H8.83333C9.54058 29.3334 10.2189 29.0525 10.719 28.5524C11.219 28.0523 11.5 27.374 11.5 26.6667V24.0001C11.5 23.2928 11.219 22.6146 10.719 22.1145C10.2189 21.6144 9.54058 21.3334 8.83333 21.3334ZM8.83333 26.6667H6.16667V24.0001H8.83333V26.6667ZM8.83333 12.0001H6.16667C5.45942 12.0001 4.78115 12.281 4.28105 12.7811C3.78095 13.2812 3.5 13.9595 3.5 14.6667V17.3334C3.5 18.0407 3.78095 18.7189 4.28105 19.219C4.78115 19.7191 5.45942 20.0001 6.16667 20.0001H8.83333C9.54058 20.0001 10.2189 19.7191 10.719 19.219C11.219 18.7189 11.5 18.0407 11.5 17.3334V14.6667C11.5 13.9595 11.219 13.2812 10.719 12.7811C10.2189 12.281 9.54058 12.0001 8.83333 12.0001ZM8.83333 17.3334H6.16667V14.6667H8.83333V17.3334ZM8.83333 2.66675H6.16667C5.45942 2.66675 4.78115 2.9477 4.28105 3.4478C3.78095 3.94789 3.5 4.62617 3.5 5.33341V8.00008C3.5 8.70733 3.78095 9.3856 4.28105 9.8857C4.78115 10.3858 5.45942 10.6667 6.16667 10.6667H8.83333C9.54058 10.6667 10.2189 10.3858 10.719 9.8857C11.219 9.3856 11.5 8.70733 11.5 8.00008V5.33341C11.5 4.62617 11.219 3.94789 10.719 3.4478C10.2189 2.9477 9.54058 2.66675 8.83333 2.66675ZM18.1667 21.3334H15.5C14.7928 21.3334 14.1145 21.6144 13.6144 22.1145C13.1143 22.6146 12.8333 23.2928 12.8333 24.0001V26.6667C12.8333 27.374 13.1143 28.0523 13.6144 28.5524C14.1145 29.0525 14.7928 29.3334 15.5 29.3334H18.1667C18.8739 29.3334 19.5522 29.0525 20.0523 28.5524C20.5524 28.0523 20.8333 27.374 20.8333 26.6667V24.0001C20.8333 23.2928 20.5524 22.6146 20.0523 22.1145C19.5522 21.6144 18.8739 21.3334 18.1667 21.3334ZM18.1667 26.6667H15.5V24.0001H18.1667V26.6667ZM18.1667 12.0001H15.5C14.7928 12.0001 14.1145 12.281 13.6144 12.7811C13.1143 13.2812 12.8333 13.9595 12.8333 14.6667V17.3334C12.8333 18.0407 13.1143 18.7189 13.6144 19.219C14.1145 19.7191 14.7928 20.0001 15.5 20.0001H18.1667C18.8739 20.0001 19.5522 19.7191 20.0523 19.219C20.5524 18.7189 20.8333 18.0407 20.8333 17.3334V14.6667C20.8333 13.9595 20.5524 13.2812 20.0523 12.7811C19.5522 12.281 18.8739 12.0001 18.1667 12.0001ZM18.1667 17.3334H15.5V14.6667H18.1667V17.3334ZM18.1667 2.66675H15.5C14.7928 2.66675 14.1145 2.9477 13.6144 3.4478C13.1143 3.94789 12.8333 4.62617 12.8333 5.33341V8.00008C12.8333 8.70733 13.1143 9.3856 13.6144 9.8857C14.1145 10.3858 14.7928 10.6667 15.5 10.6667H18.1667C18.8739 10.6667 19.5522 10.3858 20.0523 9.8857C20.5524 9.3856 20.8333 8.70733 20.8333 8.00008V5.33341C20.8333 4.62617 20.5524 3.94789 20.0523 3.4478C19.5522 2.9477 18.8739 2.66675 18.1667 2.66675ZM27.5 21.3334H24.8333C24.1261 21.3334 23.4478 21.6144 22.9477 22.1145C22.4476 22.6146 22.1667 23.2928 22.1667 24.0001V26.6667C22.1667 27.374 22.4476 28.0523 22.9477 28.5524C23.4478 29.0525 24.1261 29.3334 24.8333 29.3334H27.5C28.2072 29.3334 28.8855 29.0525 29.3856 28.5524C29.8857 28.0523 30.1667 27.374 30.1667 26.6667V24.0001C30.1667 23.2928 29.8857 22.6146 29.3856 22.1145C28.8855 21.6144 28.2072 21.3334 27.5 21.3334ZM27.5 26.6667H24.8333V24.0001H27.5V26.6667ZM27.5 12.0001H24.8333C24.1261 12.0001 23.4478 12.281 22.9477 12.7811C22.4476 13.2812 22.1667 13.9595 22.1667 14.6667V17.3334C22.1667 18.0407 22.4476 18.7189 22.9477 19.219C23.4478 19.7191 24.1261 20.0001 24.8333 20.0001H27.5C28.2072 20.0001 28.8855 19.7191 29.3856 19.219C29.8857 18.7189 30.1667 18.0407 30.1667 17.3334V14.6667C30.1667 13.9595 29.8857 13.2812 29.3856 12.7811C28.8855 12.281 28.2072 12.0001 27.5 12.0001ZM27.5 17.3334H24.8333V14.6667H27.5V17.3334ZM27.5 2.66675H24.8333C24.1261 2.66675 23.4478 2.9477 22.9477 3.4478C22.4476 3.94789 22.1667 4.62617 22.1667 5.33341V8.00008C22.1667 8.70733 22.4476 9.3856 22.9477 9.8857C23.4478 10.3858 24.1261 10.6667 24.8333 10.6667H27.5C28.2072 10.6667 28.8855 10.3858 29.3856 9.8857C29.8857 9.3856 30.1667 8.70733 30.1667 8.00008V5.33341C30.1667 4.62617 29.8857 3.94789 29.3856 3.4478C28.8855 2.9477 28.2072 2.66675 27.5 2.66675ZM27.5 8.00008H24.8333V5.33341H27.5V8.00008Z" fill="#FCFCFC"/>
</svg>
