<svg width="33" height="32" viewBox="0 0 33 32" fill="none" xmlns="http://www.w3.org/2000/svg">
<path d="M8.16536 21.3334H5.4987C4.79145 21.3334 4.11318 21.6144 3.61308 22.1145C3.11298 22.6146 2.83203 23.2928 2.83203 24.0001V26.6667C2.83203 27.374 3.11298 28.0523 3.61308 28.5524C4.11318 29.0525 4.79145 29.3334 5.4987 29.3334H8.16536C8.87261 29.3334 9.55089 29.0525 10.051 28.5524C10.5511 28.0523 10.832 27.374 10.832 26.6667V24.0001C10.832 23.2928 10.5511 22.6146 10.051 22.1145C9.55089 21.6144 8.87261 21.3334 8.16536 21.3334ZM8.16536 12.0001H5.4987C4.79145 12.0001 4.11318 12.281 3.61308 12.7811C3.11298 13.2812 2.83203 13.9595 2.83203 14.6667V17.3334C2.83203 18.0407 3.11298 18.7189 3.61308 19.219C4.11318 19.7191 4.79145 20.0001 5.4987 20.0001H8.16536C8.87261 20.0001 9.55089 19.7191 10.051 19.219C10.5511 18.7189 10.832 18.0407 10.832 17.3334V14.6667C10.832 13.9595 10.5511 13.2812 10.051 12.7811C9.55089 12.281 8.87261 12.0001 8.16536 12.0001ZM8.16536 2.66675H5.4987C4.79145 2.66675 4.11318 2.9477 3.61308 3.4478C3.11298 3.94789 2.83203 4.62617 2.83203 5.33341V8.00008C2.83203 8.70732 3.11298 9.3856 3.61308 9.8857C4.11318 10.3858 4.79145 10.6667 5.4987 10.6667H8.16536C8.87261 10.6667 9.55089 10.3858 10.051 9.8857C10.5511 9.3856 10.832 8.70732 10.832 8.00008V5.33341C10.832 4.62617 10.5511 3.94789 10.051 3.4478C9.55089 2.9477 8.87261 2.66675 8.16536 2.66675ZM17.4987 21.3334H14.832C14.1248 21.3334 13.4465 21.6144 12.9464 22.1145C12.4463 22.6146 12.1654 23.2928 12.1654 24.0001V26.6667C12.1654 27.374 12.4463 28.0523 12.9464 28.5524C13.4465 29.0525 14.1248 29.3334 14.832 29.3334H17.4987C18.2059 29.3334 18.8842 29.0525 19.3843 28.5524C19.8844 28.0523 20.1654 27.374 20.1654 26.6667V24.0001C20.1654 23.2928 19.8844 22.6146 19.3843 22.1145C18.8842 21.6144 18.2059 21.3334 17.4987 21.3334ZM17.4987 12.0001H14.832C14.1248 12.0001 13.4465 12.281 12.9464 12.7811C12.4463 13.2812 12.1654 13.9595 12.1654 14.6667V17.3334C12.1654 18.0407 12.4463 18.7189 12.9464 19.219C13.4465 19.7191 14.1248 20.0001 14.832 20.0001H17.4987C18.2059 20.0001 18.8842 19.7191 19.3843 19.219C19.8844 18.7189 20.1654 18.0407 20.1654 17.3334V14.6667C20.1654 13.9595 19.8844 13.2812 19.3843 12.7811C18.8842 12.281 18.2059 12.0001 17.4987 12.0001ZM17.4987 2.66675H14.832C14.1248 2.66675 13.4465 2.9477 12.9464 3.4478C12.4463 3.94789 12.1654 4.62617 12.1654 5.33341V8.00008C12.1654 8.70732 12.4463 9.3856 12.9464 9.8857C13.4465 10.3858 14.1248 10.6667 14.832 10.6667H17.4987C18.2059 10.6667 18.8842 10.3858 19.3843 9.8857C19.8844 9.3856 20.1654 8.70732 20.1654 8.00008V5.33341C20.1654 4.62617 19.8844 3.94789 19.3843 3.4478C18.8842 2.9477 18.2059 2.66675 17.4987 2.66675ZM26.832 21.3334H24.1654C23.4581 21.3334 22.7798 21.6144 22.2797 22.1145C21.7796 22.6146 21.4987 23.2928 21.4987 24.0001V26.6667C21.4987 27.374 21.7796 28.0523 22.2797 28.5524C22.7798 29.0525 23.4581 29.3334 24.1654 29.3334H26.832C27.5393 29.3334 28.2176 29.0525 28.7176 28.5524C29.2177 28.0523 29.4987 27.374 29.4987 26.6667V24.0001C29.4987 23.2928 29.2177 22.6146 28.7176 22.1145C28.2176 21.6144 27.5393 21.3334 26.832 21.3334ZM26.832 12.0001H24.1654C23.4581 12.0001 22.7798 12.281 22.2797 12.7811C21.7796 13.2812 21.4987 13.9595 21.4987 14.6667V17.3334C21.4987 18.0407 21.7796 18.7189 22.2797 19.219C22.7798 19.7191 23.4581 20.0001 24.1654 20.0001H26.832C27.5393 20.0001 28.2176 19.7191 28.7176 19.219C29.2177 18.7189 29.4987 18.0407 29.4987 17.3334V14.6667C29.4987 13.9595 29.2177 13.2812 28.7176 12.7811C28.2176 12.281 27.5393 12.0001 26.832 12.0001ZM26.832 2.66675H24.1654C23.4581 2.66675 22.7798 2.9477 22.2797 3.4478C21.7796 3.94789 21.4987 4.62617 21.4987 5.33341V8.00008C21.4987 8.70732 21.7796 9.3856 22.2797 9.8857C22.7798 10.3858 23.4581 10.6667 24.1654 10.6667H26.832C27.5393 10.6667 28.2176 10.3858 28.7176 9.8857C29.2177 9.3856 29.4987 8.70732 29.4987 8.00008V5.33341C29.4987 4.62617 29.2177 3.94789 28.7176 3.4478C28.2176 2.9477 27.5393 2.66675 26.832 2.66675Z" fill="#FCFCFC"/>
</svg>
