<svg width="38" height="14" viewBox="0 0 38 14" fill="none" xmlns="http://www.w3.org/2000/svg">
<path d="M19.6045 5.06359C19.5845 6.55925 21.0136 7.39394 22.0902 7.89017C23.1964 8.39937 23.5679 8.72586 23.5637 9.18115C23.5552 9.87806 22.6813 10.1856 21.8633 10.1976C20.4363 10.2185 19.6066 9.83313 18.947 9.54158L18.4329 11.817C19.0947 12.1056 20.3201 12.3572 21.591 12.3682C24.5738 12.3682 26.5254 10.9753 26.5359 8.81572C26.5476 6.07501 22.5282 5.92324 22.5557 4.69816C22.5652 4.32674 22.9399 3.93036 23.7611 3.82952C24.1674 3.7786 25.2894 3.73966 26.5613 4.29379L27.0605 2.09223C26.3766 1.8566 25.4973 1.63096 24.4028 1.63096C21.5952 1.63096 19.6204 3.04275 19.6045 5.06359ZM31.8577 1.82066C31.3131 1.82066 30.854 2.12119 30.6492 2.58247L26.3882 12.2064H29.3689L29.9621 10.6558H33.6046L33.9487 12.2064H36.5758L34.2833 1.82066H31.8577ZM32.2747 4.62627L33.1349 8.52617H30.779L32.2747 4.62627ZM15.9905 1.82066L13.641 12.2064H16.4813L18.8298 1.82066H15.9905ZM11.7886 1.82066L8.83217 8.8896L7.6363 2.879C7.49592 2.20805 6.94178 1.82066 6.32643 1.82066H1.49333L1.42578 2.12219C2.41794 2.32587 3.54521 2.65436 4.22811 3.00581C4.64609 3.22047 4.76536 3.40818 4.90257 3.91838L7.16766 12.2064H10.1695L14.7714 1.82066H11.7886Z" fill="url(#paint0_linear_376_600)"/>
<defs>
<linearGradient id="paint0_linear_376_600" x1="17.5857" y1="12.5836" x2="17.8797" y2="1.55537" gradientUnits="userSpaceOnUse">
<stop stop-color="#222357"/>
<stop offset="1" stop-color="#254AA5"/>
</linearGradient>
</defs>
</svg>
