<svg width="20" height="20" viewBox="0 0 20 20" fill="none" xmlns="http://www.w3.org/2000/svg">
<path d="M10 13.125C8.275 13.125 6.875 11.725 6.875 10C6.875 8.275 8.275 6.875 10 6.875C11.725 6.875 13.125 8.275 13.125 10C13.125 11.725 11.725 13.125 10 13.125ZM10 8.125C8.96667 8.125 8.125 8.96667 8.125 10C8.125 11.0333 8.96667 11.875 10 11.875C11.0333 11.875 11.875 11.0333 11.875 10C11.875 8.96667 11.0333 8.125 10 8.125Z" fill="#AFD275"/>
<path d="M12.6743 18.4913C12.4993 18.4913 12.3243 18.4663 12.1493 18.4246C11.6327 18.2829 11.1993 17.9579 10.9243 17.4996L10.8243 17.3329C10.3327 16.4829 9.65768 16.4829 9.16602 17.3329L9.07435 17.4913C8.79935 17.9579 8.36602 18.2913 7.84935 18.4246C7.32435 18.5663 6.78268 18.4913 6.32435 18.2163L4.89102 17.3913C4.38268 17.0996 4.01602 16.6246 3.85768 16.0496C3.70768 15.4746 3.78268 14.8829 4.07435 14.3746C4.31602 13.9496 4.38268 13.5663 4.24102 13.3246C4.09935 13.0829 3.74102 12.9413 3.24935 12.9413C2.03268 12.9413 1.04102 11.9496 1.04102 10.7329V9.26625C1.04102 8.04959 2.03268 7.05792 3.24935 7.05792C3.74102 7.05792 4.09935 6.91625 4.24102 6.67459C4.38268 6.43292 4.32435 6.04959 4.07435 5.62459C3.78268 5.11625 3.70768 4.51625 3.85768 3.94959C4.00768 3.37459 4.37435 2.89959 4.89102 2.60792L6.33268 1.78292C7.27435 1.22459 8.51602 1.54959 9.08268 2.50792L9.18268 2.67459C9.67435 3.52459 10.3493 3.52459 10.841 2.67459L10.9327 2.51625C11.4993 1.54959 12.741 1.22459 13.691 1.79125L15.1243 2.61625C15.6327 2.90792 15.9993 3.38292 16.1577 3.95792C16.3077 4.53292 16.2327 5.12459 15.941 5.63292C15.6993 6.05792 15.6327 6.44126 15.7744 6.68292C15.916 6.92459 16.2744 7.06625 16.766 7.06625C17.9827 7.06625 18.9743 8.05792 18.9743 9.27459V10.7413C18.9743 11.9579 17.9827 12.9496 16.766 12.9496C16.2744 12.9496 15.916 13.0913 15.7744 13.3329C15.6327 13.5746 15.691 13.9579 15.941 14.3829C16.2327 14.8913 16.316 15.4913 16.1577 16.0579C16.0077 16.6329 15.641 17.1079 15.1243 17.3996L13.6827 18.2246C13.366 18.3996 13.0243 18.4913 12.6743 18.4913ZM9.99935 15.4079C10.741 15.4079 11.4327 15.8746 11.9077 16.6996L11.9993 16.8579C12.0993 17.0329 12.266 17.1579 12.466 17.2079C12.666 17.2579 12.866 17.2329 13.0327 17.1329L14.4743 16.2996C14.691 16.1746 14.8577 15.9663 14.9243 15.7163C14.991 15.4663 14.9577 15.2079 14.8327 14.9913C14.3577 14.1746 14.2993 13.3329 14.666 12.6913C15.0327 12.0496 15.791 11.6829 16.741 11.6829C17.2743 11.6829 17.6994 11.2579 17.6994 10.7246V9.25792C17.6994 8.73292 17.2743 8.29959 16.741 8.29959C15.791 8.29959 15.0327 7.93292 14.666 7.29125C14.2993 6.64959 14.3577 5.80792 14.8327 4.99125C14.9577 4.77459 14.991 4.51625 14.9243 4.26625C14.8577 4.01625 14.6993 3.81625 14.4827 3.68292L13.041 2.85792C12.6827 2.64125 12.2077 2.76625 11.991 3.13292L11.8993 3.29125C11.4243 4.11625 10.7327 4.58292 9.99102 4.58292C9.24935 4.58292 8.55768 4.11625 8.08268 3.29125L7.99102 3.12459C7.78268 2.77459 7.31602 2.64959 6.95768 2.85792L5.51602 3.69125C5.29935 3.81625 5.13268 4.02459 5.06602 4.27459C4.99935 4.52459 5.03268 4.78292 5.15768 4.99959C5.63268 5.81625 5.69102 6.65792 5.32435 7.29959C4.95768 7.94126 4.19935 8.30792 3.24935 8.30792C2.71602 8.30792 2.29102 8.73292 2.29102 9.26625V10.7329C2.29102 11.2579 2.71602 11.6913 3.24935 11.6913C4.19935 11.6913 4.95768 12.0579 5.32435 12.6996C5.69102 13.3413 5.63268 14.1829 5.15768 14.9996C5.03268 15.2163 4.99935 15.4746 5.06602 15.7246C5.13268 15.9746 5.29102 16.1746 5.50768 16.3079L6.94935 17.1329C7.12435 17.2413 7.33268 17.2663 7.52435 17.2163C7.72435 17.1663 7.89102 17.0329 7.99935 16.8579L8.09102 16.6996C8.56602 15.8829 9.25768 15.4079 9.99935 15.4079Z" fill="#AFD275"/>
</svg>
