<svg width="14" height="14" viewBox="0 0 14 14" fill="none" xmlns="http://www.w3.org/2000/svg">
<path d="M12.8346 6.99967V9.91634C12.8346 11.6663 11.668 12.833 9.91797 12.833H4.08464C2.33464 12.833 1.16797 11.6663 1.16797 9.91634V6.99967C1.16797 5.41301 2.12464 4.30467 3.61214 4.11801C3.7638 4.09467 3.9213 4.08301 4.08464 4.08301H9.91797C10.0696 4.08301 10.2155 4.08883 10.3555 4.11217C11.8605 4.28717 12.8346 5.40134 12.8346 6.99967Z" stroke="#EDF1F3" stroke-linecap="round" stroke-linejoin="round"/>
<path d="M10.3566 4.11282C10.2166 4.08949 10.0708 4.08367 9.91911 4.08367H4.08578C3.92245 4.08367 3.76495 4.09533 3.61328 4.11866C3.69495 3.95533 3.81161 3.80366 3.95161 3.66366L5.84745 1.76199C6.64661 0.968659 7.94161 0.968659 8.74078 1.76199L9.76161 2.7945C10.1349 3.162 10.3333 3.62866 10.3566 4.11282Z" stroke="#EDF1F3" stroke-linecap="round" stroke-linejoin="round"/>
<path d="M12.8346 7.29199H11.0846C10.443 7.29199 9.91797 7.81699 9.91797 8.45866C9.91797 9.10033 10.443 9.62533 11.0846 9.62533H12.8346" stroke="#EDF1F3" stroke-linecap="round" stroke-linejoin="round"/>
</svg>
