<svg width="120" height="120" viewBox="0 0 120 120" fill="none" xmlns="http://www.w3.org/2000/svg">
<path opacity="0.4" d="M80.9 10H39.05C20.85 10 10 20.85 10 39.05V80.9C10 99.1 20.85 109.95 39.05 109.95H80.9C99.1 109.95 109.95 99.1 109.95 80.9V39.05C109.95 20.85 99.1 10 80.9 10Z" fill="#AFD275"/>
<path d="M43.4876 80.825H50.0064C54.7752 80.825 58.494 77.1062 58.494 72.3375V65.8188C58.494 61.05 54.7752 57.3313 50.0064 57.3313H41.6501C42.0001 49.4126 43.8376 48.2313 49.1314 45.1251C50.7064 44.2063 51.1876 42.1938 50.2689 40.6188C49.9793 40.1226 49.5639 39.7116 49.0645 39.4273C48.5652 39.1431 47.9997 38.9957 47.4251 39.0001C46.8564 39.0001 46.2876 39.1313 45.7626 39.4376C37.9313 44.0751 35 47.0938 35 60.5688V72.25C35 77.0187 38.8063 80.825 43.4876 80.825ZM70.3022 80.825H76.821C81.5898 80.825 85.3086 77.1062 85.3086 72.3375V65.8188C85.3086 61.05 81.5898 57.3313 76.821 57.3313H68.4647C68.8147 49.4126 70.6522 48.2313 75.946 45.1251C77.521 44.2063 78.0023 42.1938 77.0835 40.6188C76.7939 40.1226 76.3785 39.7116 75.8791 39.4273C75.3798 39.1431 74.8143 38.9957 74.2397 39.0001C73.671 39.0001 73.1022 39.1313 72.5772 39.4376C64.7459 44.0751 61.8146 47.0938 61.8146 60.5688V72.25C61.8584 77.0187 65.6647 80.825 70.3022 80.825Z" fill="#AFD275"/>
</svg>
