<svg width="120" height="120" viewBox="0 0 120 120" fill="none" xmlns="http://www.w3.org/2000/svg">
<path opacity="0.4" d="M80.9605 10H39.1105C20.9105 10 10.0605 20.85 10.0605 39.05V80.9C10.0605 99.1 20.9105 109.95 39.1105 109.95H80.9605C99.1605 109.95 110.011 99.1 110.011 80.9V39.05C110.011 20.85 99.1605 10 80.9605 10Z" fill="#AFD275"/>
<path d="M61.0108 86.91C57.3727 86.91 53.8829 85.4682 51.3057 82.9004C48.7285 80.3326 47.274 76.8481 47.2608 73.21C47.2608 69.56 48.7108 66.06 51.3108 63.51L58.3608 56.46C59.8108 55.01 62.2108 55.01 63.6608 56.46C65.1108 57.91 65.1108 60.31 63.6608 61.76L56.6108 68.81C56.0266 69.3843 55.5627 70.0691 55.246 70.8245C54.9293 71.5799 54.7662 72.3909 54.7662 73.21C54.7662 74.0292 54.9293 74.8401 55.246 75.5955C55.5627 76.351 56.0266 77.0358 56.6108 77.61C59.0608 80.06 63.0108 80.06 65.4608 77.61L76.5608 66.51C79.5417 63.4458 81.1964 59.3313 81.1669 55.0564C81.1375 50.7816 79.4263 46.6902 76.4034 43.6674C73.3806 40.6446 69.2892 38.9333 65.0144 38.9039C60.7396 38.8744 56.625 40.5291 53.5608 43.51L41.4608 55.61C40.2103 56.8456 39.2174 58.3172 38.5398 59.9393C37.8622 61.5615 37.5133 63.302 37.5133 65.06C37.5133 66.818 37.8622 68.5585 38.5398 70.1807C39.2174 71.8029 40.2103 73.2744 41.4608 74.51C42.9108 75.96 42.9108 78.36 41.4608 79.81C40.0108 81.26 37.6108 81.26 36.1608 79.81C34.2149 77.8697 32.6737 75.5624 31.6265 73.0218C30.5794 70.4812 30.0472 67.7579 30.0608 65.01C30.0608 59.41 32.2108 54.16 36.1608 50.21L48.2608 38.11C52.7231 33.6669 58.7637 31.1724 65.0608 31.1724C71.3579 31.1724 77.3985 33.6669 81.8608 38.11C86.3039 42.5723 88.7985 48.6129 88.7985 54.91C88.7985 61.2071 86.3039 67.2478 81.8608 71.71L70.7608 82.81C68.0608 85.56 64.5608 86.91 61.0108 86.91Z" fill="#AFD275"/>
</svg>
