<svg width="120" height="120" viewBox="0 0 120 120" fill="none" xmlns="http://www.w3.org/2000/svg">
<path opacity="0.4" d="M80.9 10H39.05C20.85 10 10 20.85 10 39.05V80.9C10 99.1 20.85 109.95 39.05 109.95H80.9C99.1 109.95 109.95 99.1 109.95 80.9V39.05C109.95 20.85 99.1 10 80.9 10Z" fill="#AFD275"/>
<path d="M39.75 89.3333C44.5625 89.3333 48.5 85.3958 48.5 80.5833V71.8333H39.75C34.9375 71.8333 31 75.7708 31 80.5833C31 85.3958 34.9375 89.3333 39.75 89.3333ZM39.75 48.5H48.5V39.75C48.5 34.9375 44.5625 31 39.75 31C34.9375 31 31 34.9375 31 39.75C31 44.5625 34.9375 48.5 39.75 48.5ZM71.8333 48.5H80.5833C85.3958 48.5 89.3333 44.5625 89.3333 39.75C89.3333 34.9375 85.3958 31 80.5833 31C75.7708 31 71.8333 34.9375 71.8333 39.75V48.5ZM80.5833 89.3333C85.3958 89.3333 89.3333 85.3958 89.3333 80.5833C89.3333 75.7708 85.3958 71.8333 80.5833 71.8333H71.8333V80.5833C71.8333 85.3958 75.7708 89.3333 80.5833 89.3333Z" fill="#AFD275"/>
<path d="M71.3333 48H48V71.3333H71.3333V48Z" fill="#AFD275"/>
</svg>
