<svg width="120" height="120" viewBox="0 0 120 120" fill="none" xmlns="http://www.w3.org/2000/svg">
<path opacity="0.4" d="M85 110H35C24 110 15 101 15 90V30C15 19 24 10 35 10H85C96 10 105 19 105 30V90C105 101 96 110 85 110Z" fill="#AFD275"/>
<path d="M49.105 35.595C49.07 35.28 49.035 35 48.965 34.685C48.93 34.44 48.895 34.195 48.825 33.915C48.72 33.495 48.58 33.04 48.405 32.62C47.985 31.395 47.355 30.275 46.55 29.225C46.095 28.665 45.605 28.105 45.045 27.65C42.805 25.62 39.9 24.5 36.855 24.5C33.5783 24.5 30.4357 25.8017 28.1187 28.1187C25.8017 30.4357 24.5 33.5782 24.5 36.855C24.5 39.9 25.62 42.805 27.65 45.045C28.105 45.6049 28.665 46.0949 29.225 46.5499C30.275 47.3549 31.395 47.9849 32.62 48.4049C33.04 48.5799 33.495 48.7199 33.915 48.8249C34.195 48.8949 34.44 48.9299 34.685 48.9649C35 49.0349 35.28 49.0699 35.595 49.1049C36.015 49.1399 36.435 49.1749 36.855 49.1749C43.645 49.1749 49.175 43.645 49.175 36.855C49.175 36.435 49.14 36.015 49.105 35.595ZM91.35 73.9899C91 73.5349 90.545 73.0799 90.055 72.6949C89.985 72.6249 89.88 72.5199 89.775 72.4499C88.83 71.7149 87.78 71.1199 86.695 70.6999C86.6029 70.634 86.4932 70.5975 86.38 70.5949C85.995 70.4549 85.61 70.3149 85.225 70.2099C84.63 70.0699 84 69.9649 83.405 69.8949C82.985 69.8599 82.565 69.8249 82.145 69.8249C75.355 69.8249 69.825 75.3549 69.825 82.1449C69.825 82.5649 69.86 82.9849 69.895 83.4049C69.965 83.9999 70.07 84.6299 70.21 85.2249C70.315 85.6099 70.455 85.9949 70.595 86.3799C70.595 86.4849 70.63 86.5899 70.7 86.6949C71.12 87.7799 71.715 88.8298 72.45 89.7748C72.52 89.8798 72.625 89.9498 72.695 90.0548C73.08 90.5448 73.535 90.9998 73.99 91.3498C76.23 93.3798 79.1 94.4998 82.145 94.4998C85.4217 94.4998 88.5643 93.1982 90.8813 90.8811C93.1983 88.5641 94.5 85.4216 94.5 82.1449C94.5 79.0999 93.38 76.2299 91.35 73.9899ZM36.855 69.8249C36.435 69.8249 36.015 69.8599 35.595 69.8949C35 69.9649 34.37 70.0699 33.775 70.2099C33.39 70.3149 33.005 70.4549 32.62 70.5949C32.515 70.5949 32.41 70.6299 32.305 70.6999C31.22 71.1199 30.17 71.7149 29.225 72.4499C29.12 72.5199 29.05 72.6249 28.945 72.6949C28.455 73.0799 28 73.5349 27.65 73.9899C25.62 76.2299 24.5 79.0999 24.5 82.1449C24.5 85.4216 25.8017 88.5641 28.1187 90.8811C30.4357 93.1982 33.5783 94.4998 36.855 94.4998C39.9 94.4998 42.805 93.3798 45.045 91.3498C45.605 90.8948 46.095 90.3348 46.55 89.7748C47.285 88.8298 47.88 87.7799 48.3 86.6949C48.37 86.5899 48.405 86.4849 48.405 86.3799C48.545 85.9949 48.685 85.6099 48.79 85.2249C48.93 84.6299 49.035 83.9999 49.105 83.4049C49.14 82.9849 49.175 82.5649 49.175 82.1449C49.175 75.3549 43.645 69.8249 36.855 69.8249ZM82.145 24.5C79.1 24.5 76.23 25.62 73.99 27.65C73.535 28 73.08 28.455 72.695 28.945C72.625 29.015 72.52 29.12 72.45 29.225C71.715 30.17 71.12 31.22 70.7 32.305C70.63 32.41 70.595 32.515 70.595 32.62C70.455 33.005 70.315 33.39 70.21 33.775C70.07 34.37 69.965 35 69.895 35.595C69.86 36.015 69.825 36.435 69.825 36.855C69.825 43.645 75.355 49.1749 82.145 49.1749C82.565 49.1749 82.985 49.1399 83.405 49.1049C84 49.0349 84.63 48.9299 85.225 48.7899C85.61 48.6849 85.995 48.5449 86.38 48.4049C86.485 48.4049 86.59 48.3699 86.695 48.2999C87.78 47.8799 88.83 47.2849 89.775 46.5499C90.335 46.0949 90.895 45.6049 91.35 45.045C93.38 42.805 94.5 39.9 94.5 36.855C94.5 33.5782 93.1983 30.4357 90.8813 28.1187C88.5643 25.8017 85.4217 24.5 82.145 24.5Z" fill="#AFD275"/>
<path opacity="0.4" d="M72.695 90.0554C72.625 89.9504 72.52 89.8804 72.45 89.7754C71.715 88.8304 71.12 87.7804 70.7 86.6954L70.805 87.0104C63.77 89.9504 55.37 89.9854 48.195 87.0104L48.3 86.6954C47.88 87.7804 47.285 88.8304 46.55 89.7754C46.095 90.3354 45.605 90.8954 45.045 91.3503C49.525 93.4153 54.495 94.5003 59.5 94.5003C64.61 94.5003 69.475 93.4503 73.99 91.3503C73.535 91.0004 73.08 90.5453 72.695 90.0554ZM29.75 59.5004C29.75 55.6154 30.52 51.7304 31.99 48.1954C32.025 48.1954 32.095 48.2304 32.13 48.2304C31.0885 47.8078 30.1108 47.2424 29.225 46.5504C28.665 46.0955 28.105 45.6055 27.65 45.0455C25.585 49.5254 24.5 54.4954 24.5 59.5004C24.5 64.6104 25.55 69.4754 27.65 73.9904C28 73.5354 28.455 73.0804 28.945 72.6954C29.05 72.6254 29.12 72.5204 29.225 72.4504C30.17 71.7154 31.22 71.1204 32.305 70.7004L31.99 70.8054C30.485 67.2704 29.75 63.4554 29.75 59.5004ZM91.35 45.0455C90.895 45.6055 90.335 46.0955 89.775 46.5504C88.83 47.2854 87.78 47.8804 86.695 48.3004L87.01 48.1954C88.48 51.7304 89.25 55.6154 89.25 59.5004C89.25 63.4554 88.515 67.2704 87.01 70.8054L86.695 70.7004C87.78 71.1204 88.83 71.7154 89.775 72.4504C89.88 72.5204 89.985 72.6254 90.055 72.6954C90.545 73.0804 91 73.5354 91.35 73.9904C93.45 69.4754 94.5 64.6104 94.5 59.5004C94.5 54.4954 93.415 49.5254 91.35 45.0455ZM59.5 24.5005C54.495 24.5005 49.525 25.5855 45.045 27.6505C45.605 28.1055 46.095 28.6655 46.55 29.2255C47.242 30.1113 47.8074 31.089 48.23 32.1305C48.23 32.0955 48.195 32.0255 48.195 31.9905C55.335 29.0155 63.77 29.0505 70.805 31.9905L70.7 32.3055C71.12 31.2205 71.715 30.1705 72.45 29.2255C72.52 29.1205 72.625 29.0155 72.695 28.9455C73.08 28.4555 73.535 28.0005 73.99 27.6505C69.45 25.5489 64.5027 24.4734 59.5 24.5005Z" fill="#AFD275"/>
</svg>
