<svg width="120" height="120" viewBox="0 0 120 120" fill="none" xmlns="http://www.w3.org/2000/svg">
<path opacity="0.4" d="M85 110H35C24 110 15 101 15 90V30C15 19 24 10 35 10H85C96 10 105 19 105 30V90C105 101 96 110 85 110Z" fill="#AFD275"/>
<path d="M81.25 55H38.75C33.95 55 30 51.05 30 46.25V33.75C30 28.95 33.95 25 38.75 25H81.25C86.05 25 90 28.95 90 33.75V46.25C90 51.05 86.05 55 81.25 55ZM54.3 85.395L51.05 82.145L54.15 79.045C55.6 77.595 55.6 75.195 54.15 73.745C53.4443 73.0476 52.4922 72.6565 51.5 72.6565C50.5078 72.6565 49.5557 73.0476 48.85 73.745L45.75 76.845L42.8 73.895C42.0943 73.1976 41.1422 72.8065 40.15 72.8065C39.1578 72.8065 38.2057 73.1976 37.5 73.895C36.05 75.345 36.05 77.745 37.5 79.195L40.45 82.145L37.35 85.245C35.9 86.695 35.9 89.095 37.35 90.545C38.1 91.295 39.05 91.645 40 91.645C40.95 91.645 41.9 91.295 42.65 90.545L45.75 87.445L49 90.695C49.75 91.445 50.7 91.795 51.65 91.795C52.6 91.795 53.55 91.445 54.3 90.695C55.75 89.245 55.75 86.845 54.3 85.395ZM82.55 81.64C79.8 81.64 77.5 79.39 77.5 76.64C77.5 73.89 79.7 71.64 82.45 71.64H82.55C85.3 71.64 87.55 73.89 87.55 76.64C87.55 79.39 85.3 81.64 82.55 81.64ZM72.45 92.45C69.7 92.45 67.45 90.25 67.45 87.5V87.4C67.45 84.65 69.7 82.4 72.45 82.4C75.2 82.4 77.45 84.65 77.45 87.4C77.45 90.15 75.2 92.45 72.45 92.45Z" fill="#AFD275"/>
</svg>
