<svg width="120" height="120" viewBox="0 0 120 120" fill="none" xmlns="http://www.w3.org/2000/svg">
<path opacity="0.4" d="M80.9605 10H39.1105C20.9105 10 10.0605 20.85 10.0605 39.05V80.9C10.0605 99.1 20.9105 109.95 39.1105 109.95H80.9605C99.1605 109.95 110.011 99.1 110.011 80.9V39.05C110.011 20.85 99.1605 10 80.9605 10Z" fill="#AFD275"/>
<path d="M40.9098 83.8502H40.5598C35.7098 83.4002 31.1598 81.1502 27.7598 77.5502C19.7598 69.1502 19.7598 55.5002 27.7598 47.1002L38.7098 35.6002C40.6011 33.5828 42.8856 31.9742 45.4223 30.8735C47.9591 29.7728 50.6945 29.2033 53.4598 29.2002C59.0598 29.2002 64.3098 31.4502 68.2098 35.6002C76.2098 44.0002 76.2098 57.6502 68.2098 66.0502L62.7598 71.8002C61.3098 73.3002 58.9598 73.3502 57.4598 71.9502C56.7432 71.2638 56.3257 70.3228 56.2977 69.331C56.2696 68.3391 56.6332 67.376 57.3098 66.6502L62.7598 60.9002C68.0598 55.3502 68.0598 46.3002 62.7598 40.8002C57.8098 35.6002 49.1098 35.6002 44.1098 40.8002L33.1598 52.3002C27.8598 57.8502 27.8598 66.9002 33.1598 72.4002C35.3098 74.7002 38.2098 76.1002 41.2598 76.4002C43.3098 76.6002 44.8098 78.4502 44.6098 80.5002C44.5224 81.4196 44.0943 82.2732 43.4097 82.893C42.7251 83.5129 41.8333 83.8543 40.9098 83.8502Z" fill="#AFD275"/>
<path d="M66.5508 90.7898C60.9508 90.7898 55.7008 88.5398 51.8008 84.3898C43.8008 75.9898 43.8008 62.3398 51.8008 53.9398L57.2508 48.1898C58.7008 46.6898 61.0508 46.6398 62.5508 48.0398C64.0508 49.4898 64.1008 51.8398 62.7008 53.3398L57.2508 59.0898C51.9508 64.6398 51.9508 73.6898 57.2508 79.1898C62.2008 84.3898 70.9008 84.4398 75.9008 79.1898L86.8508 67.6898C92.1508 62.1398 92.1508 53.0898 86.8508 47.5898C84.7008 45.2898 81.8008 43.8898 78.7508 43.5898C77.7635 43.4887 76.8565 43.0005 76.2286 42.232C75.6007 41.4635 75.303 40.4774 75.4008 39.4898C75.6008 37.4398 77.4008 35.8898 79.5008 36.1398C84.3508 36.6398 88.9008 38.8398 92.3008 42.4398C100.301 50.8398 100.301 64.4898 92.3008 72.8898L81.3508 84.3898C79.4537 86.4133 77.1611 88.0255 74.6153 89.1264C72.0694 90.2273 69.3245 90.7935 66.5508 90.7898Z" fill="#AFD275"/>
</svg>
