<svg width="120" height="120" viewBox="0 0 120 120" fill="none" xmlns="http://www.w3.org/2000/svg">
<path opacity="0.4" d="M80.9605 10H39.1105C20.9105 10 10.0605 20.85 10.0605 39.05V80.9C10.0605 99.1 20.9105 109.95 39.1105 109.95H80.9605C99.1605 109.95 110.011 99.1 110.011 80.9V39.05C110.011 20.85 99.1605 10 80.9605 10Z" fill="#AFD275"/>
<path d="M109.573 17.5961C104.428 30.3851 92.7655 47.0941 81.5934 58.0211C80.7981 53.0886 78.4409 48.5415 74.8686 45.0486C71.2962 41.5557 66.6972 39.3013 61.748 38.6171C72.7242 27.4451 89.5315 15.5871 102.37 10.3931C104.624 9.51108 106.927 10.1971 108.299 11.6181C109.818 13.0881 110.504 15.3421 109.573 17.5961Z" fill="#AFD275"/>
<path opacity="0.5" d="M81.5921 57.9821C79.632 59.8931 77.672 61.6571 75.81 63.1271L68.1168 69.3011C67.1368 69.9871 66.1568 70.5751 65.0788 71.0651C65.0788 70.3301 64.9808 69.5951 64.9318 68.8111C64.4908 65.5771 63.0208 62.4901 60.3747 59.8441C57.886 57.3487 54.6522 55.7318 51.1626 55.2381C50.3786 55.1401 49.5456 55.1401 48.8105 55.1401C49.2516 53.9151 49.8886 52.7881 50.7216 51.8571L56.8467 44.1641C58.3167 42.3021 59.9827 40.4401 61.7958 38.5781C71.9389 39.9991 80.024 47.9371 81.5921 57.9821Z" fill="#AFD275"/>
<path d="M65.0783 71.1042C65.0783 75.4162 63.4122 79.5322 60.3252 82.6192C57.9242 85.0202 54.7391 86.6862 50.819 87.1762L41.2149 88.2542C35.9718 88.8422 31.4637 84.3342 32.0518 79.0422L33.1298 69.4382C34.0608 60.8632 41.2149 55.3752 48.81 55.2282C49.545 55.1792 50.378 55.2282 51.1621 55.3262C54.4941 55.7672 57.6792 57.2862 60.3742 59.9322C62.9712 62.5292 64.4903 65.6652 64.9313 68.8992C64.9803 69.6342 65.0783 70.3692 65.0783 71.1042Z" fill="#AFD275"/>
</svg>
