<svg width="120" height="120" viewBox="0 0 120 120" fill="none" xmlns="http://www.w3.org/2000/svg">
<path opacity="0.4" d="M80.9 10H39.05C20.85 10 10 20.85 10 39.05V80.9C10 99.1 20.85 109.95 39.05 109.95H80.9C99.1 109.95 109.95 99.1 109.95 80.9V39.05C109.95 20.85 99.1 10 80.9 10Z" fill="#AFD275"/>
<path d="M73.4541 87.8322C71.8756 87.8322 70.5665 86.5232 70.5665 84.9447V69.9299C70.5665 68.3514 71.8756 67.0424 73.4541 67.0424C75.0326 67.0424 76.3416 68.3514 76.3416 69.9299V84.9447C76.3416 86.5232 75.0326 87.8322 73.4541 87.8322ZM73.4541 45.2824C71.8756 45.2824 70.5665 43.9734 70.5665 42.3949V34.8875C70.5665 33.309 71.8756 32 73.4541 32C75.0326 32 76.3416 33.309 76.3416 34.8875V42.3949C76.3416 43.9734 75.0326 45.2824 73.4541 45.2824ZM45.8876 87.8245C44.309 87.8245 43 86.5155 43 84.937V77.4296C43 75.8511 44.309 74.5421 45.8876 74.5421C47.4661 74.5421 48.7751 75.8511 48.7751 77.4296V84.937C48.7751 86.5155 47.5046 87.8245 45.8876 87.8245ZM45.8876 52.7898C44.309 52.7898 43 51.4808 43 49.9023V34.8875C43 33.309 44.309 32 45.8876 32C47.4661 32 48.7751 33.309 48.7751 34.8875V49.9023C48.7751 51.4808 47.5046 52.7898 45.8876 52.7898Z" fill="#AFD275"/>
<path d="M74.0387 42C68.2636 42 63.528 46.697 63.528 52.4719C63.528 58.2469 68.2251 62.9823 74.0387 62.9823C79.8139 62.9823 84.5109 58.2854 84.5109 52.4719C84.5109 46.6585 79.8139 42 74.0387 42ZM46.4722 57.0226C40.6971 57.0226 36 61.7195 36 67.533C36 73.3464 40.6971 78.0049 46.4722 78.0049C52.2473 78.0049 56.9829 73.3079 56.9829 67.533C56.9829 61.758 52.2858 57.0226 46.4722 57.0226Z" fill="#AFD275"/>
</svg>
