<svg width="56" height="32" viewBox="0 0 56 32" fill="none" xmlns="http://www.w3.org/2000/svg">
<rect x="0.5" y="0.5" width="55" height="31" rx="5.5" fill="#EDF1F3"/>
<rect x="0.5" y="0.5" width="55" height="31" rx="5.5" stroke="#EDF1F3"/>
<g clip-path="url(#clip0_376_1512)">
<path d="M40 16.9889V4H16V28H40V20.9978C39.9466 20.9978 40 16.9889 40 16.9889Z" fill="#006FCF"/>
<path d="M37.0601 15.6526H38.8775V11.4299H36.8997V12.0178L36.5255 11.4299H34.8151V12.1782L34.4943 11.4299H31.3406C31.2337 11.4299 31.1268 11.4834 31.02 11.4834C30.9131 11.4834 30.8597 11.5368 30.7527 11.5902C30.6458 11.6437 30.5924 11.6437 30.4855 11.6971V11.4299H21.452L21.1848 12.1248L20.9175 11.4299H18.7795V12.1782L18.4589 11.4299H16.7482L16 13.2473V15.6526H17.2294L17.4432 15.0646H17.8708L18.0846 15.6526H27.4923V15.1181L27.8663 15.6526H30.4855V15.332C30.5389 15.3854 30.6458 15.3854 30.6993 15.4389C30.7528 15.4923 30.8597 15.4923 30.9131 15.5457C31.02 15.5992 31.1269 15.5992 31.2338 15.5992H33.1581L33.3719 15.0112H33.7996L34.0133 15.5992H36.6325V15.0646L37.0601 15.6526ZM40 20.9979V17.0424H25.3007L24.9265 17.5769L24.5523 17.0424H20.2761V21.2651H24.5523L24.9265 20.7306L25.3007 21.2651H27.9733V20.3564H27.8664C28.2405 20.3564 28.5613 20.303 28.8285 20.1961V21.3186H30.7528V20.784L31.1269 21.3186H39.0913C39.412 21.2117 39.7327 21.1582 40 20.9979Z" fill="white"/>
<path d="M39.0913 19.9822H37.6481V20.5701H39.0378C39.6258 20.5701 40 20.1961 40 19.6615C40 19.1269 39.6794 18.8597 39.1448 18.8597H38.5034C38.3431 18.8597 38.2361 18.7528 38.2361 18.5925C38.2361 18.4322 38.343 18.3252 38.5033 18.3252H39.7327L40 17.7372H38.5568C37.9688 17.7372 37.5947 18.1114 37.5947 18.5925C37.5947 19.1269 37.9153 19.3942 38.4498 19.3942H39.0913C39.2516 19.3942 39.3586 19.5011 39.3586 19.6614C39.412 19.8753 39.305 19.9822 39.0913 19.9822ZM36.4722 19.9822H35.029V20.5701H36.4188C37.0067 20.5701 37.3808 20.1961 37.3808 19.6615C37.3808 19.1269 37.0602 18.8597 36.5256 18.8597H35.8842C35.7239 18.8597 35.617 18.7528 35.617 18.5925C35.617 18.4322 35.7239 18.3252 35.8842 18.3252H37.1136L37.3808 17.7372H35.9376C35.3496 17.7372 34.9755 18.1114 34.9755 18.5925C34.9755 19.1269 35.2962 19.3942 35.8307 19.3942H36.4722C36.6325 19.3942 36.7394 19.5011 36.7394 19.6614C36.7928 19.8753 36.6325 19.9822 36.4722 19.9822ZM34.6013 18.2718V17.6838H32.3564V20.5167H34.6013V19.9287H32.9978V19.3408H34.5479V18.7528H32.9978V18.2182H34.6013V18.2718ZM30.9666 18.2718C31.2338 18.2718 31.3407 18.4321 31.3407 18.5924C31.3407 18.7528 31.2338 18.9131 30.9666 18.9131H30.1648V18.2182L30.9666 18.2718ZM30.1648 19.5011H30.4855L31.3408 20.5167H32.1425L31.1804 19.4477C31.6615 19.3408 31.9287 19.0201 31.9287 18.5925C31.9287 18.0579 31.5546 17.6838 30.9666 17.6838H29.4699V20.5167H30.1113L30.1648 19.5011ZM28.4543 18.6459C28.4543 18.8597 28.3474 19.02 28.0802 19.02H27.225V18.2718H28.0267C28.2939 18.2718 28.4543 18.4321 28.4543 18.6458V18.6459ZM26.5835 17.6838V20.5167H27.225V19.5545H28.0802C28.6682 19.5545 29.0958 19.1805 29.0958 18.5925C29.0958 18.0579 28.7217 17.6303 28.1336 17.6303L26.5835 17.6838ZM25.6214 20.5167H26.4231L25.3007 19.0735L26.4231 17.6838H25.6214L24.9265 18.5925L24.2316 17.6838H23.4299L24.5523 19.0735L23.4299 20.4633H24.2316L24.9265 19.5545L25.6214 20.5167ZM23.216 18.2718V17.6838H20.971V20.5167H23.216V19.9287H21.6124V19.3408H23.1626V18.7528H21.6124V18.2182H23.216V18.2718ZM36.2049 13.2472L37.3274 14.9577H38.1292V12.1248H37.4878V13.9955L37.3275 13.7283L36.3118 12.1248H35.4566V14.9577H36.098V13.0334L36.2049 13.2472ZM33.4254 13.1938L33.6392 12.6058L33.853 13.1938L34.1202 13.8352H33.1581L33.4253 13.1938H33.4254ZM34.5479 14.9577H35.2428L34.0134 12.1248H33.1581L31.9287 14.9577H32.6236L32.8908 14.3697H34.2806L34.5479 14.9577ZM31.5545 14.9577L31.8218 14.3697H31.6615C31.1804 14.3697 30.9131 14.0491 30.9131 13.5679V13.5145C30.9131 13.0334 31.1804 12.7127 31.6615 12.7127H32.3564V12.1248H31.6081C30.7528 12.1248 30.2717 12.7127 30.2717 13.5145V13.5679C30.2717 14.4231 30.7528 14.9577 31.5545 14.9577ZM29.1492 14.9577H29.7906V12.1782H29.1492V14.9577ZM27.7594 12.7127C28.0267 12.7127 28.1336 12.873 28.1336 13.0334C28.1336 13.1937 28.0267 13.3541 27.7595 13.3541H26.9577V12.6592L27.7594 12.7127ZM26.9577 13.9421H27.2783L28.1336 14.9577H28.9354L27.9733 13.8887C28.4543 13.7818 28.7216 13.4611 28.7216 13.0334C28.7216 12.4989 28.3474 12.1248 27.7594 12.1248H26.2628V14.9577H26.9042L26.9577 13.9421ZM25.7818 12.7127V12.1248H23.5367V14.9577H25.7818V14.3697H24.1782V13.7818H25.7282V13.1938H24.1782V12.6592H25.7818V12.7127ZM20.9176 14.9577H21.5056L22.3073 12.6592V14.9577H22.9488V12.1248H21.8797L21.2383 14.049L20.5968 12.1248H19.5278V14.9577H20.1693V12.6592L20.9176 14.9577ZM17.4432 13.1938L17.6569 12.6058L17.8708 13.1938L18.1381 13.8352H17.1759L17.4432 13.1938ZM18.5657 14.9577H19.2606L18.0312 12.1248H17.2294L16 14.9577H16.6949L16.9621 14.3697H18.3519L18.5657 14.9577Z" fill="#006FCF"/>
</g>
<defs>
<clipPath id="clip0_376_1512">
<rect width="24" height="24" fill="white" transform="translate(16 4)"/>
</clipPath>
</defs>
</svg>
